Anton.ufo
<glyph name="exclam" format="1">
  <advance width="469"/>
  <unicode hex="0021"/>
  <outline>
    <contour>
      <point x="343" y="439" type="line"/>
      <point x="125" y="439" type="line"/>
      <point x="55" y="1593" type="line"/>
      <point x="413" y="1593" type="line"/>
    </contour>
    <contour>
      <point x="413" y="299" type="line"/>
      <point x="413" y="1" type="line"/>
      <point x="55" y="1" type="line"/>
      <point x="55" y="299" type="line"/>
    </contour>
  </outline>
</glyph>
<glyph name="quotedbl" format="1">
  <advance width="944"/>
  <unicode hex="0022"/>
  <outline>
    <contour>
      <point x="96" y="1761" type="line"/>
      <point x="408" y="1761" type="line"/>
      <point x="342" y="1125" type="line"/>
      <point x="176" y="1125" type="line"/>
    </contour>
    <contour>
      <point x="536" y="1761" type="line"/>
      <point x="848" y="1761" type="line"/>
      <point x="782" y="1125" type="line"/>
      <point x="616" y="1125" type="line"/>
    </contour>
  </outline>
</glyph>
<glyph name="numbersign" format="1">
  <advance width="1288"/>
  <unicode hex="0023"/>
  <outline>
    <contour>
      <point x="249" y="741" type="line"/>
      <point x="305" y="1023" type="line"/>
      <point x="195" y="1023" type="line"/>
      <point x="195" y="1255" type="line"/>
      <point x="350" y="1255" type="line"/>
      <point x="453" y="1763" type="line"/>
      <point x="737" y="1763" type="line"/>
      <point x="634" y="1255" type="line"/>
      <point x="800" y="1255" type="line"/>
      <point x="903" y="1763" type="line"/>
      <point x="1187" y="1763" type="line"/>
      <point x="1084" y="1255" type="line"/>
      <point x="1177" y="1255" type="line"/>
      <point x="1177" y="1023" type="line"/>
      <point x="1039" y="1023" type="line"/>
      <point x="983" y="741" type="line"/>
      <point x="1091" y="741" type="line"/>
      <point x="1091" y="509" type="line"/>
      <point x="937" y="509" type="line"/>
      <point x="838" y="0" type="line"/>
      <point x="555" y="0" type="line"/>
      <point x="654" y="509" type="line"/>
      <point x="487" y="509" type="line"/>
      <point x="388" y="0" type="line"/>
      <point x="105" y="0" type="line"/>
      <point x="204" y="509" type="line"/>
      <point x="109" y="509" type="line"/>
      <point x="109" y="741" type="line"/>
    </contour>
    <contour>
      <point x="699" y="741" type="line"/>
      <point x="755" y="1023" type="line"/>
      <point x="589" y="1023" type="line"/>
      <point x="533" y="741" type="line"/>
    </contour>
  </outline>
</glyph>
<glyph name="dollar" format="1">
  <advance width="946"/>
  <unicode hex="0024"/>
  <outline>
    <contour>
      <point x="911" y="413" type="curve" smooth="yes"/>
      <point x="911" y="193"/>
      <point x="760" y="57"/>
      <point x="557" y="34" type="curve"/>
      <point x="557" y="-113" type="line"/>
      <point x="384" y="-113" type="line"/>
      <point x="384" y="36" type="line"/>
      <point x="133" y="65"/>
      <point x="34" y="208"/>
      <point x="34" y="488" type="curve" smooth="yes"/>
      <point x="34" y="543" type="line"/>
      <point x="382" y="543" type="line"/>
      <point x="382" y="501" type="line" smooth="yes"/>
      <point x="382" y="398"/>
      <point x="413" y="347"/>
      <point x="476" y="347" type="curve" smooth="yes"/>
      <point x="532" y="347"/>
      <point x="560" y="397"/>
      <point x="560" y="456" type="curve" smooth="yes"/>
      <point x="560" y="479"/>
      <point x="539" y="514"/>
      <point x="498" y="560" type="curve"/>
      <point x="210" y="849" type="line" smooth="yes"/>
      <point x="105" y="954"/>
      <point x="52" y="1069"/>
      <point x="52" y="1192" type="curve" smooth="yes"/>
      <point x="52" y="1392"/>
      <point x="203" y="1526"/>
      <point x="384" y="1558" type="curve"/>
      <point x="384" y="1679" type="line"/>
      <point x="557" y="1679" type="line"/>
      <point x="557" y="1561" type="line"/>
      <point x="785" y="1532"/>
      <point x="906" y="1366"/>
      <point x="906" y="1105" type="curve"/>
      <point x="549" y="1105" type="line"/>
      <point x="547" y="1190" type="line"/>
      <point x="544" y="1227"/>
      <point x="505" y="1259"/>
      <point x="465" y="1259" type="curve" smooth="yes"/>
      <point x="419" y="1259"/>
      <point x="381" y="1228"/>
      <point x="381" y="1182" type="curve" smooth="yes"/>
      <point x="381" y="1149"/>
      <point x="414" y="1099"/>
      <point x="480" y="1034" type="curve" smooth="yes"/>
      <point x="760" y="758" type="line" smooth="yes"/>
      <point x="842" y="677"/>
      <point x="911" y="559"/>
    </contour>
  </outline>
</glyph>
<glyph name="percent" format="1">
  <advance width="2164"/>
  <unicode hex="0025"/>
  <outline>
    <contour>
      <point x="433" y="790" type="curve" smooth="yes"/>
      <point x="381" y="790"/>
      <point x="340" y="833"/>
      <point x="340" y="889" type="curve" smooth="yes"/>
      <point x="340" y="1375" type="line" smooth="yes"/>
      <point x="340" y="1452"/>
      <point x="355" y="1502"/>
      <point x="433" y="1502" type="curve" smooth="yes"/>
      <point x="511" y="1502"/>
      <point x="526" y="1453"/>
      <point x="526" y="1375" type="curve" smooth="yes"/>
      <point x="526" y="889" type="line" smooth="yes"/>
      <point x="526" y="833"/>
      <point x="485" y="790"/>
    </contour>
    <contour>
      <point x="433" y="528" type="curve" smooth="yes"/>
      <point x="682" y="528"/>
      <point x="825" y="693"/>
      <point x="825" y="948" type="curve" smooth="yes"/>
      <point x="825" y="1311" type="line" smooth="yes"/>
      <point x="825" y="1580"/>
      <point x="696" y="1729"/>
      <point x="433" y="1729" type="curve" smooth="yes"/>
      <point x="170" y="1729"/>
      <point x="42" y="1580"/>
      <point x="42" y="1311" type="curve" smooth="yes"/>
      <point x="42" y="948" type="line" smooth="yes"/>
      <point x="42" y="693"/>
      <point x="185" y="528"/>
    </contour>
    <contour>
      <point x="1730" y="244" type="curve" smooth="yes"/>
      <point x="1678" y="244"/>
      <point x="1637" y="287"/>
      <point x="1637" y="343" type="curve" smooth="yes"/>
      <point x="1637" y="829" type="line" smooth="yes"/>
      <point x="1637" y="906"/>
      <point x="1652" y="956"/>
      <point x="1730" y="956" type="curve" smooth="yes"/>
      <point x="1808" y="956"/>
      <point x="1823" y="907"/>
      <point x="1823" y="829" type="curve" smooth="yes"/>
      <point x="1823" y="343" type="line" smooth="yes"/>
      <point x="1823" y="287"/>
      <point x="1782" y="244"/>
    </contour>
    <contour>
      <point x="1730" y="-18" type="curve" smooth="yes"/>
      <point x="1979" y="-18"/>
      <point x="2122" y="147"/>
      <point x="2122" y="402" type="curve" smooth="yes"/>
      <point x="2122" y="765" type="line" smooth="yes"/>
      <point x="2122" y="1034"/>
      <point x="1993" y="1183"/>
      <point x="1730" y="1183" type="curve" smooth="yes"/>
      <point x="1467" y="1183"/>
      <point x="1339" y="1034"/>
      <point x="1339" y="765" type="curve" smooth="yes"/>
      <point x="1339" y="402" type="line" smooth="yes"/>
      <point x="1339" y="147"/>
      <point x="1482" y="-18"/>
    </contour>
    <contour>
      <point x="660" y="0" type="line"/>
      <point x="983" y="0" type="line"/>
      <point x="1524" y="1767" type="line"/>
      <point x="1200" y="1767" type="line"/>
    </contour>
  </outline>
</glyph>
<glyph name="ampersand" format="1">
  <advance width="1158"/>
  <unicode hex="0026"/>
  <outline>
    <contour>
      <point x="627" y="1552"/>
      <point x="632" y="1552"/>
      <point x="636" y="1552" type="curve" smooth="yes"/>
      <point x="686" y="1552"/>
      <point x="715" y="1525"/>
      <point x="715" y="1427" type="curve" smooth="yes"/>
      <point x="715" y="1328"/>
      <point x="652" y="1244"/>
      <point x="609" y="1193" type="curve"/>
      <point x="580" y="1275"/>
      <point x="551" y="1400"/>
      <point x="551" y="1441" type="curve" smooth="yes"/>
      <point x="551" y="1510"/>
      <point x="589" y="1546"/>
      <point x="623" y="1551" type="curve" smooth="yes"/>
    </contour>
    <contour>
      <point x="554" y="310"/>
      <point x="517" y="289"/>
      <point x="483" y="289" type="curve" smooth="yes"/>
      <point x="420" y="289"/>
      <point x="368" y="358"/>
      <point x="368" y="466" type="curve" smooth="yes"/>
      <point x="368" y="539"/>
      <point x="392" y="630"/>
      <point x="455" y="730" type="curve"/>
      <point x="587" y="356" type="line"/>
    </contour>
    <contour>
      <point x="530" y="-21"/>
      <point x="627" y="44"/>
      <point x="666" y="138" type="curve"/>
      <point x="712" y="0" type="line"/>
      <point x="1056" y="0" type="line"/>
      <point x="922" y="357" type="line"/>
      <point x="976" y="521"/>
      <point x="1049" y="620"/>
      <point x="1128" y="690" type="curve"/>
      <point x="988" y="934" type="line"/>
      <point x="912" y="872"/>
      <point x="859" y="739"/>
      <point x="820" y="626" type="curve"/>
      <point x="688" y="978" type="line"/>
      <point x="847" y="1119"/>
      <point x="934" y="1276"/>
      <point x="934" y="1434" type="curve" smooth="yes"/>
      <point x="934" y="1657"/>
      <point x="783" y="1781"/>
      <point x="585" y="1781" type="curve" smooth="yes"/>
      <point x="384" y="1781"/>
      <point x="233" y="1648"/>
      <point x="233" y="1421" type="curve" smooth="yes"/>
      <point x="233" y="1288"/>
      <point x="319" y="1088"/>
      <point x="364" y="988" type="curve"/>
      <point x="204" y="856"/>
      <point x="84" y="706"/>
      <point x="84" y="397" type="curve" smooth="yes"/>
      <point x="84" y="140"/>
      <point x="197" y="-21"/>
      <point x="418" y="-21" type="curve" smooth="yes"/>
    </contour>
  </outline>
</glyph>
<glyph name="quotesingle" format="1">
  <advance width="438"/>
  <unicode hex="0027"/>
  <outline>
    <contour>
      <point x="41" y="1760" type="line"/>
      <point x="141" y="1124" type="line"/>
      <point x="317" y="1124" type="line"/>
      <point x="393" y="1760" type="line"/>
    </contour>
  </outline>
</glyph>
<glyph name="parenleft" format="1">
  <advance width="697"/>
  <unicode hex="0028"/>
  <outline>
    <contour>
      <point x="482" y="309" type="line" smooth="yes"/>
      <point x="482" y="191"/>
      <point x="501" y="102"/>
      <point x="621" y="102" type="curve"/>
      <point x="621" y="-165" type="line"/>
      <point x="274" y="-165"/>
      <point x="126" y="-50"/>
      <point x="126" y="313" type="curve" smooth="yes"/>
      <point x="126" y="1363" type="line" smooth="yes"/>
      <point x="126" y="1726"/>
      <point x="274" y="1841"/>
      <point x="621" y="1841" type="curve"/>
      <point x="621" y="1574" type="line"/>
      <point x="501" y="1574"/>
      <point x="482" y="1485"/>
      <point x="482" y="1367" type="curve" smooth="yes"/>
    </contour>
  </outline>
</glyph>
<glyph name="parenright" format="1">
  <advance width="697"/>
  <unicode hex="0029"/>
  <outline>
    <contour>
      <point x="215" y="1367" type="line" smooth="yes"/>
      <point x="215" y="1485"/>
      <point x="196" y="1574"/>
      <point x="76" y="1574" type="curve"/>
      <point x="76" y="1841" type="line"/>
      <point x="423" y="1841"/>
      <point x="571" y="1726"/>
      <point x="571" y="1363" type="curve" smooth="yes"/>
      <point x="571" y="313" type="line" smooth="yes"/>
      <point x="571" y="-50"/>
      <point x="423" y="-165"/>
      <point x="76" y="-165" type="curve"/>
      <point x="76" y="102" type="line"/>
      <point x="196" y="102"/>
      <point x="215" y="191"/>
      <point x="215" y="309" type="curve" smooth="yes"/>
    </contour>
  </outline>
</glyph>
<glyph name="asterisk" format="1">
  <advance width="960"/>
  <unicode hex="002A"/>
  <outline>
    <contour>
      <point x="327" y="1171" type="line"/>
      <point x="53" y="1280" type="line"/>
      <point x="169" y="1480" type="line"/>
      <point x="407" y="1301" type="line"/>
      <point x="364" y="1593" type="line"/>
      <point x="596" y="1593" type="line"/>
      <point x="561" y="1307" type="line"/>
      <point x="791" y="1480" type="line"/>
      <point x="907" y="1280" type="line"/>
      <point x="632" y="1171" type="line"/>
      <point x="907" y="1054" type="line"/>
      <point x="791" y="854" type="line"/>
      <point x="560" y="1036" type="line"/>
      <point x="596" y="741" type="line"/>
      <point x="364" y="741" type="line"/>
      <point x="408" y="1043" type="line"/>
      <point x="169" y="854" type="line"/>
      <point x="53" y="1054" type="line"/>
    </contour>
  </outline>
</glyph>
<glyph name="plus" format="1">
  <advance width="728"/>
  <unicode hex="002B"/>
  <outline>
    <contour>
      <point x="248" y="301" type="line"/>
      <point x="480" y="301" type="line"/>
      <point x="480" y="509" type="line"/>
      <point x="688" y="509" type="line"/>
      <point x="688" y="741" type="line"/>
      <point x="480" y="741" type="line"/>
      <point x="480" y="949" type="line"/>
      <point x="248" y="949" type="line"/>
      <point x="248" y="741" type="line"/>
      <point x="40" y="741" type="line"/>
      <point x="40" y="509" type="line"/>
      <point x="248" y="509" type="line"/>
    </contour>
  </outline>
</glyph>
<glyph name="comma" format="1">
  <advance width="528"/>
  <unicode hex="002C"/>
  <outline>
    <contour>
      <point x="176" y="-328" type="line"/>
      <point x="242" y="0" type="line"/>
      <point x="115" y="0" type="line"/>
      <point x="115" y="318" type="line"/>
      <point x="446" y="318" type="line"/>
      <point x="446" y="9" type="line"/>
      <point x="344" y="-328" type="line"/>
    </contour>
  </outline>
</glyph>
<glyph name="hyphen" format="1">
  <advance width="696"/>
  <unicode hex="002D"/>
  <outline>
    <contour>
      <point x="606" y="741" type="line"/>
      <point x="606" y="509" type="line"/>
      <point x="90" y="509" type="line"/>
      <point x="90" y="741" type="line"/>
    </contour>
  </outline>
</glyph>
<glyph name="period" format="1">
  <advance width="468"/>
  <unicode hex="002E"/>
  <outline>
    <contour>
      <point x="413" y="299" type="line"/>
      <point x="413" y="1" type="line"/>
      <point x="55" y="1" type="line"/>
      <point x="55" y="299" type="line"/>
    </contour>
  </outline>
</glyph>
<glyph name="slash" format="1">
  <advance width="830"/>
  <unicode hex="002F"/>
  <outline>
    <contour>
      <point x="439" y="1767" type="line"/>
      <point x="803" y="1767" type="line"/>
      <point x="392" y="0" type="line"/>
      <point x="29" y="0" type="line"/>
    </contour>
  </outline>
</glyph>
<glyph name="zero" format="1">
  <advance width="1012"/>
  <unicode hex="0030"/>
  <outline>
    <contour>
      <point x="506" y="308" type="curve" smooth="yes"/>
      <point x="452" y="308"/>
      <point x="419" y="366"/>
      <point x="419" y="428" type="curve" smooth="yes"/>
      <point x="419" y="1297" type="line" smooth="yes"/>
      <point x="419" y="1379"/>
      <point x="426" y="1452"/>
      <point x="506" y="1452" type="curve" smooth="yes"/>
      <point x="586" y="1452"/>
      <point x="593" y="1379"/>
      <point x="593" y="1297" type="curve" smooth="yes"/>
      <point x="593" y="428" type="line" smooth="yes"/>
      <point x="593" y="366"/>
      <point x="560" y="308"/>
    </contour>
    <contour>
      <point x="506" y="-16" type="curve" smooth="yes"/>
      <point x="804" y="-16"/>
      <point x="972" y="156"/>
      <point x="972" y="469" type="curve" smooth="yes"/>
      <point x="972" y="1263" type="line" smooth="yes"/>
      <point x="972" y="1594"/>
      <point x="820" y="1776"/>
      <point x="506" y="1776" type="curve" smooth="yes"/>
      <point x="192" y="1776"/>
      <point x="40" y="1594"/>
      <point x="40" y="1263" type="curve" smooth="yes"/>
      <point x="40" y="469" type="line" smooth="yes"/>
      <point x="40" y="156"/>
      <point x="208" y="-16"/>
    </contour>
  </outline>
</glyph>
<glyph name="one" format="1">
  <advance width="677"/>
  <unicode hex="0031"/>
  <outline>
    <contour>
      <point x="24" y="1260" type="curve"/>
      <point x="24" y="1541" type="line"/>
      <point x="130" y="1556"/>
      <point x="246" y="1629"/>
      <point x="302" y="1761" type="curve"/>
      <point x="602" y="1761" type="line"/>
      <point x="602" y="0" type="line"/>
      <point x="242" y="0" type="line"/>
      <point x="242" y="1346" type="line"/>
      <point x="194" y="1289"/>
      <point x="98" y="1260"/>
    </contour>
  </outline>
</glyph>
<glyph name="two" format="1">
  <advance width="1031"/>
  <unicode hex="0032"/>
  <outline>
    <contour>
      <point x="950" y="1293" type="curve" smooth="yes"/>
      <point x="950" y="823"/>
      <point x="623" y="649"/>
      <point x="506" y="318" type="curve"/>
      <point x="939" y="318" type="line"/>
      <point x="939" y="0" type="line"/>
      <point x="100" y="0" type="line"/>
      <point x="100" y="84" type="line" smooth="yes"/>
      <point x="100" y="337"/>
      <point x="160" y="484"/>
      <point x="297" y="689" type="curve" smooth="yes"/>
      <point x="333" y="743"/>
      <point x="408" y="844"/>
      <point x="519" y="992" type="curve" smooth="yes"/>
      <point x="575" y="1067"/>
      <point x="603" y="1174"/>
      <point x="603" y="1296" type="curve" smooth="yes"/>
      <point x="603" y="1411"/>
      <point x="581" y="1466"/>
      <point x="525" y="1466" type="curve" smooth="yes"/>
      <point x="469" y="1466"/>
      <point x="432" y="1440"/>
      <point x="432" y="1280" type="curve" smooth="yes"/>
      <point x="432" y="1065" type="line"/>
      <point x="83" y="1065" type="line"/>
      <point x="83" y="1173" type="line" smooth="yes"/>
      <point x="83" y="1553"/>
      <point x="174" y="1781"/>
      <point x="519" y="1781" type="curve" smooth="yes"/>
      <point x="792" y="1781"/>
      <point x="950" y="1597"/>
    </contour>
  </outline>
</glyph>
<glyph name="three" format="1">
  <advance width="1059"/>
  <unicode hex="0033"/>
  <outline>
    <contour>
      <point x="975" y="530" type="curve" smooth="yes"/>
      <point x="975" y="178"/>
      <point x="857" y="-21"/>
      <point x="516" y="-21" type="curve" smooth="yes"/>
      <point x="205" y="-21"/>
      <point x="85" y="143"/>
      <point x="85" y="474" type="curve" smooth="yes"/>
      <point x="85" y="658" type="line"/>
      <point x="427" y="658" type="line"/>
      <point x="427" y="461" type="line" smooth="yes"/>
      <point x="427" y="368"/>
      <point x="435" y="294"/>
      <point x="522" y="294" type="curve" smooth="yes"/>
      <point x="609" y="294"/>
      <point x="615" y="391"/>
      <point x="615" y="528" type="curve" smooth="yes"/>
      <point x="615" y="705"/>
      <point x="613" y="807"/>
      <point x="495" y="807" type="curve" smooth="yes"/>
      <point x="435" y="807" type="line"/>
      <point x="435" y="1112" type="line"/>
      <point x="492" y="1112" type="line" smooth="yes"/>
      <point x="606" y="1112"/>
      <point x="618" y="1188"/>
      <point x="618" y="1311" type="curve" smooth="yes"/>
      <point x="618" y="1419"/>
      <point x="600" y="1466"/>
      <point x="536" y="1466" type="curve" smooth="yes"/>
      <point x="442" y="1466"/>
      <point x="441" y="1396"/>
      <point x="441" y="1312" type="curve" smooth="yes"/>
      <point x="441" y="1233" type="line"/>
      <point x="96" y="1233" type="line"/>
      <point x="96" y="1313" type="line" smooth="yes"/>
      <point x="96" y="1636"/>
      <point x="219" y="1781"/>
      <point x="530" y="1781" type="curve" smooth="yes"/>
      <point x="830" y="1781"/>
      <point x="971" y="1627"/>
      <point x="971" y="1313" type="curve" smooth="yes"/>
      <point x="971" y="1140"/>
      <point x="911" y="1007"/>
      <point x="785" y="962" type="curve"/>
      <point x="935" y="889"/>
      <point x="975" y="766"/>
    </contour>
  </outline>
</glyph>
<glyph name="four" format="1">
  <advance width="1093"/>
  <unicode hex="0034"/>
  <outline>
    <contour>
      <point x="939" y="1761" type="line"/>
      <point x="939" y="572" type="line"/>
      <point x="1018" y="572" type="line"/>
      <point x="1018" y="278" type="line"/>
      <point x="939" y="278" type="line"/>
      <point x="939" y="-1" type="line"/>
      <point x="579" y="-1" type="line"/>
      <point x="579" y="278" type="line"/>
      <point x="70" y="278" type="line"/>
      <point x="70" y="553" type="line"/>
      <point x="500" y="1761" type="line"/>
    </contour>
    <contour>
      <point x="579" y="572" type="line"/>
      <point x="579" y="1239" type="line"/>
      <point x="372" y="572" type="line"/>
    </contour>
  </outline>
</glyph>
<glyph name="five" format="1">
  <advance width="1063"/>
  <unicode hex="0035"/>
  <outline>
    <contour>
      <point x="94" y="107"/>
      <point x="258" y="-20"/>
      <point x="529" y="-20" type="curve" smooth="yes"/>
      <point x="940" y="-20"/>
      <point x="977" y="245"/>
      <point x="977" y="668" type="curve" smooth="yes"/>
      <point x="977" y="987"/>
      <point x="932" y="1265"/>
      <point x="664" y="1265" type="curve" smooth="yes"/>
      <point x="654" y="1265"/>
      <point x="643" y="1265"/>
      <point x="632" y="1264" type="curve" smooth="yes"/>
      <point x="552" y="1258"/>
      <point x="476" y="1216"/>
      <point x="450" y="1163" type="curve"/>
      <point x="450" y="1440" type="line"/>
      <point x="942" y="1440" type="line"/>
      <point x="942" y="1761" type="line"/>
      <point x="116" y="1761" type="line"/>
      <point x="116" y="825" type="line"/>
      <point x="439" y="825" type="line"/>
      <point x="439" y="922"/>
      <point x="464" y="970"/>
      <point x="531" y="970" type="curve" smooth="yes"/>
      <point x="614" y="970"/>
      <point x="617" y="889"/>
      <point x="617" y="803" type="curve" smooth="yes"/>
      <point x="617" y="466" type="line" smooth="yes"/>
      <point x="617" y="350"/>
      <point x="605" y="294"/>
      <point x="529" y="294" type="curve" smooth="yes"/>
      <point x="444" y="294"/>
      <point x="443" y="363"/>
      <point x="443" y="455" type="curve" smooth="yes"/>
      <point x="443" y="646" type="line"/>
      <point x="94" y="646" type="line"/>
      <point x="94" y="384" type="line" smooth="yes"/>
    </contour>
  </outline>
</glyph>
<glyph name="six" format="1">
  <advance width="1031"/>
  <unicode hex="0036"/>
  <outline>
    <contour>
      <point x="982" y="533" type="curve" smooth="yes"/>
      <point x="982" y="181"/>
      <point x="867" y="-22"/>
      <point x="523" y="-22" type="curve" smooth="yes"/>
      <point x="156" y="-22"/>
      <point x="48" y="166"/>
      <point x="48" y="543" type="curve" smooth="yes"/>
      <point x="48" y="904" type="line" smooth="yes"/>
      <point x="48" y="1180"/>
      <point x="56" y="1466"/>
      <point x="224" y="1574" type="curve" smooth="yes"/>
      <point x="297" y="1621"/>
      <point x="408" y="1655"/>
      <point x="533" y="1655" type="curve" smooth="yes"/>
      <point x="755" y="1655"/>
      <point x="984" y="1539"/>
      <point x="984" y="1310" type="curve" smooth="yes"/>
      <point x="984" y="1120" type="line"/>
      <point x="615" y="1120" type="line"/>
      <point x="615" y="1156" type="line" smooth="yes"/>
      <point x="615" y="1244"/>
      <point x="612" y="1346"/>
      <point x="527" y="1346" type="curve" smooth="yes"/>
      <point x="448" y="1346"/>
      <point x="422" y="1301"/>
      <point x="422" y="1220" type="curve" smooth="yes"/>
      <point x="422" y="922" type="line"/>
      <point x="455" y="984"/>
      <point x="523" y="1026"/>
      <point x="619" y="1026" type="curve" smooth="yes"/>
      <point x="910" y="1026"/>
      <point x="982" y="850"/>
    </contour>
    <contour>
      <point x="510" y="302" type="curve" smooth="yes"/>
      <point x="593" y="302"/>
      <point x="596" y="380"/>
      <point x="596" y="489" type="curve" smooth="yes"/>
      <point x="596" y="571" type="line" smooth="yes"/>
      <point x="596" y="667"/>
      <point x="569" y="715"/>
      <point x="515" y="715" type="curve" smooth="yes"/>
      <point x="453" y="715"/>
      <point x="422" y="673"/>
      <point x="422" y="590" type="curve" smooth="yes"/>
      <point x="422" y="432" type="line" smooth="yes"/>
      <point x="422" y="345"/>
      <point x="451" y="302"/>
    </contour>
  </outline>
</glyph>
<glyph name="seven" format="1">
  <advance width="1012"/>
  <unicode hex="0037"/>
  <outline>
    <contour>
      <point x="145" y="1" type="curve"/>
      <point x="543" y="1" type="line"/>
      <point x="566" y="368"/>
      <point x="653" y="676"/>
      <point x="758" y="946" type="curve" smooth="yes"/>
      <point x="829" y="1129"/>
      <point x="936" y="1292"/>
      <point x="958" y="1499" type="curve"/>
      <point x="958" y="1761" type="line"/>
      <point x="70" y="1761" type="line"/>
      <point x="70" y="1435" type="line"/>
      <point x="567" y="1435" type="line"/>
      <point x="497" y="1252" type="line" smooth="yes"/>
      <point x="356" y="883"/>
      <point x="177" y="492"/>
    </contour>
  </outline>
</glyph>
<glyph name="nine" format="1">
  <advance width="1033"/>
  <unicode hex="0039"/>
  <outline>
    <contour>
      <point x="933" y="-16"/>
      <point x="985" y="248"/>
      <point x="985" y="735" type="curve" smooth="yes"/>
      <point x="985" y="1211" type="line" smooth="yes"/>
      <point x="985" y="1588"/>
      <point x="877" y="1776"/>
      <point x="510" y="1776" type="curve" smooth="yes"/>
      <point x="166" y="1776"/>
      <point x="51" y="1543"/>
      <point x="51" y="1191" type="curve" smooth="yes"/>
      <point x="51" y="844"/>
      <point x="123" y="668"/>
      <point x="414" y="668" type="curve" smooth="yes"/>
      <point x="510" y="668"/>
      <point x="578" y="710"/>
      <point x="611" y="772" type="curve"/>
      <point x="611" y="419" type="line" smooth="yes"/>
      <point x="611" y="338"/>
      <point x="585" y="293"/>
      <point x="506" y="293" type="curve" smooth="yes"/>
      <point x="421" y="293"/>
      <point x="418" y="395"/>
      <point x="418" y="483" type="curve" smooth="yes"/>
      <point x="418" y="519" type="line"/>
      <point x="79" y="519" type="line"/>
      <point x="79" y="329" type="line" smooth="yes"/>
      <point x="79" y="100"/>
      <point x="278" y="-16"/>
      <point x="500" y="-16" type="curve" smooth="yes"/>
    </contour>
    <contour>
      <point x="464" y="979"/>
      <point x="437" y="1027"/>
      <point x="437" y="1123" type="curve" smooth="yes"/>
      <point x="437" y="1265" type="line" smooth="yes"/>
      <point x="437" y="1374"/>
      <point x="440" y="1452"/>
      <point x="523" y="1452" type="curve" smooth="yes"/>
      <point x="582" y="1452"/>
      <point x="611" y="1409"/>
      <point x="611" y="1322" type="curve" smooth="yes"/>
      <point x="611" y="1104" type="line" smooth="yes"/>
      <point x="611" y="1021"/>
      <point x="580" y="979"/>
      <point x="518" y="979" type="curve" smooth="yes"/>
    </contour>
  </outline>
</glyph>
<glyph name="colon" format="1">
  <advance width="555"/>
  <unicode hex="003A"/>
  <outline>
    <contour>
      <point x="443" y="568" type="line"/>
      <point x="443" y="270" type="line"/>
      <point x="112" y="270" type="line"/>
      <point x="112" y="568" type="line"/>
    </contour>
    <contour>
      <point x="443" y="1307" type="line"/>
      <point x="443" y="1009" type="line"/>
      <point x="112" y="1009" type="line"/>
      <point x="112" y="1307" type="line"/>
    </contour>
  </outline>
</glyph>
<glyph name="semicolon" format="1">
  <advance width="502"/>
  <unicode hex="003B"/>
  <outline>
    <contour>
      <point x="127" y="0" type="line"/>
      <point x="338" y="0" type="line"/>
      <point x="440" y="245" type="line"/>
      <point x="440" y="534" type="line"/>
      <point x="66" y="534" type="line"/>
      <point x="66" y="236" type="line"/>
      <point x="193" y="236" type="line"/>
    </contour>
    <contour>
      <point x="66" y="976" type="line"/>
      <point x="424" y="976" type="line"/>
      <point x="424" y="1274" type="line"/>
      <point x="66" y="1274" type="line"/>
    </contour>
  </outline>
</glyph>
<glyph name="less" format="1">
  <advance width="730"/>
  <unicode hex="003C"/>
  <outline>
    <contour>
      <point x="636" y="558" type="line"/>
      <point x="636" y="200" type="line"/>
      <point x="66" y="545" type="line"/>
      <point x="66" y="959" type="line"/>
      <point x="636" y="1300" type="line"/>
      <point x="636" y="941" type="line"/>
      <point x="294" y="749" type="line"/>
    </contour>
  </outline>
</glyph>
<glyph name="equal" format="1">
  <advance width="722"/>
  <unicode hex="003D"/>
  <outline>
    <contour>
      <point x="618" y="741" type="line"/>
      <point x="618" y="509" type="line"/>
      <point x="104" y="509" type="line"/>
      <point x="104" y="741" type="line"/>
    </contour>
    <contour>
      <point x="618" y="1116" type="line"/>
      <point x="618" y="892" type="line"/>
      <point x="104" y="892" type="line"/>
      <point x="104" y="1116" type="line"/>
    </contour>
  </outline>
</glyph>
<glyph name="greater" format="1">
  <advance width="658"/>
  <unicode hex="003E"/>
  <outline>
    <contour>
      <point x="53" y="1300" type="line"/>
      <point x="623" y="959" type="line"/>
      <point x="623" y="545" type="line"/>
      <point x="53" y="200" type="line"/>
      <point x="53" y="558" type="line"/>
      <point x="395" y="749" type="line"/>
      <point x="53" y="941" type="line"/>
    </contour>
  </outline>
</glyph>
<glyph name="question" format="1">
  <advance width="1044"/>
  <unicode hex="003F"/>
  <outline>
    <contour>
      <point x="437" y="1160" type="line"/>
      <point x="91" y="1160" type="line"/>
      <point x="91.0" y="1384.0" type="line" smooth="yes"/>
      <point x="91.0" y="1653.0"/>
      <point x="250.0" y="1781.0"/>
      <point x="521.0" y="1781.0" type="curve" smooth="yes"/>
      <point x="876.0" y="1781.0"/>
      <point x="964" y="1612"/>
      <point x="964" y="1259" type="curve" smooth="yes"/>
      <point x="964" y="913"/>
      <point x="929" y="729"/>
      <point x="598" y="633" type="curve"/>
      <point x="598" y="494" type="line"/>
      <point x="269" y="494" type="line"/>
      <point x="269" y="810" type="line"/>
      <point x="582" y="870"/>
      <point x="603" y="968"/>
      <point x="603" y="1310" type="curve" smooth="yes"/>
      <point x="603" y="1397"/>
      <point x="605" y="1466"/>
      <point x="525" y="1466" type="curve" smooth="yes"/>
      <point x="438" y="1466"/>
      <point x="437" y="1398"/>
      <point x="437" y="1306" type="curve" smooth="yes"/>
    </contour>
    <contour>
      <point x="615" y="299" type="line"/>
      <point x="615" y="1" type="line"/>
      <point x="261" y="1" type="line"/>
      <point x="261" y="299" type="line"/>
    </contour>
  </outline>
</glyph>
<glyph name="at" format="1">
  <advance width="1811"/>
  <unicode hex="0040"/>
  <outline>
    <contour>
      <point x="974" y="687" type="curve" smooth="yes"/>
      <point x="974" y="972" type="line"/>
      <point x="822" y="972"/>
      <point x="818" y="869"/>
      <point x="818" y="718" type="curve" smooth="yes"/>
      <point x="818" y="644"/>
      <point x="835" y="570"/>
      <point x="898" y="570" type="curve" smooth="yes"/>
      <point x="956" y="570"/>
      <point x="974" y="630"/>
    </contour>
    <contour>
      <point x="354" y="723" type="curve" smooth="yes"/>
      <point x="354" y="351"/>
      <point x="503" y="206"/>
      <point x="871" y="206" type="curve" smooth="yes"/>
      <point x="945" y="206"/>
      <point x="1037" y="212"/>
      <point x="1147" y="224" type="curve"/>
      <point x="1191" y="-37" type="line"/>
      <point x="1066" y="-55"/>
      <point x="958" y="-64"/>
      <point x="866" y="-64" type="curve" smooth="yes"/>
      <point x="316" y="-64"/>
      <point x="37" y="187"/>
      <point x="37" y="726" type="curve" smooth="yes"/>
      <point x="37" y="1377"/>
      <point x="358" y="1630"/>
      <point x="1008" y="1630" type="curve" smooth="yes"/>
      <point x="1492" y="1630"/>
      <point x="1777" y="1343"/>
      <point x="1777" y="867" type="curve" smooth="yes"/>
      <point x="1777" y="535"/>
      <point x="1665" y="268"/>
      <point x="1361" y="268" type="curve" smooth="yes"/>
      <point x="1157" y="268"/>
      <point x="1048" y="337"/>
      <point x="1000" y="494" type="curve"/>
      <point x="960" y="382"/>
      <point x="875" y="326"/>
      <point x="744" y="326" type="curve" smooth="yes"/>
      <point x="549" y="326"/>
      <point x="483" y="512"/>
      <point x="483" y="718" type="curve" smooth="yes"/>
      <point x="483" y="978"/>
      <point x="555" y="1209"/>
      <point x="782" y="1209" type="curve" smooth="yes"/>
      <point x="852" y="1209"/>
      <point x="923" y="1177"/>
      <point x="995" y="1114" type="curve"/>
      <point x="1035" y="1226" type="line"/>
      <point x="1296" y="1226" type="line"/>
      <point x="1296" y="621" type="line" smooth="yes"/>
      <point x="1296" y="563"/>
      <point x="1326" y="497"/>
      <point x="1377" y="497" type="curve" smooth="yes"/>
      <point x="1471" y="497"/>
      <point x="1491" y="763"/>
      <point x="1491" y="888" type="curve" smooth="yes"/>
      <point x="1491" y="1193"/>
      <point x="1322" y="1365"/>
      <point x="1011" y="1365" type="curve" smooth="yes"/>
      <point x="546" y="1365"/>
      <point x="354" y="1191"/>
    </contour>
  </outline>
</glyph>
<glyph name="A" format="1">
  <advance width="1103"/>
  <unicode hex="0041"/>
  <outline>
    <contour>
      <point x="68" y="0" type="line"/>
      <point x="274" y="1761" type="line"/>
      <point x="825" y="1761" type="line"/>
      <point x="1035" y="0" type="line"/>
      <point x="689" y="0" type="line"/>
      <point x="664" y="281" type="line"/>
      <point x="452" y="281" type="line"/>
      <point x="430" y="0" type="line"/>
    </contour>
    <contour>
      <point x="477" y="565" type="line"/>
      <point x="637" y="565" type="line"/>
      <point x="557" y="1481" type="line"/>
      <point x="550" y="1481" type="line"/>
    </contour>
  </outline>
</glyph>
<glyph name="B" format="1">
  <advance width="980"/>
  <unicode hex="0042"/>
  <outline>
    <contour>
      <point x="78" y="1760" type="line"/>
      <point x="78" y="0" type="line"/>
      <point x="555" y="0" type="line" smooth="yes"/>
      <point x="865" y="0"/>
      <point x="942" y="226"/>
      <point x="942" y="569" type="curve" smooth="yes"/>
      <point x="942" y="781"/>
      <point x="900" y="939"/>
      <point x="742" y="979" type="curve"/>
      <point x="863" y="1011"/>
      <point x="922" y="1116"/>
      <point x="922" y="1281" type="curve" smooth="yes"/>
      <point x="922" y="1358" type="line" smooth="yes"/>
      <point x="922" y="1645"/>
      <point x="811" y="1760"/>
      <point x="555" y="1760" type="curve" smooth="yes"/>
    </contour>
    <contour>
      <point x="570" y="822"/>
      <point x="594" y="760"/>
      <point x="594" y="660" type="curve" smooth="yes"/>
      <point x="594" y="440" type="line" smooth="yes"/>
      <point x="594" y="354"/>
      <point x="548" y="310"/>
      <point x="457" y="310" type="curve" smooth="yes"/>
      <point x="450" y="310"/>
      <point x="438" y="311"/>
      <point x="422" y="312" type="curve"/>
      <point x="422" y="822" type="line"/>
      <point x="487" y="822" type="line" smooth="yes"/>
    </contour>
    <contour>
      <point x="546" y="1488"/>
      <point x="571" y="1460"/>
      <point x="571" y="1403" type="curve" smooth="yes"/>
      <point x="571" y="1226" type="line" smooth="yes"/>
      <point x="571" y="1155"/>
      <point x="559" y="1097"/>
      <point x="494" y="1097" type="curve" smooth="yes"/>
      <point x="422" y="1097" type="line"/>
      <point x="422" y="1488" type="line"/>
      <point x="496" y="1488" type="line" smooth="yes"/>
    </contour>
    <contour>
      <point x="451" y="1760" type="move" name="top"/>
    </contour>
  </outline>
</glyph>
<glyph name="B" format="1">
  <advance width="1077"/>
  <unicode hex="0042"/>
  <outline>
    <contour>
      <point x="1004" y="564" type="curve" smooth="yes"/>
      <point x="1004" y="508" type="line" smooth="yes"/>
      <point x="1004" y="141"/>
      <point x="866" y="0"/>
      <point x="568" y="0" type="curve" smooth="yes"/>
      <point x="122" y="0" type="line"/>
      <point x="122" y="1761" type="line"/>
      <point x="590" y="1761" type="line" smooth="yes"/>
      <point x="846" y="1761"/>
      <point x="963" y="1646"/>
      <point x="963" y="1359" type="curve" smooth="yes"/>
      <point x="963" y="1281" type="line" smooth="yes"/>
      <point x="963" y="1116"/>
      <point x="913" y="1001"/>
      <point x="792" y="969" type="curve"/>
      <point x="950" y="929"/>
      <point x="1004" y="776"/>
    </contour>
    <contour>
      <point x="655" y="400" type="curve" smooth="yes"/>
      <point x="655" y="666" type="line" smooth="yes"/>
      <point x="655" y="766"/>
      <point x="631" y="818"/>
      <point x="548" y="818" type="curve"/>
      <point x="472" y="818" type="line"/>
      <point x="472" y="270" type="line"/>
      <point x="518" y="270" type="line" smooth="yes"/>
      <point x="609" y="270"/>
      <point x="655" y="314"/>
    </contour>
    <contour>
      <point x="472" y="1490" type="line"/>
      <point x="472" y="1083" type="line"/>
      <point x="544" y="1083" type="line" smooth="yes"/>
      <point x="609" y="1083"/>
      <point x="624" y="1143"/>
      <point x="624" y="1214" type="curve" smooth="yes"/>
      <point x="624" y="1405" type="line" smooth="yes"/>
      <point x="624" y="1462"/>
      <point x="596" y="1490"/>
      <point x="546" y="1490" type="curve" smooth="yes"/>
    </contour>
  </outline>
</glyph>
<glyph name="C" format="1">
  <advance width="971"/>
  <unicode hex="0043"/>
  <outline>
    <contour>
      <point x="191" y="1776"/>
      <point x="64" y="1589"/>
      <point x="64" y="1248" type="curve" smooth="yes"/>
      <point x="64" y="436" type="line" smooth="yes"/>
      <point x="64" y="151"/>
      <point x="233" y="-16"/>
      <point x="488" y="-16" type="curve" smooth="yes"/>
      <point x="768" y="-16"/>
      <point x="932" y="116"/>
      <point x="932" y="425" type="curve" smooth="yes"/>
      <point x="932" y="758" type="line"/>
      <point x="578" y="758" type="line"/>
      <point x="578" y="441" type="line" smooth="yes"/>
      <point x="578" y="362"/>
      <point x="556" y="308"/>
      <point x="496" y="308" type="curve" smooth="yes"/>
      <point x="442" y="308"/>
      <point x="413" y="344"/>
      <point x="413" y="441" type="curve" smooth="yes"/>
      <point x="413" y="1322" type="line" smooth="yes"/>
      <point x="413" y="1400"/>
      <point x="431" y="1452"/>
      <point x="496" y="1452" type="curve" smooth="yes"/>
      <point x="552" y="1452"/>
      <point x="578" y="1423"/>
      <point x="578" y="1318" type="curve" smooth="yes"/>
      <point x="578" y="1058" type="line"/>
      <point x="928" y="1058" type="line"/>
      <point x="928" y="1362" type="line" smooth="yes"/>
      <point x="928" y="1639"/>
      <point x="746" y="1776"/>
      <point x="496" y="1776" type="curve" smooth="yes"/>
    </contour>
    <contour>
      <point x="485" y="1760" type="move" name="top"/>
    </contour>
    <contour>
      <point x="489" y="0" type="move" name="bot"/>
    </contour>
  </outline>
</glyph>
<glyph name="C" format="1">
  <advance width="1076"/>
  <unicode hex="0043"/>
  <outline>
    <contour>
      <point x="544" y="294" type="curve" smooth="yes"/>
      <point x="604" y="294"/>
      <point x="631" y="341"/>
      <point x="631" y="420" type="curve" smooth="yes"/>
      <point x="631" y="758" type="line"/>
      <point x="987" y="758" type="line"/>
      <point x="987" y="425" type="line" smooth="yes"/>
      <point x="987" y="116"/>
      <point x="819" y="-21"/>
      <point x="539" y="-21" type="curve" smooth="yes"/>
      <point x="284" y="-21"/>
      <point x="105" y="151"/>
      <point x="105" y="436" type="curve" smooth="yes"/>
      <point x="105" y="1254" type="line" smooth="yes"/>
      <point x="105" y="1595"/>
      <point x="242" y="1781"/>
      <point x="547" y="1781" type="curve" smooth="yes"/>
      <point x="797" y="1781"/>
      <point x="979" y="1645"/>
      <point x="979" y="1368" type="curve" smooth="yes"/>
      <point x="979" y="1058" type="line"/>
      <point x="631" y="1058" type="line"/>
      <point x="631" y="1324" type="line" smooth="yes"/>
      <point x="631" y="1429"/>
      <point x="607" y="1466"/>
      <point x="551" y="1466" type="curve" smooth="yes"/>
      <point x="481" y="1466"/>
      <point x="465" y="1404"/>
      <point x="465" y="1326" type="curve" smooth="yes"/>
      <point x="465" y="414" type="line" smooth="yes"/>
      <point x="465" y="339"/>
      <point x="490" y="294"/>
    </contour>
  </outline>
</glyph>
<glyph name="D" format="1">
  <advance width="1115"/>
  <unicode hex="0044"/>
  <outline>
    <contour>
      <point x="1010" y="1347" type="curve" smooth="yes"/>
      <point x="1010" y="522" type="line" smooth="yes"/>
      <point x="1010" y="189"/>
      <point x="899" y="0"/>
      <point x="607" y="0" type="curve" smooth="yes"/>
      <point x="128" y="0" type="line"/>
      <point x="128" y="1761" type="line"/>
      <point x="619" y="1761" type="line" smooth="yes"/>
      <point x="872" y="1761"/>
      <point x="1010" y="1617"/>
    </contour>
    <contour>
      <point x="650" y="364" type="curve" smooth="yes"/>
      <point x="650" y="1323" type="line" smooth="yes"/>
      <point x="650" y="1440"/>
      <point x="627" y="1490"/>
      <point x="527" y="1490" type="curve" smooth="yes"/>
      <point x="488" y="1490" type="line"/>
      <point x="488" y="270" type="line"/>
      <point x="549" y="270" type="line" smooth="yes"/>
      <point x="616" y="270"/>
      <point x="650" y="301"/>
    </contour>
  </outline>
</glyph>
<glyph name="E" format="1">
  <advance width="843"/>
  <unicode hex="0045"/>
  <outline>
    <contour>
      <point x="78" y="0" type="line"/>
      <point x="805" y="0" type="line"/>
      <point x="805" y="343" type="line"/>
      <point x="436" y="343" type="line"/>
      <point x="436" y="746" type="line"/>
      <point x="768" y="746" type="line"/>
      <point x="768" y="1077" type="line"/>
      <point x="436" y="1077" type="line"/>
      <point x="436" y="1420" type="line"/>
      <point x="782" y="1420" type="line"/>
      <point x="782" y="1760" type="line"/>
      <point x="78" y="1760" type="line"/>
    </contour>
    <contour>
      <point x="444" y="1760" type="move" name="top"/>
    </contour>
    <contour>
      <point x="477" y="0" type="move" name="ogonek"/>
    </contour>
  </outline>
</glyph>
<glyph name="E" format="1">
  <advance width="928"/>
  <unicode hex="0045"/>
  <outline>
    <contour>
      <point x="857" y="319" type="line"/>
      <point x="857" y="0" type="line"/>
      <point x="128" y="0" type="line"/>
      <point x="128" y="1761" type="line"/>
      <point x="834" y="1761" type="line"/>
      <point x="834" y="1429" type="line"/>
      <point x="488" y="1429" type="line"/>
      <point x="488" y="1077" type="line"/>
      <point x="820" y="1077" type="line"/>
      <point x="820" y="746" type="line"/>
      <point x="488" y="746" type="line"/>
      <point x="488" y="319" type="line"/>
    </contour>
  </outline>
</glyph>
<glyph name="F" format="1">
  <advance width="817"/>
  <unicode hex="0046"/>
  <outline>
    <contour>
      <point x="78" y="1760" type="line"/>
      <point x="78" y="0" type="line"/>
      <point x="432" y="0" type="line"/>
      <point x="432" y="798" type="line"/>
      <point x="764" y="798" type="line"/>
      <point x="764" y="1137" type="line"/>
      <point x="432" y="1137" type="line"/>
      <point x="432" y="1417" type="line"/>
      <point x="782" y="1417" type="line"/>
      <point x="782" y="1760" type="line"/>
    </contour>
    <contour>
      <point x="452" y="1760" type="move" name="top"/>
    </contour>
  </outline>
</glyph>
<glyph name="F" format="1">
  <advance width="919"/>
  <unicode hex="0046"/>
  <outline>
    <contour>
      <point x="488" y="778" type="line"/>
      <point x="488" y="0" type="line"/>
      <point x="128" y="0" type="line"/>
      <point x="128" y="1761" type="line"/>
      <point x="838" y="1761" type="line"/>
      <point x="838" y="1423" type="line"/>
      <point x="488" y="1423" type="line"/>
      <point x="488" y="1110" type="line"/>
      <point x="806" y="1110" type="line"/>
      <point x="806" y="778" type="line"/>
    </contour>
  </outline>
</glyph>
<glyph name="G" format="1">
  <advance width="1108"/>
  <unicode hex="0047"/>
  <outline>
    <contour>
      <point x="564" y="294" type="curve" smooth="yes"/>
      <point x="645" y="294"/>
      <point x="676" y="341"/>
      <point x="676" y="505" type="curve" smooth="yes"/>
      <point x="676" y="741" type="line"/>
      <point x="566" y="741" type="line"/>
      <point x="566" y="1039" type="line"/>
      <point x="998" y="1039" type="line"/>
      <point x="998" y="0" type="line"/>
      <point x="861" y="0" type="line"/>
      <point x="801" y="198" type="line"/>
      <point x="755" y="34"/>
      <point x="633" y="-21"/>
      <point x="502" y="-21" type="curve" smooth="yes"/>
      <point x="248" y="-21"/>
      <point x="105" y="139"/>
      <point x="105" y="502" type="curve" smooth="yes"/>
      <point x="105" y="1296" type="line" smooth="yes"/>
      <point x="105" y="1621"/>
      <point x="278" y="1781"/>
      <point x="566" y="1781" type="curve" smooth="yes"/>
      <point x="899" y="1781"/>
      <point x="998" y="1625"/>
      <point x="998" y="1288" type="curve" smooth="yes"/>
      <point x="998" y="1181" type="line"/>
      <point x="672" y="1181" type="line"/>
      <point x="672" y="1295" type="line" smooth="yes"/>
      <point x="672" y="1434"/>
      <point x="641" y="1466"/>
      <point x="576" y="1466" type="curve" smooth="yes"/>
      <point x="496" y="1466"/>
      <point x="465" y="1416"/>
      <point x="465" y="1288" type="curve" smooth="yes"/>
      <point x="465" y="501" type="line" smooth="yes"/>
      <point x="465" y="355"/>
      <point x="482" y="294"/>
    </contour>
  </outline>
</glyph>
<glyph name="H" format="1">
  <advance width="1022"/>
  <unicode hex="0048"/>
  <outline>
    <contour>
      <point x="78" y="0" type="line"/>
      <point x="428" y="0" type="line"/>
      <point x="428" y="798" type="line"/>
      <point x="594" y="798" type="line"/>
      <point x="594" y="0" type="line"/>
      <point x="944" y="0" type="line"/>
      <point x="944" y="1760" type="line"/>
      <point x="594" y="1760" type="line"/>
      <point x="594" y="1131" type="line"/>
      <point x="428" y="1131" type="line"/>
      <point x="428" y="1760" type="line"/>
      <point x="78" y="1760" type="line"/>
    </contour>
    <contour>
      <point x="516" y="1760" type="move" name="top"/>
    </contour>
  </outline>
</glyph>
<glyph name="H" format="1">
  <advance width="1130"/>
  <unicode hex="0048"/>
  <outline>
    <contour>
      <point x="648" y="0" type="line"/>
      <point x="648" y="781" type="line"/>
      <point x="482" y="781" type="line"/>
      <point x="482" y="0" type="line"/>
      <point x="122" y="0" type="line"/>
      <point x="122" y="1761" type="line"/>
      <point x="482" y="1761" type="line"/>
      <point x="482" y="1083" type="line"/>
      <point x="648" y="1083" type="line"/>
      <point x="648" y="1761" type="line"/>
      <point x="1008" y="1761" type="line"/>
      <point x="1008" y="0" type="line"/>
    </contour>
  </outline>
</glyph>
<glyph name="I" format="1">
  <advance width="464"/>
  <unicode hex="0049"/>
  <outline>
    <contour>
      <point x="62" y="1760" type="line"/>
      <point x="62" y="0" type="line"/>
      <point x="402" y="0" type="line"/>
      <point x="402" y="1760" type="line"/>
    </contour>
    <contour>
      <point x="245" y="1760" type="move" name="top"/>
    </contour>
    <contour>
      <point x="226" y="0" type="move" name="ogonek"/>
    </contour>
  </outline>
</glyph>
<glyph name="J" format="1">
  <advance width="1049.0"/>
  <unicode hex="004A"/>
  <outline>
    <contour>
      <point x="560.0" y="1761" type="line"/>
      <point x="921.0" y="1761.0" type="line"/>
      <point x="921.0" y="440.0" type="line" smooth="yes"/>
      <point x="921.0" y="160.0"/>
      <point x="742.0" y="-21.0"/>
      <point x="491.0" y="-21.0" type="curve" smooth="yes"/>
      <point x="252.0" y="-21.0"/>
      <point x="61.0" y="124.0"/>
      <point x="61.0" y="389.0" type="curve" smooth="yes"/>
      <point x="61.0" y="830.0" type="line"/>
      <point x="403.0" y="830" type="line"/>
      <point x="403.0" y="402" type="line" smooth="yes"/>
      <point x="403.0" y="340"/>
      <point x="426.0" y="294"/>
      <point x="481.0" y="294" type="curve" smooth="yes"/>
      <point x="534.0" y="294"/>
      <point x="560.0" y="333"/>
      <point x="560.0" y="418" type="curve" smooth="yes"/>
    </contour>
  </outline>
</glyph>
<glyph name="K" format="1">
  <advance width="967"/>
  <unicode hex="004B"/>
  <outline>
    <contour>
      <point x="78" y="0" type="line"/>
      <point x="428" y="0" type="line"/>
      <point x="428" y="852" type="line"/>
      <point x="620" y="0" type="line"/>
      <point x="985" y="0" type="line"/>
      <point x="747" y="954" type="line"/>
      <point x="944" y="1760" type="line"/>
      <point x="590" y="1760" type="line"/>
      <point x="426" y="1055" type="line"/>
      <point x="426" y="1760" type="line"/>
      <point x="78" y="1760" type="line"/>
    </contour>
    <contour>
      <point x="511" y="1760" type="move" name="top"/>
    </contour>
    <contour>
      <point x="523" y="0" type="move" name="bot"/>
    </contour>
  </outline>
</glyph>
<glyph name="K" format="1">
  <advance width="1072"/>
  <unicode hex="004B"/>
  <outline>
    <contour>
      <point x="470" y="1761" type="line"/>
      <point x="470" y="995" type="line"/>
      <point x="645" y="1761" type="line"/>
      <point x="999" y="1761" type="line"/>
      <point x="791" y="894" type="line"/>
      <point x="1039" y="0" type="line"/>
      <point x="674" y="0" type="line"/>
      <point x="472" y="792" type="line"/>
      <point x="472" y="0" type="line"/>
      <point x="122" y="0" type="line"/>
      <point x="122" y="1761" type="line"/>
    </contour>
  </outline>
</glyph>
<glyph name="L" format="1">
  <advance width="814"/>
  <unicode hex="004C"/>
  <outline>
    <contour>
      <point x="78" y="1760" type="line"/>
      <point x="78" y="0" type="line"/>
      <point x="792" y="0" type="line"/>
      <point x="792" y="300" type="line"/>
      <point x="430" y="300" type="line"/>
      <point x="430" y="1760" type="line"/>
    </contour>
    <contour>
      <point x="501" y="1760" type="move" name="top"/>
    </contour>
    <contour>
      <point x="716" y="1011" type="move" name="mid"/>
    </contour>
    <contour>
      <point x="433" y="0" type="move" name="bot"/>
    </contour>
  </outline>
</glyph>
<glyph name="L" format="1">
  <advance width="870"/>
  <unicode hex="004C"/>
  <outline>
    <contour>
      <point x="842" y="294" type="line"/>
      <point x="842" y="0" type="line"/>
      <point x="128" y="0" type="line"/>
      <point x="128" y="1761" type="line"/>
      <point x="480" y="1761" type="line"/>
      <point x="480" y="294" type="line"/>
    </contour>
  </outline>
</glyph>
<glyph name="M" format="1">
  <advance width="1528"/>
  <unicode hex="004D"/>
  <outline>
    <contour>
      <point x="78" y="0" type="line"/>
      <point x="396" y="0" type="line"/>
      <point x="396" y="1268" type="line"/>
      <point x="610" y="0" type="line"/>
      <point x="926" y="0" type="line"/>
      <point x="1128" y="1268" type="line"/>
      <point x="1128" y="0" type="line"/>
      <point x="1450" y="0" type="line"/>
      <point x="1450" y="1760" type="line"/>
      <point x="909" y="1760" type="line"/>
      <point x="762" y="687" type="line"/>
      <point x="614" y="1760" type="line"/>
      <point x="78" y="1760" type="line"/>
    </contour>
    <contour>
      <point x="768" y="1760" type="move" name="top"/>
    </contour>
  </outline>
</glyph>
<glyph name="M" format="1">
  <advance width="1628"/>
  <unicode hex="004D"/>
  <outline>
    <contour>
      <point x="1178" y="0" type="line"/>
      <point x="1178" y="1268" type="line"/>
      <point x="976" y="0" type="line"/>
      <point x="660" y="0" type="line"/>
      <point x="446" y="1268" type="line"/>
      <point x="446" y="0" type="line"/>
      <point x="128" y="0" type="line"/>
      <point x="128" y="1761" type="line"/>
      <point x="664" y="1761" type="line"/>
      <point x="812" y="687" type="line"/>
      <point x="959" y="1761" type="line"/>
      <point x="1500" y="1761" type="line"/>
      <point x="1500" y="0" type="line"/>
    </contour>
  </outline>
</glyph>
<glyph name="N" format="1">
  <advance width="1144"/>
  <unicode hex="004E"/>
  <outline>
    <contour>
      <point x="692" y="947" type="line"/>
      <point x="692" y="1761" type="line"/>
      <point x="1022" y="1761" type="line"/>
      <point x="1022" y="0" type="line"/>
      <point x="714" y="0" type="line"/>
      <point x="452" y="860" type="line"/>
      <point x="452" y="0" type="line"/>
      <point x="122" y="0" type="line"/>
      <point x="122" y="1761" type="line"/>
      <point x="444" y="1761" type="line"/>
    </contour>
  </outline>
</glyph>
<glyph name="O" format="1">
  <advance width="1096"/>
  <unicode hex="004F"/>
  <outline>
    <contour>
      <point x="551.0" y="-21.0" type="curve" smooth="yes"/>
      <point x="263.0" y="-21.0"/>
      <point x="105" y="162"/>
      <point x="105" y="475" type="curve" smooth="yes"/>
      <point x="105" y="1316" type="line" smooth="yes"/>
      <point x="105" y="1619"/>
      <point x="269" y="1781"/>
      <point x="551" y="1781" type="curve" smooth="yes"/>
      <point x="833" y="1781"/>
      <point x="991" y="1619"/>
      <point x="991" y="1316" type="curve" smooth="yes"/>
      <point x="991" y="475" type="line" smooth="yes"/>
      <point x="991" y="162"/>
      <point x="839.0" y="-21.0"/>
    </contour>
    <contour>
      <point x="465" y="1323" type="curve" smooth="yes"/>
      <point x="465" y="480" type="line" smooth="yes"/>
      <point x="465" y="388"/>
      <point x="469" y="294"/>
      <point x="551" y="294" type="curve" smooth="yes"/>
      <point x="628" y="294"/>
      <point x="631" y="395"/>
      <point x="631" y="480" type="curve" smooth="yes"/>
      <point x="631" y="1322" type="line" smooth="yes"/>
      <point x="631" y="1389"/>
      <point x="621" y="1466"/>
      <point x="551" y="1466" type="curve" smooth="yes"/>
      <point x="483" y="1466"/>
      <point x="465" y="1398"/>
    </contour>
  </outline>
</glyph>
<glyph name="P" format="1">
  <advance width="967"/>
  <unicode hex="0050"/>
  <outline>
    <contour>
      <point x="78" y="0" type="line"/>
      <point x="424" y="0" type="line"/>
      <point x="424" y="697" type="line"/>
      <point x="567" y="697" type="line" smooth="yes"/>
      <point x="859" y="697"/>
      <point x="934" y="903"/>
      <point x="934" y="1224" type="curve" smooth="yes"/>
      <point x="934" y="1556"/>
      <point x="835" y="1760"/>
      <point x="543" y="1760" type="curve" smooth="yes"/>
      <point x="78" y="1760" type="line"/>
    </contour>
    <contour>
      <point x="424" y="1013" type="line"/>
      <point x="424" y="1439" type="line"/>
      <point x="463" y="1439" type="line" smooth="yes"/>
      <point x="569" y="1439"/>
      <point x="586" y="1363"/>
      <point x="586" y="1230" type="curve" smooth="yes"/>
      <point x="586" y="1087"/>
      <point x="574" y="1013"/>
      <point x="444" y="1013" type="curve" smooth="yes"/>
    </contour>
    <contour>
      <point x="483" y="1760" type="move" name="top"/>
    </contour>
  </outline>
</glyph>
<glyph name="P" format="1">
  <advance width="1064"/>
  <unicode hex="0050"/>
  <outline>
    <contour>
      <point x="1004" y="1224" type="curve" smooth="yes"/>
      <point x="1004" y="903"/>
      <point x="917.0" y="697.0"/>
      <point x="625.0" y="697.0" type="curve" smooth="yes"/>
      <point x="482.0" y="697.0" type="line"/>
      <point x="482.0" y="0.0" type="line"/>
      <point x="122" y="0" type="line"/>
      <point x="122" y="1761" type="line"/>
      <point x="601.0" y="1761.0" type="line" smooth="yes"/>
      <point x="893.0" y="1761.0"/>
      <point x="1004" y="1600"/>
    </contour>
    <contour>
      <point x="644" y="1230" type="curve" smooth="yes"/>
      <point x="644" y="1391"/>
      <point x="634" y="1490"/>
      <point x="521" y="1490" type="curve" smooth="yes"/>
      <point x="482" y="1490" type="line"/>
      <point x="482" y="993" type="line"/>
      <point x="522" y="993" type="line" smooth="yes"/>
      <point x="636" y="993"/>
      <point x="644" y="1061"/>
    </contour>
  </outline>
</glyph>
<glyph name="Q" format="1">
  <advance width="1011"/>
  <unicode hex="0051"/>
  <outline>
    <contour>
      <point x="207" y="1776"/>
      <point x="54" y="1616"/>
      <point x="54" y="1313" type="curve" smooth="yes"/>
      <point x="54" y="462" type="line" smooth="yes"/>
      <point x="54" y="150"/>
      <point x="202" y="-16"/>
      <point x="488" y="-16" type="curve" smooth="yes"/>
      <point x="501" y="-16"/>
      <point x="531" y="-10"/>
      <point x="576" y="-3" type="curve"/>
      <point x="856" y="-187" type="line"/>
      <point x="975" y="23" type="line"/>
      <point x="824" y="119" type="line"/>
      <point x="889" y="202"/>
      <point x="922" y="318"/>
      <point x="922" y="462" type="curve" smooth="yes"/>
      <point x="922" y="1313" type="line" smooth="yes"/>
      <point x="922" y="1616"/>
      <point x="769" y="1776"/>
      <point x="488" y="1776" type="curve" smooth="yes"/>
    </contour>
    <contour>
      <point x="554" y="1452"/>
      <point x="568" y="1382"/>
      <point x="568" y="1307" type="curve" smooth="yes"/>
      <point x="568" y="484" type="line" smooth="yes"/>
      <point x="568" y="407"/>
      <point x="563" y="308"/>
      <point x="488" y="308" type="curve" smooth="yes"/>
      <point x="406" y="308"/>
      <point x="402" y="407"/>
      <point x="402" y="477" type="curve" smooth="yes"/>
      <point x="402" y="1308" type="line" smooth="yes"/>
      <point x="402" y="1384"/>
      <point x="417" y="1452"/>
      <point x="486" y="1452" type="curve" smooth="yes"/>
    </contour>
  </outline>
</glyph>
<glyph name="Q" format="1">
  <advance width="1114"/>
  <unicode hex="0051"/>
  <outline>
    <contour>
      <point x="897" y="-237" type="line"/>
      <point x="1046" y="-28" type="line"/>
      <point x="882" y="113" type="line"/>
      <point x="954" y="198"/>
      <point x="991" y="321"/>
      <point x="991" y="475" type="curve" smooth="yes"/>
      <point x="991" y="1316" type="line" smooth="yes"/>
      <point x="991" y="1619"/>
      <point x="833" y="1781"/>
      <point x="551" y="1781" type="curve" smooth="yes"/>
      <point x="269" y="1781"/>
      <point x="105" y="1619"/>
      <point x="105" y="1316" type="curve" smooth="yes"/>
      <point x="105" y="475" type="line" smooth="yes"/>
      <point x="105" y="162"/>
      <point x="263" y="-21"/>
      <point x="551" y="-21" type="curve" smooth="yes"/>
      <point x="581" y="-21"/>
      <point x="609" y="-19"/>
      <point x="636" y="-15" type="curve"/>
    </contour>
    <contour>
      <point x="465" y="1398"/>
      <point x="483" y="1466"/>
      <point x="551" y="1466" type="curve" smooth="yes"/>
      <point x="621" y="1466"/>
      <point x="631" y="1389"/>
      <point x="631" y="1322" type="curve" smooth="yes"/>
      <point x="631" y="480" type="line" smooth="yes"/>
      <point x="631" y="395"/>
      <point x="628" y="294"/>
      <point x="551" y="294" type="curve" smooth="yes"/>
      <point x="469" y="294"/>
      <point x="465" y="388"/>
      <point x="465" y="480" type="curve" smooth="yes"/>
      <point x="465" y="1323" type="line" smooth="yes"/>
    </contour>
  </outline>
</glyph>
<glyph name="R" format="1">
  <advance width="976"/>
  <unicode hex="0052"/>
  <outline>
    <contour>
      <point x="78" y="0" type="line"/>
      <point x="434" y="0" type="line"/>
      <point x="434" y="803" type="line"/>
      <point x="527" y="803"/>
      <point x="567" y="792"/>
      <point x="567" y="689" type="curve" smooth="yes"/>
      <point x="567" y="0" type="line"/>
      <point x="911" y="0" type="line"/>
      <point x="915" y="666" type="line" smooth="yes"/>
      <point x="915" y="805"/>
      <point x="874" y="895"/>
      <point x="764" y="918" type="curve"/>
      <point x="898" y="962"/>
      <point x="938" y="1075"/>
      <point x="938" y="1267" type="curve" smooth="yes"/>
      <point x="938" y="1564"/>
      <point x="888" y="1760"/>
      <point x="618" y="1760" type="curve" smooth="yes"/>
      <point x="78" y="1760" type="line"/>
    </contour>
    <contour>
      <point x="436" y="1108" type="line"/>
      <point x="436" y="1434" type="line"/>
      <point x="518" y="1434" type="line" smooth="yes"/>
      <point x="577" y="1434"/>
      <point x="594" y="1404"/>
      <point x="594" y="1267" type="curve" smooth="yes"/>
      <point x="594" y="1160"/>
      <point x="568" y="1108"/>
      <point x="521" y="1108" type="curve" smooth="yes"/>
    </contour>
    <contour>
      <point x="479" y="1760" type="move" name="top"/>
    </contour>
    <contour>
      <point x="515" y="0" type="move" name="bot"/>
    </contour>
  </outline>
</glyph>
<glyph name="R" format="1">
  <advance width="1097"/>
  <unicode hex="0052"/>
  <outline>
    <contour>
      <point x="836" y="938" type="curve"/>
      <point x="946" y="915"/>
      <point x="1002" y="805"/>
      <point x="1002" y="666" type="curve" smooth="yes"/>
      <point x="1002" y="375"/>
      <point x="1001" y="151"/>
      <point x="998" y="0" type="curve"/>
      <point x="640" y="0" type="line"/>
      <point x="640" y="689" type="line" smooth="yes"/>
      <point x="640" y="792"/>
      <point x="573" y="803"/>
      <point x="480" y="803" type="curve"/>
      <point x="480" y="0" type="line"/>
      <point x="122" y="0" type="line"/>
      <point x="122" y="1761" type="line"/>
      <point x="674" y="1761" type="line" smooth="yes"/>
      <point x="944" y="1761"/>
      <point x="1000" y="1565"/>
      <point x="1000" y="1268" type="curve" smooth="yes"/>
      <point x="1000" y="1076"/>
      <point x="970" y="982"/>
    </contour>
    <contour>
      <point x="640" y="1305" type="curve" smooth="yes"/>
      <point x="640" y="1442"/>
      <point x="633" y="1490"/>
      <point x="515" y="1490" type="curve" smooth="yes"/>
      <point x="482" y="1490" type="line"/>
      <point x="482" y="1094" type="line"/>
      <point x="550" y="1094" type="line" smooth="yes"/>
      <point x="626" y="1094"/>
      <point x="640" y="1154"/>
    </contour>
  </outline>
</glyph>
<glyph name="S" format="1">
  <advance width="945"/>
  <unicode hex="0053"/>
  <outline>
    <contour>
      <point x="496" y="-16" type="curve" smooth="yes"/>
      <point x="798" y="-16"/>
      <point x="906" y="182"/>
      <point x="906" y="513" type="curve" smooth="yes"/>
      <point x="906" y="758"/>
      <point x="802" y="877"/>
      <point x="681" y="994" type="curve" smooth="yes"/>
      <point x="478" y="1189" type="line" smooth="yes"/>
      <point x="399" y="1264"/>
      <point x="379" y="1319"/>
      <point x="379" y="1368" type="curve" smooth="yes"/>
      <point x="379" y="1417"/>
      <point x="404" y="1452"/>
      <point x="460" y="1452" type="curve" smooth="yes"/>
      <point x="506" y="1452"/>
      <point x="534" y="1424"/>
      <point x="535" y="1376" type="curve" smooth="yes"/>
      <point x="537" y="1255" type="line"/>
      <point x="894" y="1255" type="line"/>
      <point x="894" y="1605"/>
      <point x="772" y="1776"/>
      <point x="449" y="1776" type="curve" smooth="yes"/>
      <point x="185" y="1776"/>
      <point x="42" y="1615"/>
      <point x="42" y="1315" type="curve" smooth="yes"/>
      <point x="42" y="1172"/>
      <point x="102" y="1049"/>
      <point x="219" y="933" type="curve" smooth="yes"/>
      <point x="371" y="783" type="line" smooth="yes"/>
      <point x="492" y="663"/>
      <point x="558" y="610"/>
      <point x="558" y="428" type="curve" smooth="yes"/>
      <point x="558" y="342"/>
      <point x="537" y="308"/>
      <point x="473" y="308" type="curve" smooth="yes"/>
      <point x="411" y="308"/>
      <point x="390" y="356"/>
      <point x="390" y="438" type="curve" smooth="yes"/>
      <point x="390" y="658" type="line"/>
      <point x="42" y="658" type="line"/>
      <point x="42" y="486" type="line" smooth="yes"/>
      <point x="42" y="136"/>
      <point x="174" y="-16"/>
    </contour>
    <contour>
      <point x="481" y="1760" type="move" name="top"/>
    </contour>
    <contour>
      <point x="476" y="0" type="move" name="bot"/>
    </contour>
  </outline>
</glyph>
<glyph name="S" format="1">
  <advance width="1003.0"/>
  <unicode hex="0053"/>
  <outline>
    <contour>
      <point x="945.0" y="513" type="curve" smooth="yes"/>
      <point x="945.0" y="182"/>
      <point x="850.0" y="-21"/>
      <point x="525.0" y="-21" type="curve" smooth="yes"/>
      <point x="203.0" y="-21"/>
      <point x="81.0" y="136.0"/>
      <point x="81.0" y="486.0" type="curve" smooth="yes"/>
      <point x="81.0" y="658" type="line"/>
      <point x="429.0" y="658" type="line"/>
      <point x="429.0" y="442" type="line" smooth="yes"/>
      <point x="429.0" y="329"/>
      <point x="457.0" y="294.0"/>
      <point x="513.0" y="294.0" type="curve" smooth="yes"/>
      <point x="569.0" y="294.0"/>
      <point x="597.0" y="340"/>
      <point x="597.0" y="406" type="curve" smooth="yes"/>
      <point x="597.0" y="588"/>
      <point x="547.0" y="649"/>
      <point x="410.0" y="783" type="curve" smooth="yes"/>
      <point x="261.0" y="928.0" type="line" smooth="yes"/>
      <point x="141.0" y="1041.0"/>
      <point x="81.0" y="1172.0"/>
      <point x="81.0" y="1315.0" type="curve" smooth="yes"/>
      <point x="81.0" y="1615.0"/>
      <point x="224.0" y="1781.0"/>
      <point x="488.0" y="1781.0" type="curve" smooth="yes"/>
      <point x="505.0" y="1781.0" type="line" smooth="yes"/>
      <point x="809.0" y="1781.0"/>
      <point x="933.0" y="1620.0"/>
      <point x="933.0" y="1230.0" type="curve"/>
      <point x="576.0" y="1230.0" type="line"/>
      <point x="576.0" y="1353" type="line" smooth="yes"/>
      <point x="576.0" y="1445"/>
      <point x="538.0" y="1466.0"/>
      <point x="502.0" y="1466.0" type="curve" smooth="yes"/>
      <point x="456.0" y="1466.0"/>
      <point x="418.0" y="1444"/>
      <point x="418.0" y="1375" type="curve" smooth="yes"/>
      <point x="418.0" y="1326"/>
      <point x="427.0" y="1275"/>
      <point x="517.0" y="1189" type="curve" smooth="yes"/>
      <point x="715.0" y="998" type="line" smooth="yes"/>
      <point x="836.0" y="881"/>
      <point x="945.0" y="782"/>
    </contour>
  </outline>
</glyph>
<glyph name="T" format="1">
  <advance width="811"/>
  <unicode hex="0054"/>
  <outline>
    <contour>
      <point x="236" y="0" type="line"/>
      <point x="588" y="0" type="line"/>
      <point x="588" y="1422" type="line"/>
      <point x="790" y="1422" type="line"/>
      <point x="790" y="1760" type="line"/>
      <point x="20" y="1760" type="line"/>
      <point x="20" y="1422" type="line"/>
      <point x="236" y="1422" type="line"/>
    </contour>
    <contour>
      <point x="420" y="1760" type="move" name="top"/>
    </contour>
    <contour>
      <point x="432" y="0" type="move" name="bot"/>
    </contour>
    <contour>
      <point x="420" y="883" type="move" name="mid"/>
    </contour>
  </outline>
</glyph>
<glyph name="T" format="1">
  <advance width="811"/>
  <unicode hex="0054"/>
  <outline>
    <contour>
      <point x="225" y="1439" type="line"/>
      <point x="20" y="1439" type="line"/>
      <point x="20" y="1761" type="line"/>
      <point x="790" y="1761" type="line"/>
      <point x="790" y="1439" type="line"/>
      <point x="585" y="1439" type="line"/>
      <point x="585" y="0" type="line"/>
      <point x="225" y="0" type="line"/>
    </contour>
  </outline>
</glyph>
<glyph name="U" format="1">
  <advance width="1114"/>
  <unicode hex="0055"/>
  <outline>
    <contour>
      <point x="558" y="-21" type="curve" smooth="yes"/>
      <point x="265" y="-21"/>
      <point x="112" y="146"/>
      <point x="112" y="466" type="curve" smooth="yes"/>
      <point x="112" y="1761" type="line"/>
      <point x="472" y="1761" type="line"/>
      <point x="472" y="471" type="line" smooth="yes"/>
      <point x="472" y="383"/>
      <point x="476" y="294"/>
      <point x="556" y="294" type="curve" smooth="yes"/>
      <point x="637" y="294"/>
      <point x="642" y="382"/>
      <point x="642" y="471" type="curve" smooth="yes"/>
      <point x="642" y="1761" type="line"/>
      <point x="1002" y="1761" type="line"/>
      <point x="1002" y="466" type="line" smooth="yes"/>
      <point x="1002" y="146"/>
      <point x="851" y="-21"/>
    </contour>
  </outline>
</glyph>
<glyph name="V" format="1">
  <advance width="961"/>
  <unicode hex="0056"/>
  <outline>
    <contour>
      <point x="602" y="1761" type="line"/>
      <point x="487" y="563" type="line"/>
      <point x="358" y="1761" type="line"/>
      <point x="23" y="1761" type="line"/>
      <point x="240" y="0" type="line"/>
      <point x="720" y="0" type="line"/>
      <point x="937" y="1761" type="line"/>
    </contour>
  </outline>
</glyph>
<glyph name="V" format="1">
  <advance width="1035"/>
  <unicode hex="0056"/>
  <outline>
    <contour>
      <point x="652" y="1761" type="line"/>
      <point x="985" y="1761" type="line"/>
      <point x="760" y="0" type="line"/>
      <point x="293" y="0" type="line"/>
      <point x="50" y="1761" type="line"/>
      <point x="392" y="1761" type="line"/>
      <point x="503" y="761" type="line"/>
      <point x="534" y="403" type="line"/>
      <point x="545" y="403" type="line"/>
      <point x="565" y="761" type="line"/>
    </contour>
  </outline>
</glyph>
<glyph name="W" format="1">
  <advance width="1432"/>
  <unicode hex="0057"/>
  <outline>
    <contour>
      <point x="54" y="1761" type="line"/>
      <point x="368" y="1761" type="line"/>
      <point x="465" y="649" type="line"/>
      <point x="574" y="1761" type="line"/>
      <point x="862" y="1761" type="line"/>
      <point x="966" y="649" type="line"/>
      <point x="1060" y="1761" type="line"/>
      <point x="1378" y="1761" type="line"/>
      <point x="1186" y="0" type="line"/>
      <point x="824" y="0" type="line"/>
      <point x="716" y="977" type="line"/>
      <point x="612" y="0" type="line"/>
      <point x="243" y="0" type="line"/>
    </contour>
  </outline>
</glyph>
<glyph name="X" format="1">
  <advance width="991"/>
  <unicode hex="0058"/>
  <outline>
    <contour>
      <point x="582" y="1761" type="line"/>
      <point x="501" y="1156" type="line"/>
      <point x="410" y="1761" type="line"/>
      <point x="66" y="1761" type="line"/>
      <point x="216" y="933" type="line"/>
      <point x="27" y="0" type="line"/>
      <point x="384" y="0" type="line"/>
      <point x="498" y="688" type="line"/>
      <point x="609" y="0" type="line"/>
      <point x="965" y="0" type="line"/>
      <point x="777" y="933" type="line"/>
      <point x="927" y="1761" type="line"/>
    </contour>
  </outline>
</glyph>
<glyph name="X" format="1">
  <advance width="983"/>
  <unicode hex="0058"/>
  <outline>
    <contour>
      <point x="364" y="0" type="line"/>
      <point x="506" y="516" type="line"/>
      <point x="675" y="0" type="line"/>
      <point x="982" y="0" type="line"/>
      <point x="672" y="918" type="line"/>
      <point x="943" y="1761" type="line"/>
      <point x="596" y="1761" type="line"/>
      <point x="475" y="1301" type="line"/>
      <point x="331" y="1761" type="line"/>
      <point x="36" y="1761" type="line"/>
      <point x="303" y="918" type="line"/>
      <point x="5" y="0" type="line"/>
    </contour>
  </outline>
</glyph>
<glyph name="Y" format="1">
  <advance width="914"/>
  <unicode hex="0059"/>
  <outline>
    <contour>
      <point x="555" y="1760" type="line"/>
      <point x="457" y="1164" type="line"/>
      <point x="359" y="1760" type="line"/>
      <point x="10" y="1760" type="line"/>
      <point x="291" y="579" type="line"/>
      <point x="291" y="0" type="line"/>
      <point x="623" y="0" type="line"/>
      <point x="623" y="579" type="line"/>
      <point x="903" y="1760" type="line"/>
    </contour>
    <contour>
      <point x="456" y="1760" type="move" name="top"/>
    </contour>
  </outline>
</glyph>
<glyph name="Y" format="1">
  <advance width="931"/>
  <unicode hex="0059"/>
  <outline>
    <contour>
      <point x="912" y="1761" type="line"/>
      <point x="632" y="649" type="line"/>
      <point x="632" y="0" type="line"/>
      <point x="300" y="0" type="line"/>
      <point x="300" y="649" type="line"/>
      <point x="19" y="1761" type="line"/>
      <point x="346" y="1761" type="line"/>
      <point x="412" y="1454" type="line"/>
      <point x="469" y="1156" type="line"/>
      <point x="474" y="1156" type="line"/>
      <point x="528" y="1454" type="line"/>
      <point x="589" y="1761" type="line"/>
    </contour>
  </outline>
</glyph>
<glyph name="Z" format="1">
  <advance width="840"/>
  <unicode hex="005A"/>
  <outline>
    <contour>
      <point x="71" y="1760" type="line"/>
      <point x="71" y="1436" type="line"/>
      <point x="435" y="1436" type="line"/>
      <point x="32" y="320" type="line"/>
      <point x="32" y="0" type="line"/>
      <point x="789" y="0" type="line"/>
      <point x="789" y="324" type="line"/>
      <point x="396" y="324" type="line"/>
      <point x="806" y="1452" type="line"/>
      <point x="806" y="1760" type="line"/>
    </contour>
    <contour>
      <point x="478" y="1760" type="move" name="top"/>
    </contour>
  </outline>
</glyph>
<glyph name="Z" format="1">
  <advance width="879"/>
  <unicode hex="005A"/>
  <outline>
    <contour>
      <point x="828" y="338" type="line"/>
      <point x="828" y="0" type="line"/>
      <point x="32" y="0" type="line"/>
      <point x="32" y="334" type="line"/>
      <point x="454" y="1421" type="line"/>
      <point x="71" y="1421" type="line"/>
      <point x="71" y="1761" type="line"/>
      <point x="845" y="1761" type="line"/>
      <point x="845" y="1433" type="line"/>
      <point x="415" y="338" type="line"/>
    </contour>
  </outline>
</glyph>
<glyph name="bracketleft" format="1">
  <advance width="764"/>
  <unicode hex="005B"/>
  <outline>
    <contour>
      <point x="676" y="1761" type="line"/>
      <point x="676" y="1480" type="line"/>
      <point x="478" y="1480" type="line"/>
      <point x="478" y="281" type="line"/>
      <point x="676" y="281" type="line"/>
      <point x="676" y="0" type="line"/>
      <point x="122" y="0" type="line"/>
      <point x="122" y="1761" type="line"/>
    </contour>
  </outline>
</glyph>
<glyph name="backslash" format="1">
  <advance width="830"/>
  <unicode hex="005C"/>
  <outline>
    <contour>
      <point x="391" y="1767" type="line"/>
      <point x="801" y="0" type="line"/>
      <point x="438" y="0" type="line"/>
      <point x="27" y="1767" type="line"/>
    </contour>
  </outline>
</glyph>
<glyph name="bracketright" format="1">
  <advance width="651"/>
  <unicode hex="005D"/>
  <outline>
    <contour>
      <point x="35" y="0" type="line"/>
      <point x="589" y="0" type="line"/>
      <point x="589" y="1761" type="line"/>
      <point x="35" y="1761" type="line"/>
      <point x="35" y="1480" type="line"/>
      <point x="237" y="1480" type="line"/>
      <point x="237" y="281" type="line"/>
      <point x="35" y="281" type="line"/>
    </contour>
  </outline>
</glyph>
<glyph name="asciicircum" format="1">
  <advance width="970"/>
  <unicode hex="005E"/>
  <outline>
    <contour>
      <point x="40" y="432" type="line"/>
      <point x="399" y="432" type="line"/>
      <point x="485" y="1027" type="line"/>
      <point x="571" y="432" type="line"/>
      <point x="930" y="432" type="line"/>
      <point x="689" y="1355" type="line"/>
      <point x="281" y="1355" type="line"/>
    </contour>
  </outline>
</glyph>
<glyph name="underscore" format="1">
  <advance width="748"/>
  <unicode hex="005F"/>
  <outline>
    <contour>
      <point x="48" y="0" type="line"/>
      <point x="48" y="-232" type="line"/>
      <point x="699" y="-232" type="line"/>
      <point x="699" y="0" type="line"/>
    </contour>
  </outline>
</glyph>
<glyph name="grave" format="1">
  <advance width="650"/>
  <unicode hex="0060"/>
  <outline>
    <contour>
      <point x="536" y="1553" type="line"/>
      <point x="536" y="1776" type="line"/>
      <point x="61" y="1994" type="line"/>
      <point x="61" y="1647" type="line"/>
    </contour>
    <contour>
      <point x="355" y="1500" type="move" name="_top"/>
    </contour>
  </outline>
</glyph>
<glyph name="a" format="1">
  <advance width="990"/>
  <unicode hex="0061"/>
  <outline>
    <contour>
      <point x="197" y="1516"/>
      <point x="63" y="1403"/>
      <point x="63" y="1105" type="curve" smooth="yes"/>
      <point x="63" y="1084"/>
      <point x="63" y="1067"/>
      <point x="64" y="1056" type="curve"/>
      <point x="412" y="1056" type="line"/>
      <point x="412" y="1146" type="line" smooth="yes"/>
      <point x="412" y="1201"/>
      <point x="433" y="1243"/>
      <point x="498" y="1239" type="curve" smooth="yes"/>
      <point x="543" y="1236"/>
      <point x="563" y="1213"/>
      <point x="563" y="1123" type="curve" smooth="yes"/>
      <point x="563" y="1102"/>
      <point x="563" y="998"/>
      <point x="563" y="972" type="curve" smooth="yes"/>
      <point x="563" y="969" type="line"/>
      <point x="227" y="854"/>
      <point x="41" y="839"/>
      <point x="41" y="430" type="curve" smooth="yes"/>
      <point x="41" y="174"/>
      <point x="95" y="-16"/>
      <point x="345" y="-16" type="curve" smooth="yes"/>
      <point x="448" y="-16"/>
      <point x="533" y="53"/>
      <point x="568" y="178" type="curve"/>
      <point x="568" y="0" type="line"/>
      <point x="924" y="0" type="line"/>
      <point x="924" y="1143" type="line" smooth="yes"/>
      <point x="924" y="1387"/>
      <point x="743" y="1516"/>
      <point x="503" y="1516" type="curve" smooth="yes"/>
    </contour>
    <contour>
      <point x="562" y="379" type="line" smooth="yes"/>
      <point x="562" y="322"/>
      <point x="544" y="262"/>
      <point x="486" y="262" type="curve" smooth="yes"/>
      <point x="433" y="262"/>
      <point x="406" y="306"/>
      <point x="406" y="395" type="curve" smooth="yes"/>
      <point x="406" y="588" type="line" smooth="yes"/>
      <point x="406" y="705"/>
      <point x="463" y="757"/>
      <point x="562" y="797" type="curve"/>
    </contour>
    <contour>
      <point x="503" y="1500" type="move" name="top"/>
    </contour>
    <contour>
      <point x="755" y="0" type="move" name="ogonek"/>
    </contour>
  </outline>
</glyph>
<glyph name="b" format="1">
  <advance width="1093"/>
  <unicode hex="0062"/>
  <outline>
    <contour>
      <point x="995" y="1114" type="curve" smooth="yes"/>
      <point x="995" y="391" type="line" smooth="yes"/>
      <point x="995" y="160"/>
      <point x="903" y="-18"/>
      <point x="679" y="-18" type="curve" smooth="yes"/>
      <point x="582" y="-18"/>
      <point x="512" y="41"/>
      <point x="468" y="160" type="curve"/>
      <point x="468" y="0" type="line"/>
      <point x="112" y="0" type="line"/>
      <point x="112" y="1769" type="line"/>
      <point x="468" y="1769" type="line"/>
      <point x="468" y="1427" type="line"/>
      <point x="528" y="1488"/>
      <point x="595" y="1519"/>
      <point x="668" y="1519" type="curve" smooth="yes"/>
      <point x="912" y="1519"/>
      <point x="995" y="1360"/>
    </contour>
    <contour>
      <point x="560" y="1239" type="curve" smooth="yes"/>
      <point x="488" y="1239"/>
      <point x="468" y="1175"/>
      <point x="468" y="1085" type="curve" smooth="yes"/>
      <point x="468" y="457" type="line" smooth="yes"/>
      <point x="468" y="349"/>
      <point x="479" y="263"/>
      <point x="562" y="263" type="curve" smooth="yes"/>
      <point x="641" y="263"/>
      <point x="639" y="347"/>
      <point x="639" y="457" type="curve" smooth="yes"/>
      <point x="639" y="1081" type="line" smooth="yes"/>
      <point x="639" y="1171"/>
      <point x="630" y="1239"/>
    </contour>
  </outline>
</glyph>
<glyph name="c" format="1">
  <advance width="1048"/>
  <unicode hex="0063"/>
  <outline>
    <contour>
      <point x="557" y="-18" type="curve" smooth="yes"/>
      <point x="221" y="-18"/>
      <point x="98" y="158"/>
      <point x="98" y="492" type="curve" smooth="yes"/>
      <point x="98" y="954" type="line" smooth="yes"/>
      <point x="98" y="1330"/>
      <point x="195" y="1518"/>
      <point x="552" y="1518" type="curve" smooth="yes"/>
      <point x="800" y="1518"/>
      <point x="978" y="1380"/>
      <point x="978" y="1135" type="curve" smooth="yes"/>
      <point x="978" y="879" type="line"/>
      <point x="622" y="879" type="line"/>
      <point x="622" y="1116" type="line" smooth="yes"/>
      <point x="622" y="1185"/>
      <point x="609" y="1239"/>
      <point x="542" y="1239" type="curve" smooth="yes"/>
      <point x="483" y="1239"/>
      <point x="454" y="1197"/>
      <point x="454" y="1114" type="curve" smooth="yes"/>
      <point x="454" y="387" type="line" smooth="yes"/>
      <point x="454" y="326"/>
      <point x="479" y="264"/>
      <point x="540" y="264" type="curve" smooth="yes"/>
      <point x="602" y="264"/>
      <point x="624" y="322"/>
      <point x="624" y="389" type="curve" smooth="yes"/>
      <point x="622" y="614" type="line"/>
      <point x="978" y="614" type="line"/>
      <point x="978" y="379" type="line" smooth="yes"/>
      <point x="978" y="130"/>
      <point x="807" y="-18"/>
    </contour>
  </outline>
</glyph>
<glyph name="d" format="1">
  <advance width="1094"/>
  <unicode hex="0064"/>
  <outline>
    <contour>
      <point x="403" y="-18" type="curve" smooth="yes"/>
      <point x="126" y="-18"/>
      <point x="98" y="201"/>
      <point x="98" y="477" type="curve" smooth="yes"/>
      <point x="98" y="1153" type="line" smooth="yes"/>
      <point x="98" y="1357"/>
      <point x="204" y="1518"/>
      <point x="409" y="1518" type="curve" smooth="yes"/>
      <point x="504" y="1518"/>
      <point x="577" y="1485"/>
      <point x="626" y="1419" type="curve"/>
      <point x="626" y="1767" type="line"/>
      <point x="982" y="1767" type="line"/>
      <point x="982" y="0" type="line"/>
      <point x="626" y="0" type="line"/>
      <point x="626" y="159" type="line"/>
      <point x="586" y="51"/>
      <point x="528" y="-18"/>
    </contour>
    <contour>
      <point x="542" y="1239" type="curve" smooth="yes"/>
      <point x="465" y="1239"/>
      <point x="454" y="1160"/>
      <point x="454" y="1083" type="curve" smooth="yes"/>
      <point x="454" y="452" type="line" smooth="yes"/>
      <point x="454" y="327"/>
      <point x="483" y="264"/>
      <point x="540" y="264" type="curve" smooth="yes"/>
      <point x="638" y="264"/>
      <point x="626" y="422"/>
      <point x="626" y="520" type="curve" smooth="yes"/>
      <point x="626" y="1083" type="line" smooth="yes"/>
      <point x="626" y="1153"/>
      <point x="612" y="1239"/>
    </contour>
  </outline>
</glyph>
<glyph name="e" format="1">
  <advance width="1000"/>
  <unicode hex="0065"/>
  <outline>
    <contour>
      <point x="492" y="-16" type="curve" smooth="yes"/>
      <point x="832" y="-16"/>
      <point x="942" y="157"/>
      <point x="942" y="494" type="curve" smooth="yes"/>
      <point x="942" y="579" type="line"/>
      <point x="586" y="579" type="line"/>
      <point x="586" y="435" type="line" smooth="yes"/>
      <point x="586" y="350"/>
      <point x="590" y="260"/>
      <point x="504" y="260" type="curve" smooth="yes"/>
      <point x="424" y="260"/>
      <point x="418" y="346"/>
      <point x="418" y="427" type="curve" smooth="yes"/>
      <point x="418" y="717" type="line"/>
      <point x="938" y="717" type="line"/>
      <point x="941" y="768"/>
      <point x="942" y="848"/>
      <point x="942" y="983" type="curve" smooth="yes"/>
      <point x="942" y="1092" type="line" smooth="yes"/>
      <point x="942" y="1376"/>
      <point x="798" y="1516"/>
      <point x="510" y="1516" type="curve" smooth="yes"/>
      <point x="230" y="1516"/>
      <point x="60" y="1371"/>
      <point x="60" y="1092" type="curve" smooth="yes"/>
      <point x="60" y="489" type="line" smooth="yes"/>
      <point x="60" y="170"/>
      <point x="171" y="-16"/>
    </contour>
    <contour>
      <point x="416" y="895" type="line"/>
      <point x="416" y="1087" type="line" smooth="yes"/>
      <point x="416" y="1199"/>
      <point x="449" y="1249"/>
      <point x="506" y="1249" type="curve" smooth="yes"/>
      <point x="559" y="1249"/>
      <point x="586" y="1195"/>
      <point x="586" y="1087" type="curve" smooth="yes"/>
      <point x="586" y="895" type="line"/>
    </contour>
    <contour>
      <point x="509" y="1500" type="move" name="top"/>
    </contour>
    <contour>
      <point x="527" y="0" type="move" name="ogonek"/>
    </contour>
  </outline>
</glyph>
<glyph name="f" format="1">
  <advance width="574"/>
  <unicode hex="0066"/>
  <outline>
    <contour>
      <point x="105" y="0" type="line"/>
      <point x="460" y="0" type="line"/>
      <point x="460" y="1157" type="line"/>
      <point x="531" y="1157" type="line"/>
      <point x="531" y="1434" type="line"/>
      <point x="453" y="1434" type="line"/>
      <point x="453" y="1453" type="line" smooth="yes"/>
      <point x="453" y="1500"/>
      <point x="456" y="1533"/>
      <point x="498" y="1533" type="curve" smooth="yes"/>
      <point x="505" y="1533"/>
      <point x="516" y="1531"/>
      <point x="531" y="1528" type="curve"/>
      <point x="531" y="1749" type="line"/>
      <point x="485" y="1768"/>
      <point x="424" y="1778"/>
      <point x="347" y="1778" type="curve" smooth="yes"/>
      <point x="186" y="1778"/>
      <point x="105" y="1697"/>
      <point x="105" y="1536" type="curve" smooth="yes"/>
      <point x="105" y="1434" type="line"/>
      <point x="44" y="1434" type="line"/>
      <point x="41" y="1283"/>
      <point x="40" y="1192"/>
      <point x="40" y="1161" type="curve"/>
      <point x="105" y="1161" type="line"/>
    </contour>
    <contour>
      <point x="321" y="1760" type="move" name="top"/>
    </contour>
  </outline>
</glyph>
<glyph name="g" format="1">
  <advance width="1032"/>
  <unicode hex="0067"/>
  <outline>
    <contour>
      <point x="476" y="-220" type="curve" smooth="yes"/>
      <point x="813" y="-220"/>
      <point x="964" y="-86"/>
      <point x="964" y="254" type="curve" smooth="yes"/>
      <point x="964" y="1500" type="line"/>
      <point x="599" y="1500" type="line"/>
      <point x="599" y="1331" type="line"/>
      <point x="574" y="1444"/>
      <point x="502" y="1516"/>
      <point x="370" y="1516" type="curve" smooth="yes"/>
      <point x="135" y="1516"/>
      <point x="71" y="1348"/>
      <point x="71" y="1106" type="curve" smooth="yes"/>
      <point x="71" y="543" type="line" smooth="yes"/>
      <point x="71" y="328"/>
      <point x="155" y="160"/>
      <point x="370" y="160" type="curve" smooth="yes"/>
      <point x="493" y="160"/>
      <point x="570" y="211"/>
      <point x="599" y="314" type="curve"/>
      <point x="599" y="231" type="line" smooth="yes"/>
      <point x="599" y="113"/>
      <point x="544" y="33"/>
      <point x="429" y="33" type="curve" smooth="yes"/>
      <point x="342" y="33"/>
      <point x="254" y="59"/>
      <point x="167" y="111" type="curve"/>
      <point x="46" y="-96" type="line"/>
      <point x="163" y="-194"/>
      <point x="268" y="-220"/>
    </contour>
    <contour>
      <point x="515" y="430" type="curve" smooth="yes"/>
      <point x="441" y="430"/>
      <point x="433" y="510"/>
      <point x="433" y="582" type="curve" smooth="yes"/>
      <point x="433" y="1116" type="line" smooth="yes"/>
      <point x="433" y="1183"/>
      <point x="442" y="1243"/>
      <point x="511" y="1243" type="curve" smooth="yes"/>
      <point x="566" y="1243"/>
      <point x="599" y="1171"/>
      <point x="599" y="1116" type="curve" smooth="yes"/>
      <point x="599" y="582" type="line" smooth="yes"/>
      <point x="599" y="481"/>
      <point x="571" y="430"/>
    </contour>
    <contour>
      <point x="509" y="1500" type="move" name="top"/>
    </contour>
  </outline>
</glyph>
<glyph name="h" format="1">
  <advance width="1106.0"/>
  <unicode hex="0068"/>
  <outline>
    <contour>
      <point x="563.0" y="1239.0" type="curve" smooth="yes"/>
      <point x="480.0" y="1239.0"/>
      <point x="473.0" y="1138.0"/>
      <point x="473.0" y="1055.0" type="curve" smooth="yes"/>
      <point x="473.0" y="0.0" type="line"/>
      <point x="117.0" y="0.0" type="line"/>
      <point x="117.0" y="1769" type="line"/>
      <point x="473.0" y="1769" type="line"/>
      <point x="473.0" y="1309.0" type="line"/>
      <point x="499.0" y="1423.0"/>
      <point x="570.0" y="1518.0"/>
      <point x="699.0" y="1518.0" type="curve" smooth="yes"/>
      <point x="907.0" y="1518.0"/>
      <point x="999.0" y="1379.0"/>
      <point x="999.0" y="1157.0" type="curve" smooth="yes"/>
      <point x="999.0" y="0.0" type="line"/>
      <point x="643.0" y="0.0" type="line"/>
      <point x="643.0" y="1120.0" type="line" smooth="yes"/>
      <point x="643.0" y="1179.0"/>
      <point x="621.0" y="1239.0"/>
    </contour>
  </outline>
</glyph>
<glyph name="i" format="1">
  <advance width="590"/>
  <unicode hex="0069"/>
  <outline>
    <contour>
      <point x="473" y="1500" type="line"/>
      <point x="473" y="0" type="line"/>
      <point x="117" y="0" type="line"/>
      <point x="117" y="1500" type="line"/>
    </contour>
    <contour>
      <point x="473" y="1800" type="line"/>
      <point x="473" y="1600" type="line"/>
      <point x="117" y="1600" type="line"/>
      <point x="117" y="1800" type="line"/>
    </contour>
  </outline>
</glyph>
<glyph name="j" format="1">
  <advance width="616.0"/>
  <unicode hex="006A"/>
  <outline>
    <contour>
      <point x="155.0" y="1500" type="line"/>
      <point x="511.0" y="1500" type="line"/>
      <point x="511.0" y="166" type="line" smooth="yes"/>
      <point x="511.0" y="-47"/>
      <point x="435.0" y="-176"/>
      <point x="229.0" y="-176" type="curve" smooth="yes"/>
      <point x="152.0" y="-176"/>
      <point x="72.0" y="-167"/>
      <point x="47.0" y="-150" type="curve"/>
      <point x="47.0" y="90" type="line"/>
      <point x="56.0" y="89"/>
      <point x="65.0" y="89"/>
      <point x="72.0" y="89" type="curve" smooth="yes"/>
      <point x="135.0" y="89"/>
      <point x="155.0" y="119"/>
      <point x="155.0" y="156" type="curve" smooth="yes"/>
    </contour>
    <contour>
      <point x="511.0" y="1800" type="line"/>
      <point x="511.0" y="1600" type="line"/>
      <point x="155.0" y="1600" type="line"/>
      <point x="155.0" y="1800" type="line"/>
    </contour>
  </outline>
</glyph>
<glyph name="k" format="1">
  <advance width="1005"/>
  <unicode hex="006B"/>
  <outline>
    <contour>
      <point x="72" y="0" type="line"/>
      <point x="426" y="0" type="line"/>
      <point x="426" y="707" type="line"/>
      <point x="649" y="0" type="line"/>
      <point x="1030" y="0" type="line"/>
      <point x="744" y="848" type="line"/>
      <point x="969" y="1500" type="line"/>
      <point x="598" y="1500" type="line"/>
      <point x="426" y="983" type="line"/>
      <point x="426" y="1769" type="line"/>
      <point x="72" y="1769" type="line"/>
    </contour>
    <contour>
      <point x="517" y="0" type="move" name="bot"/>
    </contour>
  </outline>
</glyph>
<glyph name="l" format="1">
  <advance width="594"/>
  <unicode hex="006C"/>
  <outline>
    <contour>
      <point x="115" y="1769" type="line"/>
      <point x="479" y="1769" type="line"/>
      <point x="479" y="0" type="line"/>
      <point x="115" y="0" type="line"/>
    </contour>
  </outline>
</glyph>
<glyph name="m" format="1">
  <advance width="1622"/>
  <unicode hex="006D"/>
  <outline>
    <contour>
      <point x="571" y="1243" type="curve" smooth="yes"/>
      <point x="490" y="1243"/>
      <point x="469" y="1140"/>
      <point x="469" y="1059" type="curve" smooth="yes"/>
      <point x="469" y="0" type="line"/>
      <point x="117" y="0" type="line"/>
      <point x="117" y="1500" type="line"/>
      <point x="469" y="1500" type="line"/>
      <point x="469" y="1326" type="line"/>
      <point x="501" y="1448"/>
      <point x="567" y="1519"/>
      <point x="717" y="1519" type="curve" smooth="yes"/>
      <point x="837" y="1519"/>
      <point x="925" y="1456"/>
      <point x="960" y="1365" type="curve"/>
      <point x="1015" y="1464"/>
      <point x="1073" y="1519"/>
      <point x="1211" y="1519" type="curve" smooth="yes"/>
      <point x="1460" y="1519"/>
      <point x="1515" y="1343"/>
      <point x="1515" y="1096" type="curve" smooth="yes"/>
      <point x="1515" y="0" type="line"/>
      <point x="1163" y="0" type="line"/>
      <point x="1163" y="1102" type="line" smooth="yes"/>
      <point x="1163" y="1199"/>
      <point x="1139" y="1247"/>
      <point x="1090" y="1247" type="curve" smooth="yes"/>
      <point x="1013" y="1247"/>
      <point x="993" y="1154"/>
      <point x="993" y="1077" type="curve" smooth="yes"/>
      <point x="993" y="0" type="line"/>
      <point x="641" y="0" type="line"/>
      <point x="641" y="1102" type="line" smooth="yes"/>
      <point x="641" y="1165"/>
      <point x="634" y="1243"/>
    </contour>
  </outline>
</glyph>
<glyph name="n" format="1">
  <advance width="1106"/>
  <unicode hex="006E"/>
  <outline>
    <contour>
      <point x="563" y="1239" type="curve" smooth="yes"/>
      <point x="480" y="1239"/>
      <point x="473" y="1138"/>
      <point x="473" y="1055" type="curve" smooth="yes"/>
      <point x="473" y="0" type="line"/>
      <point x="117" y="0" type="line"/>
      <point x="117" y="1500" type="line"/>
      <point x="473" y="1500" type="line"/>
      <point x="473" y="1309" type="line"/>
      <point x="499" y="1423"/>
      <point x="570" y="1518"/>
      <point x="699" y="1518" type="curve" smooth="yes"/>
      <point x="907" y="1518"/>
      <point x="999" y="1379"/>
      <point x="999" y="1157" type="curve" smooth="yes"/>
      <point x="999" y="0" type="line"/>
      <point x="643" y="0" type="line"/>
      <point x="643" y="1120" type="line" smooth="yes"/>
      <point x="643" y="1179"/>
      <point x="621" y="1239"/>
    </contour>
  </outline>
</glyph>
<glyph name="o" format="1">
  <advance width="1017"/>
  <unicode hex="006F"/>
  <outline>
    <contour>
      <point x="228" y="1516"/>
      <point x="60" y="1333"/>
      <point x="60" y="1051" type="curve" smooth="yes"/>
      <point x="60" y="449" type="line" smooth="yes"/>
      <point x="60" y="138"/>
      <point x="209" y="-16"/>
      <point x="508" y="-16" type="curve" smooth="yes"/>
      <point x="809" y="-16"/>
      <point x="957" y="143"/>
      <point x="957" y="449" type="curve" smooth="yes"/>
      <point x="957" y="1051" type="line" smooth="yes"/>
      <point x="957" y="1334"/>
      <point x="789" y="1516"/>
      <point x="508" y="1516" type="curve" smooth="yes"/>
    </contour>
    <contour>
      <point x="564" y="1239"/>
      <point x="592" y="1195"/>
      <point x="592" y="1108" type="curve" smooth="yes"/>
      <point x="592" y="375" type="line" smooth="yes"/>
      <point x="592" y="308"/>
      <point x="568" y="260"/>
      <point x="508" y="260" type="curve" smooth="yes"/>
      <point x="448" y="260"/>
      <point x="424" y="308"/>
      <point x="424" y="375" type="curve" smooth="yes"/>
      <point x="424" y="1108" type="line" smooth="yes"/>
      <point x="424" y="1195"/>
      <point x="452" y="1239"/>
      <point x="508" y="1239" type="curve" smooth="yes"/>
    </contour>
    <contour>
      <point x="509" y="1500" type="move" name="top"/>
    </contour>
  </outline>
</glyph>
<glyph name="p" format="1">
  <advance width="1091"/>
  <unicode hex="0070"/>
  <outline>
    <contour>
      <point x="993" y="1075" type="curve" smooth="yes"/>
      <point x="993" y="521" type="line" smooth="yes"/>
      <point x="993" y="225"/>
      <point x="971" y="-18"/>
      <point x="675" y="-18" type="curve" smooth="yes"/>
      <point x="585" y="-18"/>
      <point x="515" y="27"/>
      <point x="468" y="78" type="curve"/>
      <point x="468" y="-300" type="line"/>
      <point x="112" y="-300" type="line"/>
      <point x="112" y="1500" type="line"/>
      <point x="468" y="1500" type="line"/>
      <point x="468" y="1349" type="line"/>
      <point x="506" y="1449"/>
      <point x="603" y="1518"/>
      <point x="692" y="1518" type="curve" smooth="yes"/>
      <point x="940" y="1518"/>
      <point x="993" y="1323"/>
    </contour>
    <contour>
      <point x="637" y="438" type="curve" smooth="yes"/>
      <point x="637" y="1075" type="line" smooth="yes"/>
      <point x="637" y="1152"/>
      <point x="631" y="1235"/>
      <point x="554" y="1235" type="curve" smooth="yes"/>
      <point x="498" y="1235"/>
      <point x="468" y="1183"/>
      <point x="468" y="1079" type="curve" smooth="yes"/>
      <point x="468" y="422" type="line" smooth="yes"/>
      <point x="468" y="336"/>
      <point x="481" y="262"/>
      <point x="556" y="262" type="curve" smooth="yes"/>
      <point x="629" y="262"/>
      <point x="637" y="346"/>
    </contour>
  </outline>
</glyph>
<glyph name="q" format="1">
  <advance width="1091"/>
  <unicode hex="0071"/>
  <outline>
    <contour>
      <point x="98" y="482" type="curve" smooth="yes"/>
      <point x="98" y="1075" type="line" smooth="yes"/>
      <point x="98" y="1322"/>
      <point x="183" y="1518"/>
      <point x="408" y="1518" type="curve" smooth="yes"/>
      <point x="498" y="1518"/>
      <point x="585" y="1474"/>
      <point x="623" y="1389" type="curve"/>
      <point x="623" y="1500" type="line"/>
      <point x="979" y="1500" type="line"/>
      <point x="979" y="-300" type="line"/>
      <point x="623" y="-300" type="line"/>
      <point x="623" y="100" type="line"/>
      <point x="596" y="35"/>
      <point x="510" y="-18"/>
      <point x="418" y="-18" type="curve" smooth="yes"/>
      <point x="153" y="-18"/>
      <point x="98" y="191"/>
    </contour>
    <contour>
      <point x="534" y="262" type="curve"/>
      <point x="610" y="262"/>
      <point x="623" y="335"/>
      <point x="623" y="422" type="curve" smooth="yes"/>
      <point x="623" y="1079" type="line" smooth="yes"/>
      <point x="623" y="1183"/>
      <point x="592" y="1235"/>
      <point x="536" y="1235" type="curve"/>
      <point x="457" y="1235"/>
      <point x="455" y="1152"/>
      <point x="455" y="1075" type="curve" smooth="yes"/>
      <point x="455" y="438" type="line" smooth="yes"/>
      <point x="455" y="346"/>
      <point x="459" y="262"/>
    </contour>
  </outline>
</glyph>
<glyph name="r" format="1">
  <advance width="759.395061728"/>
  <unicode hex="0072"/>
  <outline>
    <contour>
      <point x="470" y="1147" type="curve" smooth="yes"/>
      <point x="470" y="0" type="line"/>
      <point x="112" y="0" type="line"/>
      <point x="112" y="1500" type="line"/>
      <point x="470" y="1500" type="line"/>
      <point x="470" y="1333" type="line"/>
      <point x="504" y="1449"/>
      <point x="592" y="1518"/>
      <point x="725" y="1518" type="curve" smooth="yes"/>
      <point x="730" y="1518"/>
      <point x="728" y="1215"/>
      <point x="728" y="1219" type="curve"/>
      <point x="640" y="1219"/>
      <point x="470" y="1187"/>
    </contour>
  </outline>
</glyph>
<glyph name="s" format="1">
  <advance width="941"/>
  <unicode hex="0073"/>
  <outline>
    <contour>
      <point x="475" y="-21" type="curve" smooth="yes"/>
      <point x="730" y="-21"/>
      <point x="890" y="94"/>
      <point x="890" y="396" type="curve" smooth="yes"/>
      <point x="890" y="399" type="line" smooth="yes"/>
      <point x="889" y="627"/>
      <point x="804" y="725"/>
      <point x="660" y="852" type="curve" smooth="yes"/>
      <point x="467" y="1023" type="line" smooth="yes"/>
      <point x="429" y="1057"/>
      <point x="409" y="1102"/>
      <point x="409" y="1155" type="curve" smooth="yes"/>
      <point x="409" y="1205"/>
      <point x="428" y="1239"/>
      <point x="484" y="1239" type="curve" smooth="yes"/>
      <point x="539" y="1239"/>
      <point x="562" y="1207"/>
      <point x="562" y="1128" type="curve" smooth="yes"/>
      <point x="562" y="1035" type="line"/>
      <point x="863" y="1035" type="line"/>
      <point x="863" y="1132" type="line" smooth="yes"/>
      <point x="863" y="1423"/>
      <point x="742" y="1518"/>
      <point x="481" y="1518" type="curve" smooth="yes"/>
      <point x="238" y="1518"/>
      <point x="84" y="1403"/>
      <point x="77" y="1157" type="curve" smooth="yes"/>
      <point x="77" y="1127" type="line" smooth="yes"/>
      <point x="77" y="943"/>
      <point x="127" y="855"/>
      <point x="248" y="752" type="curve" smooth="yes"/>
      <point x="426" y="598" type="line" smooth="yes"/>
      <point x="515" y="522"/>
      <point x="546" y="501"/>
      <point x="546" y="371" type="curve" smooth="yes"/>
      <point x="546" y="293"/>
      <point x="526" y="263"/>
      <point x="475" y="263" type="curve" smooth="yes"/>
      <point x="416" y="263"/>
      <point x="396" y="304"/>
      <point x="396" y="372" type="curve"/>
      <point x="396" y="505" type="line"/>
      <point x="73" y="505" type="line"/>
      <point x="73" y="432" type="line" smooth="yes"/>
      <point x="73" y="96"/>
      <point x="199" y="-21"/>
    </contour>
  </outline>
</glyph>
<glyph name="t" format="1">
  <advance width="625"/>
  <unicode hex="0074"/>
  <outline>
    <contour>
      <point x="380" y="-16" type="curve" smooth="yes"/>
      <point x="467" y="-16"/>
      <point x="567" y="6"/>
      <point x="583" y="11" type="curve"/>
      <point x="583" y="255" type="line"/>
      <point x="583" y="255"/>
      <point x="546" y="251"/>
      <point x="520" y="251" type="curve" smooth="yes"/>
      <point x="482" y="251"/>
      <point x="482" y="288"/>
      <point x="482" y="328" type="curve" smooth="yes"/>
      <point x="482" y="1169" type="line"/>
      <point x="583" y="1169" type="line"/>
      <point x="583" y="1442" type="line"/>
      <point x="482" y="1442" type="line"/>
      <point x="482" y="1760" type="line"/>
      <point x="134" y="1760" type="line"/>
      <point x="134" y="1442" type="line"/>
      <point x="33" y="1442" type="line"/>
      <point x="33" y="1169" type="line"/>
      <point x="134" y="1169" type="line"/>
      <point x="134" y="234" type="line" smooth="yes"/>
      <point x="134" y="65"/>
      <point x="187" y="-16"/>
    </contour>
    <contour>
      <point x="382" y="0" type="move" name="bot"/>
    </contour>
    <contour>
      <point x="315" y="776" type="move" name="mid"/>
    </contour>
    <contour>
      <point x="315" y="1760" type="move" name="top"/>
    </contour>
  </outline>
</glyph>
<glyph name="u" format="1">
  <advance width="1099"/>
  <unicode hex="0075"/>
  <outline>
    <contour>
      <point x="545" y="264" type="curve" smooth="yes"/>
      <point x="628" y="264"/>
      <point x="629" y="360"/>
      <point x="629" y="443" type="curve" smooth="yes"/>
      <point x="629" y="455" type="line"/>
      <point x="631" y="1500" type="line"/>
      <point x="987" y="1500" type="line"/>
      <point x="987" y="0" type="line"/>
      <point x="629" y="0" type="line"/>
      <point x="629" y="160" type="line"/>
      <point x="583" y="45"/>
      <point x="534" y="-18"/>
      <point x="398" y="-18" type="curve" smooth="yes"/>
      <point x="157" y="-18"/>
      <point x="105" y="143"/>
      <point x="105" y="383" type="curve" smooth="yes"/>
      <point x="105" y="1500" type="line"/>
      <point x="465" y="1500" type="line"/>
      <point x="465" y="455" type="line" smooth="yes"/>
      <point x="465" y="342"/>
      <point x="457" y="264"/>
    </contour>
  </outline>
</glyph>
<glyph name="v" format="1">
  <advance width="962"/>
  <unicode hex="0076"/>
  <outline>
    <contour>
      <point x="573" y="1500" type="line"/>
      <point x="931" y="1500" type="line"/>
      <point x="686" y="0" type="line"/>
      <point x="272" y="0" type="line"/>
      <point x="31" y="1500" type="line"/>
      <point x="390" y="1500" type="line"/>
      <point x="464" y="741" type="line"/>
      <point x="476" y="498" type="line"/>
      <point x="490" y="743" type="line"/>
    </contour>
  </outline>
</glyph>
<glyph name="w" format="1">
  <advance width="1426"/>
  <unicode hex="0077"/>
  <outline>
    <contour>
      <point x="229" y="0" type="line"/>
      <point x="626" y="0" type="line"/>
      <point x="720" y="851" type="line"/>
      <point x="828" y="0" type="line"/>
      <point x="1185" y="0" type="line"/>
      <point x="1378" y="1500" type="line"/>
      <point x="1040" y="1500" type="line"/>
      <point x="957" y="694" type="line"/>
      <point x="854" y="1500" type="line"/>
      <point x="541" y="1500" type="line"/>
      <point x="454" y="694" type="line"/>
      <point x="355" y="1500" type="line"/>
      <point x="48" y="1500" type="line"/>
    </contour>
    <contour>
      <point x="722" y="1500" type="move" name="top"/>
    </contour>
  </outline>
</glyph>
<glyph name="x" format="1">
  <advance width="932"/>
  <unicode hex="0078"/>
  <outline>
    <contour>
      <point x="328" y="0" type="line"/>
      <point x="467" y="428" type="line"/>
      <point x="603" y="0" type="line"/>
      <point x="934" y="0" type="line"/>
      <point x="658" y="779" type="line"/>
      <point x="912" y="1501" type="line"/>
      <point x="588" y="1501" type="line"/>
      <point x="469" y="1058" type="line"/>
      <point x="351" y="1501" type="line"/>
      <point x="33" y="1501" type="line"/>
      <point x="279" y="783" type="line"/>
      <point x="-2" y="0" type="line"/>
    </contour>
  </outline>
</glyph>
<glyph name="y" format="1">
  <advance width="944"/>
  <unicode hex="0079"/>
  <outline>
    <contour>
      <point x="577" y="1500" type="line"/>
      <point x="497" y="767" type="line" smooth="yes"/>
      <point x="459" y="395" type="line"/>
      <point x="425" y="767" type="line" smooth="yes"/>
      <point x="359" y="1500" type="line"/>
      <point x="16" y="1500" type="line"/>
      <point x="250" y="31" type="line" smooth="yes"/>
      <point x="255" y="-0"/>
      <point x="257" y="-23"/>
      <point x="215" y="-23" type="curve" smooth="yes"/>
      <point x="43" y="-23" type="line"/>
      <point x="43" y="-250" type="line"/>
      <point x="447" y="-250" type="line" smooth="yes"/>
      <point x="576" y="-250"/>
      <point x="624" y="-191"/>
      <point x="644" y="-78" type="curve" smooth="yes"/>
      <point x="922" y="1500" type="line"/>
    </contour>
    <contour>
      <point x="471" y="1500" type="move" name="top"/>
    </contour>
  </outline>
</glyph>
<glyph name="z" format="1">
  <advance width="838"/>
  <unicode hex="007A"/>
  <outline>
    <contour>
      <point x="761" y="301" type="line"/>
      <point x="761" y="0" type="line"/>
      <point x="81" y="0" type="line"/>
      <point x="81" y="272" type="line"/>
      <point x="430" y="1194" type="line"/>
      <point x="106" y="1194" type="line"/>
      <point x="106" y="1500" type="line"/>
      <point x="786" y="1500" type="line"/>
      <point x="786" y="1194" type="line"/>
      <point x="447" y="301" type="line"/>
    </contour>
  </outline>
</glyph>
<glyph name="braceleft" format="1">
  <advance width="798.0"/>
  <unicode hex="007B"/>
  <outline>
    <contour>
      <point x="85.0" y="696.0" type="curve"/>
      <point x="85.0" y="964.0" type="line"/>
      <point x="223.0" y="964"/>
      <point x="224.0" y="1035.0"/>
      <point x="224.0" y="1168.0" type="curve" smooth="yes"/>
      <point x="224.0" y="1443.0" type="line" smooth="yes"/>
      <point x="224.0" y="1705.0"/>
      <point x="355.0" y="1781.0"/>
      <point x="655.0" y="1781.0" type="curve" smooth="yes"/>
      <point x="715.0" y="1781.0" type="line"/>
      <point x="715.0" y="1534.0" type="line"/>
      <point x="595.0" y="1534.0"/>
      <point x="576.0" y="1501.0"/>
      <point x="576.0" y="1430.0" type="curve" smooth="yes"/>
      <point x="576.0" y="1184.0" type="line" smooth="yes"/>
      <point x="576.0" y="947.0"/>
      <point x="543.0" y="865"/>
      <point x="426.0" y="830" type="curve"/>
      <point x="543.0" y="795"/>
      <point x="576.0" y="713.0"/>
      <point x="576.0" y="476.0" type="curve" smooth="yes"/>
      <point x="576.0" y="230.0" type="line" smooth="yes"/>
      <point x="576.0" y="159.0"/>
      <point x="595.0" y="126.0"/>
      <point x="715.0" y="126.0" type="curve"/>
      <point x="715.0" y="-121.0" type="line"/>
      <point x="655.0" y="-121.0" type="line" smooth="yes"/>
      <point x="355.0" y="-121.0"/>
      <point x="224.0" y="-45.0"/>
      <point x="224.0" y="217.0" type="curve" smooth="yes"/>
      <point x="224.0" y="492.0" type="line" smooth="yes"/>
      <point x="224.0" y="625.0"/>
      <point x="223.0" y="696"/>
    </contour>
  </outline>
</glyph>
<glyph name="bar" format="1">
  <advance width="443"/>
  <unicode hex="007C"/>
  <outline>
    <contour>
      <point x="62" y="1683" type="line"/>
      <point x="381" y="1683" type="line"/>
      <point x="381" y="-84" type="line"/>
      <point x="62" y="-84" type="line"/>
    </contour>
  </outline>
</glyph>
<glyph name="braceright" format="1">
  <advance width="798"/>
  <unicode hex="007D"/>
  <outline>
    <contour>
      <point x="715" y="964" type="curve"/>
      <point x="715" y="696" type="line"/>
      <point x="577" y="696"/>
      <point x="576" y="625"/>
      <point x="576" y="492" type="curve" smooth="yes"/>
      <point x="576" y="217" type="line" smooth="yes"/>
      <point x="576" y="-45"/>
      <point x="445" y="-121"/>
      <point x="145" y="-121" type="curve" smooth="yes"/>
      <point x="85" y="-121" type="line"/>
      <point x="85" y="126" type="line"/>
      <point x="205" y="126"/>
      <point x="224" y="159"/>
      <point x="224" y="230" type="curve" smooth="yes"/>
      <point x="224" y="476" type="line" smooth="yes"/>
      <point x="224" y="713"/>
      <point x="257" y="795"/>
      <point x="374" y="830" type="curve"/>
      <point x="257" y="865"/>
      <point x="224" y="947"/>
      <point x="224" y="1184" type="curve" smooth="yes"/>
      <point x="224" y="1430" type="line" smooth="yes"/>
      <point x="224" y="1501"/>
      <point x="205" y="1534"/>
      <point x="85" y="1534" type="curve"/>
      <point x="85" y="1781" type="line"/>
      <point x="145" y="1781" type="line" smooth="yes"/>
      <point x="445" y="1781"/>
      <point x="576" y="1705"/>
      <point x="576" y="1443" type="curve" smooth="yes"/>
      <point x="576" y="1168" type="line" smooth="yes"/>
      <point x="576" y="1035"/>
      <point x="577" y="964"/>
    </contour>
  </outline>
</glyph>
<glyph name="asciitilde" format="1">
  <advance width="1117"/>
  <unicode hex="007E"/>
  <outline>
    <contour>
      <point x="490" y="900"/>
      <point x="655" y="776"/>
      <point x="769" y="776" type="curve" smooth="yes"/>
      <point x="908" y="776"/>
      <point x="995" y="862"/>
      <point x="1021" y="1077" type="curve" smooth="yes"/>
      <point x="1033" y="1175" type="line"/>
      <point x="813" y="1217" type="line"/>
      <point x="786" y="1127"/>
      <point x="765" y="1114"/>
      <point x="741" y="1110" type="curve" smooth="yes"/>
      <point x="735" y="1110" type="line" smooth="yes"/>
      <point x="671" y="1110"/>
      <point x="461" y="1222"/>
      <point x="357" y="1222" type="curve" smooth="yes"/>
      <point x="218" y="1222"/>
      <point x="134" y="1097"/>
      <point x="84" y="893" type="curve"/>
      <point x="289" y="807" type="line"/>
      <point x="312" y="860"/>
      <point x="326" y="888"/>
      <point x="354" y="896" type="curve" smooth="yes"/>
      <point x="363" y="899"/>
      <point x="373" y="900"/>
      <point x="384" y="900" type="curve" smooth="yes"/>
    </contour>
  </outline>
</glyph>
<glyph name="cent" format="1">
  <advance width="986"/>
  <unicode hex="00A2"/>
  <outline>
    <contour>
      <point x="422" y="1677" type="line"/>
      <point x="422" y="1514" type="line"/>
      <point x="130" y="1485"/>
      <point x="48" y="1294"/>
      <point x="48" y="954" type="curve" smooth="yes"/>
      <point x="48" y="492" type="line" smooth="yes"/>
      <point x="48" y="190"/>
      <point x="149" y="18"/>
      <point x="422" y="-13" type="curve"/>
      <point x="422" y="-163" type="line"/>
      <point x="595" y="-163" type="line"/>
      <point x="595" y="-12" type="line"/>
      <point x="795" y="16"/>
      <point x="941" y="155"/>
      <point x="941" y="379" type="curve" smooth="yes"/>
      <point x="941" y="614" type="line"/>
      <point x="576" y="614" type="line"/>
      <point x="578" y="389" type="line" smooth="yes"/>
      <point x="578" y="322"/>
      <point x="556" y="264"/>
      <point x="494" y="264" type="curve" smooth="yes"/>
      <point x="433" y="264"/>
      <point x="408" y="326"/>
      <point x="408" y="387" type="curve" smooth="yes"/>
      <point x="408" y="1114" type="line" smooth="yes"/>
      <point x="408" y="1197"/>
      <point x="437" y="1239"/>
      <point x="496" y="1239" type="curve" smooth="yes"/>
      <point x="563" y="1239"/>
      <point x="576" y="1185"/>
      <point x="576" y="1116" type="curve" smooth="yes"/>
      <point x="576" y="879" type="line"/>
      <point x="941" y="879" type="line"/>
      <point x="941" y="1135" type="line" smooth="yes"/>
      <point x="941" y="1354"/>
      <point x="792" y="1483"/>
      <point x="595" y="1511" type="curve"/>
      <point x="595" y="1677" type="line"/>
    </contour>
  </outline>
</glyph>
<glyph name="sterling" format="1">
  <advance width="1077"/>
  <unicode hex="00A3"/>
  <outline>
    <contour>
      <point x="990" y="318" type="line"/>
      <point x="506" y="318" type="line"/>
      <point x="588" y="358"/>
      <point x="675" y="446"/>
      <point x="675" y="604" type="curve" smooth="yes"/>
      <point x="675" y="646"/>
      <point x="669" y="693"/>
      <point x="655" y="745" type="curve"/>
      <point x="897" y="745" type="line"/>
      <point x="897" y="1002" type="line"/>
      <point x="589" y="1002" type="line"/>
      <point x="551" y="1166"/>
      <point x="505" y="1329"/>
      <point x="497" y="1378" type="curve" smooth="yes"/>
      <point x="495" y="1391"/>
      <point x="494" y="1403"/>
      <point x="494" y="1414" type="curve" smooth="yes"/>
      <point x="494" y="1479"/>
      <point x="532" y="1500"/>
      <point x="588" y="1500" type="curve" smooth="yes"/>
      <point x="641" y="1500"/>
      <point x="671" y="1466"/>
      <point x="671" y="1393" type="curve" smooth="yes"/>
      <point x="671" y="1246" type="line"/>
      <point x="999" y="1246" type="line"/>
      <point x="999" y="1381" type="line" smooth="yes"/>
      <point x="999" y="1649"/>
      <point x="882" y="1781"/>
      <point x="599" y="1781" type="curve" smooth="yes"/>
      <point x="329" y="1781"/>
      <point x="159" y="1647"/>
      <point x="159" y="1380" type="curve" smooth="yes"/>
      <point x="159" y="1307"/>
      <point x="204" y="1145"/>
      <point x="256" y="1002" type="curve"/>
      <point x="87" y="1002" type="line"/>
      <point x="87" y="745" type="line"/>
      <point x="308" y="745" type="line"/>
      <point x="316" y="704"/>
      <point x="320" y="665"/>
      <point x="320" y="630" type="curve" smooth="yes"/>
      <point x="320" y="476"/>
      <point x="245" y="368"/>
      <point x="82" y="297" type="curve"/>
      <point x="82" y="0" type="line"/>
      <point x="990" y="0" type="line"/>
    </contour>
  </outline>
</glyph>
<glyph name="currency" format="1">
  <advance width="1159"/>
  <unicode hex="00A4"/>
  <outline>
    <contour>
      <point x="579" y="545" type="curve" smooth="yes"/>
      <point x="496" y="545"/>
      <point x="424" y="563"/>
      <point x="363" y="598" type="curve"/>
      <point x="274" y="509" type="line"/>
      <point x="125" y="659" type="line"/>
      <point x="216" y="750" type="line"/>
      <point x="181" y="815"/>
      <point x="163" y="887"/>
      <point x="163" y="964" type="curve" smooth="yes"/>
      <point x="163" y="1042"/>
      <point x="180" y="1113"/>
      <point x="215" y="1178" type="curve"/>
      <point x="125" y="1268" type="line"/>
      <point x="274" y="1418" type="line"/>
      <point x="361" y="1330" type="line"/>
      <point x="426" y="1367"/>
      <point x="498" y="1385"/>
      <point x="579" y="1385" type="curve" smooth="yes"/>
      <point x="659" y="1385"/>
      <point x="732" y="1367"/>
      <point x="797" y="1331" type="curve"/>
      <point x="884" y="1418" type="line"/>
      <point x="1034" y="1269" type="line"/>
      <point x="944" y="1179" type="line"/>
      <point x="980" y="1114"/>
      <point x="998" y="1043"/>
      <point x="998" y="964" type="curve" smooth="yes"/>
      <point x="998" y="885"/>
      <point x="980" y="813"/>
      <point x="944" y="748" type="curve"/>
      <point x="1034" y="658" type="line"/>
      <point x="884" y="509" type="line"/>
      <point x="795" y="597" type="line"/>
      <point x="733" y="562"/>
      <point x="661" y="545"/>
    </contour>
    <contour>
      <point x="788" y="966" type="curve" smooth="yes"/>
      <point x="788" y="1092"/>
      <point x="708" y="1186"/>
      <point x="579" y="1186" type="curve" smooth="yes"/>
      <point x="453" y="1186"/>
      <point x="371" y="1087"/>
      <point x="371" y="964" type="curve" smooth="yes"/>
      <point x="371" y="840"/>
      <point x="452" y="741"/>
      <point x="579" y="741" type="curve" smooth="yes"/>
      <point x="706" y="741"/>
      <point x="788" y="842"/>
    </contour>
  </outline>
</glyph>
<glyph name="yen" format="1">
  <advance width="948"/>
  <unicode hex="00A5"/>
  <outline>
    <contour>
      <point x="309" y="408" type="line"/>
      <point x="309" y="475" type="line"/>
      <point x="171" y="475" type="line"/>
      <point x="171" y="699" type="line"/>
      <point x="263" y="699" type="line"/>
      <point x="28" y="1593" type="line"/>
      <point x="377" y="1593" type="line"/>
      <point x="475" y="1053" type="line"/>
      <point x="573" y="1593" type="line"/>
      <point x="921" y="1593" type="line"/>
      <point x="687" y="699" type="line"/>
      <point x="775" y="699" type="line"/>
      <point x="775" y="475" type="line"/>
      <point x="641" y="475" type="line"/>
      <point x="641" y="408" type="line"/>
      <point x="775" y="408" type="line"/>
      <point x="775" y="176" type="line"/>
      <point x="641" y="176" type="line"/>
      <point x="641" y="0" type="line"/>
      <point x="309" y="0" type="line"/>
      <point x="309" y="176" type="line"/>
      <point x="171" y="176" type="line"/>
      <point x="171" y="408" type="line"/>
    </contour>
  </outline>
</glyph>
<glyph name="brokenbar" format="1">
  <advance width="530"/>
  <unicode hex="00A6"/>
  <outline>
    <contour>
      <point x="122" y="724" type="line"/>
      <point x="408" y="724" type="line"/>
      <point x="408" y="-84" type="line"/>
      <point x="122" y="-84" type="line"/>
    </contour>
    <contour>
      <point x="122" y="1761" type="line"/>
      <point x="408" y="1761" type="line"/>
      <point x="408" y="931" type="line"/>
      <point x="122" y="931" type="line"/>
    </contour>
  </outline>
</glyph>
<glyph name="section" format="1">
  <advance width="950"/>
  <unicode hex="00A7"/>
  <outline>
    <contour>
      <point x="586" y="822"/>
      <point x="565" y="775"/>
      <point x="541" y="735" type="curve"/>
      <point x="467" y="764"/>
      <point x="381" y="822"/>
      <point x="381" y="902" type="curve" smooth="yes"/>
      <point x="381" y="935"/>
      <point x="396" y="974"/>
      <point x="426" y="1017" type="curve"/>
      <point x="546" y="967"/>
      <point x="586" y="906"/>
      <point x="586" y="856" type="curve" smooth="yes"/>
    </contour>
    <contour>
      <point x="566" y="240"/>
      <point x="543" y="220"/>
      <point x="497" y="220" type="curve" smooth="yes"/>
      <point x="445" y="220"/>
      <point x="406" y="244"/>
      <point x="406" y="391" type="curve"/>
      <point x="107" y="391" type="line"/>
      <point x="107" y="90"/>
      <point x="243" y="-20"/>
      <point x="488" y="-20" type="curve" smooth="yes"/>
      <point x="714" y="-20"/>
      <point x="855" y="91"/>
      <point x="855" y="293" type="curve" smooth="yes"/>
      <point x="855" y="307"/>
      <point x="854" y="321"/>
      <point x="853" y="336" type="curve" smooth="yes"/>
      <point x="843" y="440"/>
      <point x="783" y="521"/>
      <point x="700" y="598" type="curve"/>
      <point x="782" y="674"/>
      <point x="852" y="781"/>
      <point x="852" y="879" type="curve" smooth="yes"/>
      <point x="852" y="1044"/>
      <point x="742" y="1156"/>
      <point x="640" y="1221" type="curve" smooth="yes"/>
      <point x="594" y="1252"/>
      <point x="412" y="1368"/>
      <point x="412" y="1451" type="curve" smooth="yes"/>
      <point x="412" y="1509"/>
      <point x="435" y="1542"/>
      <point x="497" y="1542" type="curve" smooth="yes"/>
      <point x="560" y="1542"/>
      <point x="580" y="1502"/>
      <point x="580" y="1372" type="curve"/>
      <point x="853" y="1372" type="line"/>
      <point x="853" y="1667"/>
      <point x="725" y="1781"/>
      <point x="487" y="1781" type="curve" smooth="yes"/>
      <point x="292" y="1781"/>
      <point x="125" y="1662"/>
      <point x="125" y="1433" type="curve" smooth="yes"/>
      <point x="125" y="1328"/>
      <point x="166" y="1218"/>
      <point x="248" y="1143" type="curve"/>
      <point x="166" y="1067"/>
      <point x="125" y="960"/>
      <point x="125" y="862" type="curve" smooth="yes"/>
      <point x="125" y="697"/>
      <point x="238" y="612"/>
      <point x="336" y="542" type="curve" smooth="yes"/>
      <point x="454" y="457"/>
      <point x="566" y="388"/>
      <point x="566" y="303" type="curve" smooth="yes"/>
    </contour>
  </outline>
</glyph>
<glyph name="dieresis" format="1">
  <advance width="976"/>
  <unicode hex="00A8"/>
  <outline>
    <contour>
      <point x="550" y="1897" type="line"/>
      <point x="550" y="1599" type="line"/>
      <point x="908" y="1599" type="line"/>
      <point x="908" y="1897" type="line"/>
    </contour>
    <contour>
      <point x="66" y="1897" type="line"/>
      <point x="66" y="1599" type="line"/>
      <point x="424" y="1599" type="line"/>
      <point x="424" y="1897" type="line"/>
    </contour>
    <contour>
      <point x="494" y="1500" type="move" name="_top"/>
    </contour>
  </outline>
</glyph>
<glyph name="copyright" format="1">
  <advance width="1466"/>
  <unicode hex="00A9"/>
  <outline>
    <contour>
      <point x="733" y="1390" type="curve" smooth="yes"/>
      <point x="444" y="1390"/>
      <point x="235" y="1153"/>
      <point x="235" y="862" type="curve" smooth="yes"/>
      <point x="235" y="571"/>
      <point x="444" y="334"/>
      <point x="733" y="334" type="curve" smooth="yes"/>
      <point x="1022" y="334"/>
      <point x="1231" y="571"/>
      <point x="1231" y="862" type="curve" smooth="yes"/>
      <point x="1231" y="1153"/>
      <point x="1022" y="1390"/>
    </contour>
    <contour>
      <point x="733" y="205" type="curve" smooth="yes"/>
      <point x="360" y="205"/>
      <point x="76" y="489"/>
      <point x="76" y="862" type="curve" smooth="yes"/>
      <point x="76" y="1235"/>
      <point x="360" y="1519"/>
      <point x="733" y="1519" type="curve" smooth="yes"/>
      <point x="1106" y="1519"/>
      <point x="1390" y="1235"/>
      <point x="1390" y="862" type="curve" smooth="yes"/>
      <point x="1390" y="489"/>
      <point x="1106" y="205"/>
    </contour>
    <contour>
      <point x="687" y="1066" type="curve" smooth="yes"/>
      <point x="687" y="657" type="line" smooth="yes"/>
      <point x="687" y="627"/>
      <point x="703" y="592"/>
      <point x="731" y="592" type="curve" smooth="yes"/>
      <point x="762" y="592"/>
      <point x="777" y="614"/>
      <point x="777" y="657" type="curve" smooth="yes"/>
      <point x="777" y="806" type="line"/>
      <point x="970" y="806" type="line"/>
      <point x="970" y="643" type="line" smooth="yes"/>
      <point x="970" y="497"/>
      <point x="889" y="424"/>
      <point x="727" y="424" type="curve" smooth="yes"/>
      <point x="588" y="424"/>
      <point x="497" y="507"/>
      <point x="497" y="648" type="curve" smooth="yes"/>
      <point x="497" y="1049" type="line" smooth="yes"/>
      <point x="497" y="1217"/>
      <point x="566" y="1305"/>
      <point x="731" y="1305" type="curve" smooth="yes"/>
      <point x="865" y="1305"/>
      <point x="966" y="1239"/>
      <point x="966" y="1105" type="curve" smooth="yes"/>
      <point x="966" y="952" type="line"/>
      <point x="777" y="952" type="line"/>
      <point x="777" y="1053" type="line" smooth="yes"/>
      <point x="777" y="1104"/>
      <point x="762" y="1130"/>
      <point x="731" y="1130" type="curve" smooth="yes"/>
      <point x="694" y="1130"/>
      <point x="687" y="1104"/>
    </contour>
  </outline>
</glyph>
<glyph name="ordfeminine" format="1">
  <advance width="927"/>
  <unicode hex="00AA"/>
  <outline>
    <contour>
      <point x="356" y="389" type="curve" smooth="yes"/>
      <point x="158" y="389"/>
      <point x="114" y="541"/>
      <point x="114" y="744" type="curve" smooth="yes"/>
      <point x="114" y="1068"/>
      <point x="263" y="1090"/>
      <point x="529" y="1181" type="curve"/>
      <point x="529" y="1183" type="line" smooth="yes"/>
      <point x="529" y="1259"/>
      <point x="544" y="1386"/>
      <point x="468" y="1386" type="curve" smooth="yes"/>
      <point x="429" y="1386"/>
      <point x="409" y="1364"/>
      <point x="409" y="1321" type="curve" smooth="yes"/>
      <point x="409" y="1241" type="line"/>
      <point x="133" y="1241" type="line"/>
      <point x="132" y="1250"/>
      <point x="132" y="1263"/>
      <point x="132" y="1280" type="curve" smooth="yes"/>
      <point x="132" y="1516"/>
      <point x="239" y="1607"/>
      <point x="482" y="1607" type="curve" smooth="yes"/>
      <point x="489" y="1607" type="line" smooth="yes"/>
      <point x="676" y="1607"/>
      <point x="815" y="1501"/>
      <point x="815" y="1310" type="curve" smooth="yes"/>
      <point x="815" y="403" type="line"/>
      <point x="533" y="403" type="line"/>
      <point x="533" y="527" type="line"/>
      <point x="516" y="461"/>
      <point x="438" y="389"/>
    </contour>
    <contour>
      <point x="528" y="704" type="curve" smooth="yes"/>
      <point x="528" y="1017" type="line"/>
      <point x="449" y="986"/>
      <point x="404" y="948"/>
      <point x="404" y="855" type="curve" smooth="yes"/>
      <point x="404" y="716" type="line" smooth="yes"/>
      <point x="404" y="646"/>
      <point x="425" y="611"/>
      <point x="468" y="611" type="curve" smooth="yes"/>
      <point x="514" y="611"/>
      <point x="528" y="659"/>
    </contour>
  </outline>
</glyph>
<glyph name="guillemotleft" format="1">
  <advance width="1184"/>
  <unicode hex="00AB"/>
  <outline>
    <contour>
      <point x="1126" y="618" type="line"/>
      <point x="1126" y="260" type="line"/>
      <point x="616" y="545" type="line"/>
      <point x="616" y="959" type="line"/>
      <point x="1126" y="1230" type="line"/>
      <point x="1126" y="871" type="line"/>
      <point x="814" y="749" type="line"/>
    </contour>
    <contour>
      <point x="548" y="618" type="line"/>
      <point x="548" y="260" type="line"/>
      <point x="38" y="545" type="line"/>
      <point x="38" y="959" type="line"/>
      <point x="548" y="1230" type="line"/>
      <point x="548" y="871" type="line"/>
      <point x="236" y="749" type="line"/>
    </contour>
  </outline>
</glyph>
<glyph name="logicalnot" format="1">
  <advance width="827"/>
  <unicode hex="00AC"/>
  <outline>
    <contour>
      <point x="37" y="979" type="line"/>
      <point x="37" y="801" type="line"/>
      <point x="455" y="801" type="line"/>
      <point x="455" y="439" type="line"/>
      <point x="766" y="439" type="line"/>
      <point x="766" y="979" type="line"/>
    </contour>
  </outline>
</glyph>
<glyph name="registered" format="1">
  <advance width="1502"/>
  <unicode hex="00AE"/>
  <outline>
    <contour>
      <point x="751" y="205" type="curve" smooth="yes"/>
      <point x="378" y="205"/>
      <point x="94" y="489"/>
      <point x="94" y="862" type="curve" smooth="yes"/>
      <point x="94" y="1235"/>
      <point x="378" y="1519"/>
      <point x="751" y="1519" type="curve" smooth="yes"/>
      <point x="1124" y="1519"/>
      <point x="1408" y="1235"/>
      <point x="1408" y="862" type="curve" smooth="yes"/>
      <point x="1408" y="489"/>
      <point x="1124" y="205"/>
    </contour>
    <contour>
      <point x="751" y="1390" type="curve" smooth="yes"/>
      <point x="462" y="1390"/>
      <point x="253" y="1153"/>
      <point x="253" y="862" type="curve" smooth="yes"/>
      <point x="253" y="571"/>
      <point x="462" y="334"/>
      <point x="751" y="334" type="curve" smooth="yes"/>
      <point x="1040" y="334"/>
      <point x="1249" y="571"/>
      <point x="1249" y="862" type="curve" smooth="yes"/>
      <point x="1249" y="1153"/>
      <point x="1040" y="1390"/>
    </contour>
    <contour>
      <point x="989" y="1043" type="curve" smooth="yes"/>
      <point x="989" y="951"/>
      <point x="968" y="896"/>
      <point x="896" y="873" type="curve"/>
      <point x="949" y="863"/>
      <point x="975" y="822"/>
      <point x="975" y="751" type="curve" smooth="yes"/>
      <point x="975" y="430" type="line"/>
      <point x="791" y="430" type="line"/>
      <point x="791" y="762" type="line" smooth="yes"/>
      <point x="791" y="812"/>
      <point x="769" y="818"/>
      <point x="719" y="818" type="curve"/>
      <point x="719" y="430" type="line"/>
      <point x="529" y="430" type="line"/>
      <point x="529" y="1282" type="line"/>
      <point x="818" y="1282" type="line" smooth="yes"/>
      <point x="963" y="1282"/>
      <point x="989" y="1187"/>
    </contour>
    <contour>
      <point x="720" y="1124" type="curve"/>
      <point x="720" y="965" type="line"/>
      <point x="768" y="965" type="line" smooth="yes"/>
      <point x="793" y="965"/>
      <point x="805" y="991"/>
      <point x="805" y="1043" type="curve" smooth="yes"/>
      <point x="805" y="1114"/>
      <point x="790" y="1124"/>
    </contour>
  </outline>
</glyph>
<glyph name="macron" format="1">
  <advance width="1707"/>
  <unicode hex="00AF"/>
  <outline>
    <contour>
      <point x="525" y="1619" type="line"/>
      <point x="1175" y="1619" type="line"/>
      <point x="1175" y="1772" type="line"/>
      <point x="525" y="1772" type="line"/>
    </contour>
    <contour>
      <point x="853" y="1710" type="move" name="_mid"/>
    </contour>
    <contour>
      <point x="854" y="1500" type="move" name="_top"/>
    </contour>
  </outline>
</glyph>
<glyph name="degree" format="1">
  <advance width="915"/>
  <unicode hex="00B0"/>
  <outline>
    <contour>
      <point x="458" y="1426" type="curve" smooth="yes"/>
      <point x="369" y="1426"/>
      <point x="316" y="1356"/>
      <point x="316" y="1269" type="curve" smooth="yes"/>
      <point x="316" y="1182"/>
      <point x="369" y="1112"/>
      <point x="458" y="1112" type="curve" smooth="yes"/>
      <point x="547" y="1112"/>
      <point x="600" y="1182"/>
      <point x="600" y="1269" type="curve" smooth="yes"/>
      <point x="600" y="1356"/>
      <point x="547" y="1426"/>
    </contour>
    <contour>
      <point x="457" y="931" type="curve" smooth="yes"/>
      <point x="243" y="931"/>
      <point x="104" y="1057"/>
      <point x="104" y="1269" type="curve" smooth="yes"/>
      <point x="104" y="1480"/>
      <point x="243" y="1607"/>
      <point x="457" y="1607" type="curve" smooth="yes"/>
      <point x="671" y="1607"/>
      <point x="811" y="1480"/>
      <point x="811" y="1269" type="curve" smooth="yes"/>
      <point x="811" y="1058"/>
      <point x="671" y="931"/>
    </contour>
  </outline>
</glyph>
<glyph name="plusminus" format="1">
  <advance width="734"/>
  <unicode hex="00B1"/>
  <outline>
    <contour>
      <point x="254" y="414" type="line"/>
      <point x="254" y="622" type="line"/>
      <point x="46" y="622" type="line"/>
      <point x="46" y="854" type="line"/>
      <point x="254" y="854" type="line"/>
      <point x="254" y="1062" type="line"/>
      <point x="486" y="1062" type="line"/>
      <point x="486" y="854" type="line"/>
      <point x="694" y="854" type="line"/>
      <point x="694" y="622" type="line"/>
      <point x="486" y="622" type="line"/>
      <point x="486" y="414" type="line"/>
    </contour>
    <contour>
      <point x="603" y="231" type="line"/>
      <point x="603" y="-1" type="line"/>
      <point x="87" y="-1" type="line"/>
      <point x="87" y="231" type="line"/>
    </contour>
  </outline>
</glyph>
<glyph name="twosuperior" format="1">
  <advance width="618"/>
  <unicode hex="00B2"/>
  <outline>
    <contour>
      <point x="99" y="1606"/>
      <point x="45" y="1496"/>
      <point x="45" y="1278" type="curve" smooth="yes"/>
      <point x="47" y="1218" type="line"/>
      <point x="257" y="1218" type="line"/>
      <point x="257" y="1337" type="line" smooth="yes"/>
      <point x="257" y="1395"/>
      <point x="274" y="1424"/>
      <point x="308" y="1424" type="curve" smooth="yes"/>
      <point x="343" y="1424"/>
      <point x="361" y="1396"/>
      <point x="361" y="1341" type="curve" smooth="yes"/>
      <point x="361" y="1272"/>
      <point x="344" y="1218"/>
      <point x="310" y="1178" type="curve" smooth="yes"/>
      <point x="175" y="1015"/>
      <point x="47" y="890"/>
      <point x="47" y="678" type="curve" smooth="yes"/>
      <point x="47" y="631" type="line"/>
      <point x="566" y="631" type="line"/>
      <point x="566" y="814" type="line"/>
      <point x="293" y="814" type="line"/>
      <point x="383" y="987"/>
      <point x="573" y="1085"/>
      <point x="573" y="1344" type="curve" smooth="yes"/>
      <point x="573" y="1511"/>
      <point x="475" y="1606"/>
      <point x="310" y="1606" type="curve" smooth="yes"/>
    </contour>
  </outline>
</glyph>
<glyph name="uni00B2" format="1">
  <advance width="808"/>
  <unicode hex="00B2"/>
  <outline>
    <contour>
      <point x="707" y="1485" type="curve" smooth="yes"/>
      <point x="707" y="1192"/>
      <point x="497" y="1081"/>
      <point x="397" y="885" type="curve"/>
      <point x="700" y="885" type="line"/>
      <point x="700" y="678" type="line"/>
      <point x="124" y="678" type="line"/>
      <point x="124" y="731" type="line" smooth="yes"/>
      <point x="124" y="971"/>
      <point x="266" y="1112"/>
      <point x="416" y="1297" type="curve" smooth="yes"/>
      <point x="453" y="1342"/>
      <point x="472" y="1403"/>
      <point x="472" y="1481" type="curve" smooth="yes"/>
      <point x="472" y="1543"/>
      <point x="452" y="1575"/>
      <point x="414" y="1575" type="curve" smooth="yes"/>
      <point x="376" y="1575"/>
      <point x="357" y="1542"/>
      <point x="357" y="1477" type="curve" smooth="yes"/>
      <point x="357" y="1342" type="line"/>
      <point x="124" y="1342" type="line"/>
      <point x="122" y="1410" type="line" smooth="yes"/>
      <point x="122" y="1657"/>
      <point x="182" y="1781"/>
      <point x="416" y="1781" type="curve" smooth="yes"/>
      <point x="599" y="1781"/>
      <point x="707" y="1674"/>
    </contour>
  </outline>
</glyph>
<glyph name="threesuperior" format="1">
  <advance width="610"/>
  <unicode hex="00B3"/>
  <outline>
    <contour>
      <point x="130" y="1606"/>
      <point x="48" y="1532"/>
      <point x="47" y="1351" type="curve" smooth="yes"/>
      <point x="48" y="1317" type="line"/>
      <point x="252" y="1317" type="line"/>
      <point x="255" y="1373"/>
      <point x="244" y="1430"/>
      <point x="305" y="1430" type="curve" smooth="yes"/>
      <point x="337" y="1430"/>
      <point x="353" y="1403"/>
      <point x="353" y="1349" type="curve" smooth="yes"/>
      <point x="353" y="1279"/>
      <point x="317" y="1254"/>
      <point x="248" y="1254" type="curve"/>
      <point x="248" y="1081" type="line"/>
      <point x="253" y="1082"/>
      <point x="259" y="1082"/>
      <point x="268" y="1082" type="curve" smooth="yes"/>
      <point x="344" y="1082"/>
      <point x="352" y="1011"/>
      <point x="352" y="935" type="curve" smooth="yes"/>
      <point x="352" y="865"/>
      <point x="352" y="813"/>
      <point x="301" y="813" type="curve" smooth="yes"/>
      <point x="253" y="813"/>
      <point x="244" y="851"/>
      <point x="244" y="903" type="curve" smooth="yes"/>
      <point x="244" y="1004" type="line"/>
      <point x="42" y="1004" type="line"/>
      <point x="42" y="904" type="line" smooth="yes"/>
      <point x="42" y="725"/>
      <point x="117" y="635"/>
      <point x="291" y="635" type="curve" smooth="yes"/>
      <point x="483" y="635"/>
      <point x="559" y="743"/>
      <point x="559" y="935" type="curve" smooth="yes"/>
      <point x="559" y="1066"/>
      <point x="548" y="1132"/>
      <point x="464" y="1170" type="curve"/>
      <point x="534" y="1194"/>
      <point x="556" y="1258"/>
      <point x="556" y="1351" type="curve" smooth="yes"/>
      <point x="556" y="1521"/>
      <point x="472" y="1606"/>
      <point x="304" y="1606" type="curve" smooth="yes"/>
    </contour>
  </outline>
</glyph>
<glyph name="uni00B3" format="1">
  <advance width="837"/>
  <unicode hex="00B3"/>
  <outline>
    <contour>
      <point x="765" y="999" type="curve" smooth="yes"/>
      <point x="765" y="775"/>
      <point x="665" y="649"/>
      <point x="413" y="649" type="curve" smooth="yes"/>
      <point x="185" y="649"/>
      <point x="99" y="754"/>
      <point x="99" y="963" type="curve" smooth="yes"/>
      <point x="99" y="1079" type="line"/>
      <point x="352" y="1079" type="line"/>
      <point x="352" y="962" type="line" smooth="yes"/>
      <point x="352" y="901"/>
      <point x="364" y="857"/>
      <point x="427" y="857" type="curve" smooth="yes"/>
      <point x="493" y="857"/>
      <point x="493" y="917"/>
      <point x="493" y="999" type="curve" smooth="yes"/>
      <point x="493" y="1087"/>
      <point x="483" y="1170"/>
      <point x="383" y="1170" type="curve" smooth="yes"/>
      <point x="357" y="1170" type="line"/>
      <point x="357" y="1351" type="line"/>
      <point x="464" y="1351"/>
      <point x="495" y="1400"/>
      <point x="495" y="1481" type="curve" smooth="yes"/>
      <point x="495" y="1544"/>
      <point x="474" y="1576"/>
      <point x="432" y="1576" type="curve" smooth="yes"/>
      <point x="352" y="1576"/>
      <point x="366" y="1509"/>
      <point x="362" y="1444" type="curve"/>
      <point x="107" y="1444" type="line"/>
      <point x="106" y="1484" type="line" smooth="yes"/>
      <point x="107" y="1695"/>
      <point x="202" y="1781"/>
      <point x="431" y="1781" type="curve" smooth="yes"/>
      <point x="651" y="1781"/>
      <point x="761" y="1682"/>
      <point x="761" y="1484" type="curve" smooth="yes"/>
      <point x="761" y="1375"/>
      <point x="732" y="1301"/>
      <point x="640" y="1273" type="curve"/>
      <point x="750" y="1228"/>
      <point x="765" y="1152"/>
    </contour>
  </outline>
</glyph>
<glyph name="acute" format="1">
  <advance width="650"/>
  <unicode hex="00B4"/>
  <outline>
    <contour>
      <point x="91" y="1776" type="line"/>
      <point x="91" y="1553" type="line"/>
      <point x="566" y="1647" type="line"/>
      <point x="566" y="1994" type="line"/>
    </contour>
    <contour>
      <point x="332" y="1500" type="move" name="_top"/>
    </contour>
  </outline>
</glyph>
<glyph name="uni00B5" format="1">
  <advance width="1006"/>
  <unicode hex="00B5"/>
  <outline>
    <contour>
      <point x="62" y="-186" type="line"/>
      <point x="422" y="-186" type="line"/>
      <point x="422" y="-11" type="line"/>
      <point x="509" y="6"/>
      <point x="552" y="72"/>
      <point x="586" y="160" type="curve"/>
      <point x="586" y="0" type="line"/>
      <point x="944" y="0" type="line"/>
      <point x="944" y="1500" type="line"/>
      <point x="588" y="1500" type="line"/>
      <point x="586" y="455" type="line"/>
      <point x="586" y="443" type="line" smooth="yes"/>
      <point x="586" y="360"/>
      <point x="585" y="264"/>
      <point x="502" y="264" type="curve" smooth="yes"/>
      <point x="414" y="264"/>
      <point x="422" y="342"/>
      <point x="422" y="455" type="curve" smooth="yes"/>
      <point x="422" y="1500" type="line"/>
      <point x="62" y="1500" type="line"/>
    </contour>
  </outline>
</glyph>
<glyph name="uni00B5" format="1">
  <advance width="1099"/>
  <unicode hex="00B5"/>
  <outline>
    <contour>
      <point x="545" y="264" type="curve" smooth="yes"/>
      <point x="628" y="264"/>
      <point x="629" y="360"/>
      <point x="629" y="443" type="curve" smooth="yes"/>
      <point x="629" y="455" type="line"/>
      <point x="631" y="1500" type="line"/>
      <point x="987" y="1500" type="line"/>
      <point x="987" y="0" type="line"/>
      <point x="629" y="0" type="line"/>
      <point x="629" y="160" type="line"/>
      <point x="595" y="72"/>
      <point x="532" y="18"/>
      <point x="445" y="1" type="curve"/>
      <point x="445" y="-186" type="line"/>
      <point x="105" y="-186" type="line"/>
      <point x="105" y="1500" type="line"/>
      <point x="465" y="1500" type="line"/>
      <point x="465" y="455" type="line" smooth="yes"/>
      <point x="465" y="342"/>
      <point x="457" y="264"/>
    </contour>
  </outline>
</glyph>
<glyph name="paragraph" format="1">
  <advance width="1119"/>
  <unicode hex="00B6"/>
  <outline>
    <contour>
      <point x="71" y="1408" type="curve" smooth="yes"/>
      <point x="71" y="1714"/>
      <point x="314" y="1761"/>
      <point x="622" y="1761" type="curve" smooth="yes"/>
      <point x="997" y="1761" type="line"/>
      <point x="997" y="0" type="line"/>
      <point x="779" y="0" type="line"/>
      <point x="779" y="1455" type="line"/>
      <point x="636" y="1455" type="line"/>
      <point x="636" y="0" type="line"/>
      <point x="418" y="0" type="line"/>
      <point x="418" y="1015" type="line"/>
      <point x="179" y="1041"/>
      <point x="71" y="1147"/>
    </contour>
  </outline>
</glyph>
<glyph name="periodcentered" format="1">
  <advance width="480"/>
  <unicode hex="00B7"/>
  <outline>
    <contour>
      <point x="81" y="1021" type="line"/>
      <point x="81" y="723" type="line"/>
      <point x="399" y="723" type="line"/>
      <point x="399" y="1021" type="line"/>
    </contour>
    <contour>
      <point x="247" y="878" type="move" name="_mid"/>
    </contour>
  </outline>
</glyph>
<glyph name="cedilla" format="1">
  <advance width="1015"/>
  <unicode hex="00B8"/>
  <outline>
    <contour>
      <point x="694" y="-671"/>
      <point x="852" y="-579"/>
      <point x="852" y="-390" type="curve" smooth="yes"/>
      <point x="852" y="-243"/>
      <point x="711" y="-135"/>
      <point x="558" y="-96" type="curve"/>
      <point x="558" y="0" type="line"/>
      <point x="377" y="0" type="line"/>
      <point x="377" y="-166" type="line"/>
      <point x="459" y="-184"/>
      <point x="537" y="-239"/>
      <point x="537" y="-329" type="curve" smooth="yes"/>
      <point x="537" y="-404"/>
      <point x="495" y="-481"/>
      <point x="306" y="-481" type="curve"/>
      <point x="306" y="-631" type="line"/>
      <point x="370" y="-658"/>
      <point x="436" y="-671"/>
      <point x="504" y="-671" type="curve" smooth="yes"/>
    </contour>
  </outline>
</glyph>
<glyph name="onesuperior" format="1">
  <advance width="421"/>
  <unicode hex="00B9"/>
  <outline>
    <contour>
      <point x="152" y="656" type="line"/>
      <point x="362" y="656" type="line"/>
      <point x="362" y="1607" type="line"/>
      <point x="203" y="1607" type="line"/>
      <point x="203" y="1545"/>
      <point x="87" y="1487"/>
      <point x="29" y="1487" type="curve"/>
      <point x="30" y="1483"/>
      <point x="31" y="1469"/>
      <point x="31" y="1444" type="curve" smooth="yes"/>
      <point x="31" y="1413"/>
      <point x="30" y="1377"/>
      <point x="29" y="1334" type="curve"/>
      <point x="72" y="1334"/>
      <point x="113" y="1344"/>
      <point x="152" y="1364" type="curve"/>
    </contour>
  </outline>
</glyph>
<glyph name="uni00B9" format="1">
  <advance width="630"/>
  <unicode hex="00B9"/>
  <outline>
    <contour>
      <point x="55" y="1624" type="curve"/>
      <point x="132" y="1624"/>
      <point x="285" y="1690"/>
      <point x="285" y="1760" type="curve"/>
      <point x="495" y="1760" type="line"/>
      <point x="495" y="681" type="line"/>
      <point x="217" y="681" type="line"/>
      <point x="217" y="1484" type="line"/>
      <point x="166" y="1462"/>
      <point x="112" y="1450"/>
      <point x="55" y="1450" type="curve"/>
      <point x="56" y="1499"/>
      <point x="58" y="1540"/>
      <point x="58" y="1575" type="curve" smooth="yes"/>
      <point x="58" y="1603"/>
      <point x="56" y="1619"/>
    </contour>
  </outline>
</glyph>
<glyph name="ordmasculine" format="1">
  <advance width="908"/>
  <unicode hex="00BA"/>
  <outline>
    <contour>
      <point x="810" y="1235" type="curve" smooth="yes"/>
      <point x="810" y="757" type="line" smooth="yes"/>
      <point x="810" y="515"/>
      <point x="693" y="387"/>
      <point x="454" y="387" type="curve" smooth="yes"/>
      <point x="217" y="387"/>
      <point x="98" y="510"/>
      <point x="98" y="757" type="curve" smooth="yes"/>
      <point x="98" y="1235" type="line" smooth="yes"/>
      <point x="98" y="1456"/>
      <point x="230" y="1605"/>
      <point x="451" y="1605" type="curve" smooth="yes"/>
      <point x="454" y="1605" type="line" smooth="yes"/>
      <point x="677" y="1605"/>
      <point x="810" y="1460"/>
    </contour>
    <contour>
      <point x="387" y="1280" type="curve" smooth="yes"/>
      <point x="387" y="699" type="line" smooth="yes"/>
      <point x="387" y="586"/>
      <point x="520" y="569"/>
      <point x="520" y="699" type="curve" smooth="yes"/>
      <point x="520" y="1280" type="line" smooth="yes"/>
      <point x="520" y="1349"/>
      <point x="498" y="1384"/>
      <point x="454" y="1384" type="curve" smooth="yes"/>
      <point x="409" y="1384"/>
      <point x="387" y="1349"/>
    </contour>
  </outline>
</glyph>
<glyph name="guillemetright" format="1">
  <advance width="1184"/>
  <unicode hex="00BB"/>
  <outline>
    <contour>
      <point x="635" y="871" type="line"/>
      <point x="947" y="749" type="line"/>
      <point x="635" y="618" type="line"/>
      <point x="635" y="260" type="line"/>
      <point x="1145" y="545" type="line"/>
      <point x="1145" y="959" type="line"/>
      <point x="635" y="1230" type="line"/>
    </contour>
    <contour>
      <point x="58" y="871" type="line"/>
      <point x="370" y="749" type="line"/>
      <point x="58" y="618" type="line"/>
      <point x="58" y="260" type="line"/>
      <point x="568" y="545" type="line"/>
      <point x="568" y="959" type="line"/>
      <point x="58" y="1230" type="line"/>
    </contour>
  </outline>
</glyph>
<glyph name="guillemotright" format="1">
  <advance width="1184"/>
  <unicode hex="00BB"/>
  <outline>
    <contour>
      <point x="58" y="1230" type="line"/>
      <point x="568" y="959" type="line"/>
      <point x="568" y="545" type="line"/>
      <point x="58" y="260" type="line"/>
      <point x="58" y="618" type="line"/>
      <point x="370" y="749" type="line"/>
      <point x="58" y="871" type="line"/>
    </contour>
    <contour>
      <point x="635" y="1230" type="line"/>
      <point x="1145" y="959" type="line"/>
      <point x="1145" y="545" type="line"/>
      <point x="635" y="260" type="line"/>
      <point x="635" y="618" type="line"/>
      <point x="947" y="749" type="line"/>
      <point x="635" y="871" type="line"/>
    </contour>
  </outline>
</glyph>
<glyph name="onequarter" format="1">
  <advance width="1535"/>
  <unicode hex="00BC"/>
  <outline>
    <contour>
      <point x="373.0" y="0.0" type="line"/>
      <point x="616.0" y="0.0" type="line"/>
      <point x="1147.0" y="1767.0" type="line"/>
      <point x="903.0" y="1767.0" type="line"/>
    </contour>
    <contour>
      <point x="82.0" y="1334.0" type="line"/>
      <point x="125.0" y="1334.0"/>
      <point x="166.0" y="1344.0"/>
      <point x="205.0" y="1364.0" type="curve"/>
      <point x="205.0" y="656.0" type="line"/>
      <point x="435.0" y="656.0" type="line"/>
      <point x="435.0" y="1607.0" type="line"/>
      <point x="256.0" y="1607.0" type="line"/>
      <point x="256.0" y="1545.0"/>
      <point x="140.0" y="1487.0"/>
      <point x="82.0" y="1487.0" type="curve"/>
    </contour>
    <contour>
      <point x="1193" y="-1" type="line"/>
      <point x="1400" y="-1" type="line"/>
      <point x="1400" y="151" type="line"/>
      <point x="1439" y="151" type="line"/>
      <point x="1439" y="322" type="line"/>
      <point x="1400" y="322" type="line"/>
      <point x="1400" y="941" type="line"/>
      <point x="1077" y="941" type="line"/>
      <point x="890" y="300" type="line"/>
      <point x="890" y="151" type="line"/>
      <point x="1193" y="151" type="line"/>
    </contour>
    <contour>
      <point x="1193" y="322" type="line"/>
      <point x="1083" y="322" type="line"/>
      <point x="1193" y="767" type="line"/>
    </contour>
  </outline>
</glyph>
<glyph name="onehalf" format="1">
  <advance width="1620"/>
  <unicode hex="00BD"/>
  <outline>
    <contour>
      <point x="373.0" y="0.0" type="line"/>
      <point x="616.0" y="0.0" type="line"/>
      <point x="1147.0" y="1767.0" type="line"/>
      <point x="903.0" y="1767.0" type="line"/>
    </contour>
    <contour>
      <point x="82.0" y="1334.0" type="line"/>
      <point x="125.0" y="1334.0"/>
      <point x="166.0" y="1344.0"/>
      <point x="205.0" y="1364.0" type="curve"/>
      <point x="205.0" y="656.0" type="line"/>
      <point x="435.0" y="656.0" type="line"/>
      <point x="435.0" y="1607.0" type="line"/>
      <point x="256.0" y="1607.0" type="line"/>
      <point x="256.0" y="1545.0"/>
      <point x="140.0" y="1487.0"/>
      <point x="82.0" y="1487.0" type="curve"/>
    </contour>
    <contour>
      <point x="1526" y="712" type="curve" smooth="yes"/>
      <point x="1526" y="453"/>
      <point x="1336" y="355"/>
      <point x="1246" y="182" type="curve"/>
      <point x="1519" y="182" type="line"/>
      <point x="1519" y="-1" type="line"/>
      <point x="1000" y="-1" type="line"/>
      <point x="1000" y="46" type="line" smooth="yes"/>
      <point x="1000" y="258"/>
      <point x="1128" y="383"/>
      <point x="1263" y="546" type="curve" smooth="yes"/>
      <point x="1297" y="586"/>
      <point x="1314" y="640"/>
      <point x="1314" y="709" type="curve" smooth="yes"/>
      <point x="1314" y="764"/>
      <point x="1296" y="792"/>
      <point x="1261" y="792" type="curve" smooth="yes"/>
      <point x="1227" y="792"/>
      <point x="1210" y="763"/>
      <point x="1210" y="705" type="curve" smooth="yes"/>
      <point x="1210" y="586" type="line"/>
      <point x="1000" y="586" type="line"/>
      <point x="998" y="646" type="line" smooth="yes"/>
      <point x="998" y="864"/>
      <point x="1052" y="974"/>
      <point x="1263" y="974" type="curve" smooth="yes"/>
      <point x="1428" y="974"/>
      <point x="1526" y="879"/>
    </contour>
  </outline>
</glyph>
<glyph name="threequarters" format="1">
  <advance width="1555"/>
  <unicode hex="00BE"/>
  <outline>
    <contour>
      <point x="1213" y="322" type="line"/>
      <point x="1103" y="322" type="line"/>
      <point x="1213" y="767" type="line"/>
    </contour>
    <contour>
      <point x="413" y="0" type="line"/>
      <point x="656" y="0" type="line"/>
      <point x="1187" y="1767" type="line"/>
      <point x="943" y="1767" type="line"/>
    </contour>
    <contour>
      <point x="1213" y="-1" type="line"/>
      <point x="1420" y="-1" type="line"/>
      <point x="1420" y="151" type="line"/>
      <point x="1459" y="151" type="line"/>
      <point x="1459" y="322" type="line"/>
      <point x="1420" y="322" type="line"/>
      <point x="1420" y="941" type="line"/>
      <point x="1097" y="941" type="line"/>
      <point x="910" y="300" type="line"/>
      <point x="910" y="151" type="line"/>
      <point x="1213" y="151" type="line"/>
    </contour>
    <contour>
      <point x="547" y="935" type="curve" smooth="yes"/>
      <point x="547" y="743"/>
      <point x="471" y="635"/>
      <point x="279" y="635" type="curve" smooth="yes"/>
      <point x="105" y="635"/>
      <point x="30" y="725"/>
      <point x="30" y="904" type="curve" smooth="yes"/>
      <point x="30" y="1004" type="line"/>
      <point x="232" y="1004" type="line"/>
      <point x="232" y="903" type="line" smooth="yes"/>
      <point x="232" y="851"/>
      <point x="241" y="813"/>
      <point x="289" y="813" type="curve" smooth="yes"/>
      <point x="340" y="813"/>
      <point x="340" y="865"/>
      <point x="340" y="935" type="curve" smooth="yes"/>
      <point x="340" y="1011"/>
      <point x="332" y="1082"/>
      <point x="256" y="1082" type="curve" smooth="yes"/>
      <point x="247" y="1082"/>
      <point x="241" y="1082"/>
      <point x="236" y="1081" type="curve"/>
      <point x="236" y="1254" type="line"/>
      <point x="305" y="1254"/>
      <point x="341" y="1279"/>
      <point x="341" y="1349" type="curve" smooth="yes"/>
      <point x="341" y="1403"/>
      <point x="325" y="1430"/>
      <point x="293" y="1430" type="curve" smooth="yes"/>
      <point x="232" y="1430"/>
      <point x="243" y="1373"/>
      <point x="240" y="1317" type="curve"/>
      <point x="36" y="1317" type="line"/>
      <point x="35" y="1351" type="line" smooth="yes"/>
      <point x="36" y="1532"/>
      <point x="118" y="1606"/>
      <point x="292" y="1606" type="curve" smooth="yes"/>
      <point x="460" y="1606"/>
      <point x="544" y="1521"/>
      <point x="544" y="1351" type="curve" smooth="yes"/>
      <point x="544" y="1258"/>
      <point x="522" y="1194"/>
      <point x="452" y="1170" type="curve"/>
      <point x="536" y="1132"/>
      <point x="547" y="1066"/>
    </contour>
  </outline>
</glyph>
<glyph name="questiondown" format="1">
  <advance width="1009"/>
  <unicode hex="00BF"/>
  <outline>
    <contour>
      <point x="601" y="634" type="line"/>
      <point x="967" y="634" type="line"/>
      <point x="967" y="380" type="line" smooth="yes"/>
      <point x="967" y="111"/>
      <point x="778" y="-17"/>
      <point x="507" y="-17" type="curve" smooth="yes"/>
      <point x="152" y="-17"/>
      <point x="37" y="180"/>
      <point x="37" y="533" type="curve" smooth="yes"/>
      <point x="37" y="879"/>
      <point x="205" y="1094"/>
      <point x="555" y="1094" type="curve"/>
      <point x="555" y="1264" type="line"/>
      <point x="888" y="1264" type="line"/>
      <point x="888" y="848" type="line"/>
      <point x="555" y="848"/>
      <point x="414" y="807"/>
      <point x="414" y="465" type="curve" smooth="yes"/>
      <point x="414" y="378"/>
      <point x="427" y="302"/>
      <point x="507" y="302" type="curve" smooth="yes"/>
      <point x="594" y="302"/>
      <point x="601" y="396"/>
      <point x="601" y="488" type="curve" smooth="yes"/>
    </contour>
    <contour>
      <point x="541" y="1374" type="line"/>
      <point x="541" y="1672" type="line"/>
      <point x="899" y="1672" type="line"/>
      <point x="899" y="1374" type="line"/>
    </contour>
  </outline>
</glyph>
<glyph name="AE" format="1">
  <advance width="1311"/>
  <unicode hex="00C6"/>
  <outline>
    <contour>
      <point x="-44" y="0" type="line"/>
      <point x="337" y="0" type="line"/>
      <point x="416" y="479" type="line"/>
      <point x="622" y="479" type="line"/>
      <point x="623" y="0" type="line"/>
      <point x="1272" y="0" type="line"/>
      <point x="1272" y="311" type="line"/>
      <point x="963" y="311" type="line"/>
      <point x="963" y="750" type="line"/>
      <point x="1235" y="750" type="line"/>
      <point x="1235" y="1049" type="line"/>
      <point x="963" y="1049" type="line"/>
      <point x="963" y="1451" type="line"/>
      <point x="1249" y="1451" type="line"/>
      <point x="1249" y="1760" type="line"/>
      <point x="277" y="1760" type="line"/>
    </contour>
    <contour>
      <point x="462" y="769" type="line"/>
      <point x="561" y="1461" type="line"/>
      <point x="618" y="1461" type="line"/>
      <point x="618" y="769" type="line"/>
    </contour>
    <contour>
      <point x="796" y="1760" type="move" name="top"/>
    </contour>
  </outline>
</glyph>
<glyph name="AE" format="1">
  <advance width="1370"/>
  <unicode hex="00C6"/>
  <outline>
    <contour>
      <point x="657" y="535" type="line"/>
      <point x="488" y="535" type="line"/>
      <point x="610" y="1440" type="line"/>
      <point x="657" y="1440" type="line"/>
    </contour>
    <contour>
      <point x="458" y="281" type="line"/>
      <point x="657" y="281" type="line"/>
      <point x="657" y="0" type="line"/>
      <point x="1282" y="0" type="line"/>
      <point x="1282" y="318" type="line"/>
      <point x="1017" y="318" type="line"/>
      <point x="1017" y="746" type="line"/>
      <point x="1245" y="746" type="line"/>
      <point x="1245" y="1065" type="line"/>
      <point x="1017" y="1065" type="line"/>
      <point x="1017" y="1440" type="line"/>
      <point x="1259" y="1440" type="line"/>
      <point x="1259" y="1761" type="line"/>
      <point x="324" y="1761" type="line"/>
      <point x="68" y="0" type="line"/>
      <point x="420" y="0" type="line"/>
    </contour>
  </outline>
</glyph>
<glyph name="Eth" format="1">
  <advance width="1109"/>
  <unicode hex="00D0"/>
  <outline>
    <contour>
      <point x="644" y="301"/>
      <point x="610" y="270"/>
      <point x="543" y="270" type="curve" smooth="yes"/>
      <point x="482" y="270" type="line"/>
      <point x="482" y="795" type="line"/>
      <point x="573" y="795" type="line"/>
      <point x="573" y="998" type="line"/>
      <point x="482" y="998" type="line"/>
      <point x="482" y="1490" type="line"/>
      <point x="521" y="1490" type="line" smooth="yes"/>
      <point x="621" y="1490"/>
      <point x="644" y="1440"/>
      <point x="644" y="1323" type="curve" smooth="yes"/>
      <point x="644" y="364" type="line" smooth="yes"/>
    </contour>
    <contour>
      <point x="122" y="0" type="line"/>
      <point x="601" y="0" type="line" smooth="yes"/>
      <point x="893" y="0"/>
      <point x="1004" y="189"/>
      <point x="1004" y="522" type="curve" smooth="yes"/>
      <point x="1004" y="1347" type="line" smooth="yes"/>
      <point x="1004" y="1617"/>
      <point x="866" y="1761"/>
      <point x="613" y="1761" type="curve" smooth="yes"/>
      <point x="122" y="1761" type="line"/>
      <point x="122" y="998" type="line"/>
      <point x="25" y="998" type="line"/>
      <point x="25" y="795" type="line"/>
      <point x="122" y="795" type="line"/>
    </contour>
  </outline>
</glyph>
<glyph name="Oacute" format="1">
  <advance width="969"/>
  <unicode hex="00D3"/>
  <outline>
    <contour>
      <point x="484" y="-18" type="curve" smooth="yes"/>
      <point x="196" y="-18"/>
      <point x="50" y="146"/>
      <point x="50" y="430" type="curve" smooth="yes"/>
      <point x="50" y="1189" type="line" smooth="yes"/>
      <point x="50" y="1464"/>
      <point x="202" y="1607"/>
      <point x="484" y="1607" type="curve" smooth="yes"/>
      <point x="766" y="1607"/>
      <point x="918" y="1464"/>
      <point x="918" y="1189" type="curve" smooth="yes"/>
      <point x="918" y="430" type="line" smooth="yes"/>
      <point x="918" y="146"/>
      <point x="772" y="-18"/>
    </contour>
    <contour>
      <point x="398" y="1166" type="curve" smooth="yes"/>
      <point x="398" y="477" type="line" smooth="yes"/>
      <point x="398" y="395"/>
      <point x="402" y="297"/>
      <point x="484" y="297" type="curve" smooth="yes"/>
      <point x="561" y="297"/>
      <point x="564" y="388"/>
      <point x="564" y="465" type="curve" smooth="yes"/>
      <point x="564" y="1113" type="line" smooth="yes"/>
      <point x="564" y="1198"/>
      <point x="571" y="1295"/>
      <point x="484" y="1295" type="curve" smooth="yes"/>
      <point x="416" y="1295"/>
      <point x="398" y="1233"/>
    </contour>
    <contour>
      <point x="691" y="2086" type="line"/>
      <point x="691" y="1739" type="line"/>
      <point x="216" y="1645" type="line"/>
      <point x="216" y="1868" type="line"/>
    </contour>
  </outline>
</glyph>
<glyph name="Ocircumflex" format="1">
  <advance width="986"/>
  <unicode hex="00D4"/>
  <outline>
    <contour>
      <point x="495" y="-18" type="curve" smooth="yes"/>
      <point x="207" y="-18"/>
      <point x="61" y="146"/>
      <point x="61" y="430" type="curve" smooth="yes"/>
      <point x="61" y="1189" type="line" smooth="yes"/>
      <point x="61" y="1464"/>
      <point x="213" y="1607"/>
      <point x="495" y="1607" type="curve" smooth="yes"/>
      <point x="777" y="1607"/>
      <point x="929" y="1464"/>
      <point x="929" y="1189" type="curve" smooth="yes"/>
      <point x="929" y="430" type="line" smooth="yes"/>
      <point x="929" y="146"/>
      <point x="783" y="-18"/>
    </contour>
    <contour>
      <point x="409" y="1166" type="curve" smooth="yes"/>
      <point x="409" y="477" type="line" smooth="yes"/>
      <point x="409" y="395"/>
      <point x="413" y="297"/>
      <point x="495" y="297" type="curve" smooth="yes"/>
      <point x="572" y="297"/>
      <point x="575" y="388"/>
      <point x="575" y="465" type="curve" smooth="yes"/>
      <point x="575" y="1113" type="line" smooth="yes"/>
      <point x="575" y="1198"/>
      <point x="582" y="1295"/>
      <point x="495" y="1295" type="curve" smooth="yes"/>
      <point x="427" y="1295"/>
      <point x="409" y="1233"/>
    </contour>
    <contour>
      <point x="46" y="1683" type="line"/>
      <point x="287" y="2086" type="line"/>
      <point x="695" y="2086" type="line"/>
      <point x="936" y="1683" type="line"/>
      <point x="577" y="1683" type="line"/>
      <point x="491" y="1968" type="line"/>
      <point x="405" y="1683" type="line"/>
    </contour>
  </outline>
</glyph>
<glyph name="Otilde" format="1">
  <advance width="974"/>
  <unicode hex="00D5"/>
  <outline>
    <contour>
      <point x="488" y="-18" type="curve" smooth="yes"/>
      <point x="200" y="-18"/>
      <point x="54" y="146"/>
      <point x="54" y="430" type="curve" smooth="yes"/>
      <point x="54" y="1189" type="line" smooth="yes"/>
      <point x="54" y="1464"/>
      <point x="206" y="1607"/>
      <point x="488" y="1607" type="curve" smooth="yes"/>
      <point x="770" y="1607"/>
      <point x="922" y="1464"/>
      <point x="922" y="1189" type="curve" smooth="yes"/>
      <point x="922" y="430" type="line" smooth="yes"/>
      <point x="922" y="146"/>
      <point x="776" y="-18"/>
    </contour>
    <contour>
      <point x="402" y="1166" type="curve" smooth="yes"/>
      <point x="402" y="477" type="line" smooth="yes"/>
      <point x="402" y="395"/>
      <point x="406" y="297"/>
      <point x="488" y="297" type="curve" smooth="yes"/>
      <point x="565" y="297"/>
      <point x="568" y="388"/>
      <point x="568" y="465" type="curve" smooth="yes"/>
      <point x="568" y="1113" type="line" smooth="yes"/>
      <point x="568" y="1198"/>
      <point x="575" y="1295"/>
      <point x="488" y="1295" type="curve" smooth="yes"/>
      <point x="420" y="1295"/>
      <point x="402" y="1233"/>
    </contour>
    <contour>
      <point x="589" y="1694" type="curve" smooth="yes"/>
      <point x="479" y="1694"/>
      <point x="446" y="1804"/>
      <point x="347" y="1804" type="curve" smooth="yes"/>
      <point x="326" y="1804"/>
      <point x="306" y="1774"/>
      <point x="289" y="1715" type="curve"/>
      <point x="67" y="1821" type="line"/>
      <point x="121" y="1953"/>
      <point x="191" y="2080"/>
      <point x="347" y="2080" type="curve" smooth="yes"/>
      <point x="441" y="2080"/>
      <point x="501" y="1972"/>
      <point x="590" y="1972" type="curve" smooth="yes"/>
      <point x="612" y="1972"/>
      <point x="632" y="1998"/>
      <point x="649" y="2051" type="curve"/>
      <point x="881" y="1995" type="line"/>
      <point x="827" y="1848"/>
      <point x="754" y="1694"/>
    </contour>
  </outline>
</glyph>
<glyph name="Odieresis" format="1">
  <advance width="973"/>
  <unicode hex="00D6"/>
  <outline>
    <contour>
      <point x="486" y="-18" type="curve" smooth="yes"/>
      <point x="198" y="-18"/>
      <point x="52" y="146"/>
      <point x="52" y="430" type="curve" smooth="yes"/>
      <point x="52" y="1189" type="line" smooth="yes"/>
      <point x="52" y="1464"/>
      <point x="204" y="1607"/>
      <point x="486" y="1607" type="curve" smooth="yes"/>
      <point x="768" y="1607"/>
      <point x="920" y="1464"/>
      <point x="920" y="1189" type="curve" smooth="yes"/>
      <point x="920" y="430" type="line" smooth="yes"/>
      <point x="920" y="146"/>
      <point x="774" y="-18"/>
    </contour>
    <contour>
      <point x="400" y="1166" type="curve" smooth="yes"/>
      <point x="400" y="477" type="line" smooth="yes"/>
      <point x="400" y="395"/>
      <point x="404" y="297"/>
      <point x="486" y="297" type="curve" smooth="yes"/>
      <point x="563" y="297"/>
      <point x="566" y="388"/>
      <point x="566" y="465" type="curve" smooth="yes"/>
      <point x="566" y="1113" type="line" smooth="yes"/>
      <point x="566" y="1198"/>
      <point x="573" y="1295"/>
      <point x="486" y="1295" type="curve" smooth="yes"/>
      <point x="418" y="1295"/>
      <point x="400" y="1233"/>
    </contour>
    <contour>
      <point x="419" y="1981" type="line"/>
      <point x="419" y="1683" type="line"/>
      <point x="61" y="1683" type="line"/>
      <point x="61" y="1981" type="line"/>
    </contour>
    <contour>
      <point x="903" y="1981" type="line"/>
      <point x="903" y="1683" type="line"/>
      <point x="545" y="1683" type="line"/>
      <point x="545" y="1981" type="line"/>
    </contour>
  </outline>
</glyph>
<glyph name="multiply" format="1">
  <advance width="710"/>
  <unicode hex="00D7"/>
  <outline>
    <contour>
      <point x="502" y="314" type="line"/>
      <point x="355" y="461" type="line"/>
      <point x="208" y="314" type="line"/>
      <point x="44" y="478" type="line"/>
      <point x="191" y="625" type="line"/>
      <point x="44" y="772" type="line"/>
      <point x="208" y="936" type="line"/>
      <point x="355" y="789" type="line"/>
      <point x="502" y="936" type="line"/>
      <point x="666" y="772" type="line"/>
      <point x="519" y="625" type="line"/>
      <point x="666" y="478" type="line"/>
    </contour>
  </outline>
</glyph>
<glyph name="Oslash" format="1">
  <advance width="988"/>
  <unicode hex="00D8"/>
  <outline>
    <contour>
      <point x="604" y="1550" type="line"/>
      <point x="715" y="1500" type="line"/>
      <point x="849" y="1971" type="line"/>
      <point x="732" y="2004" type="line"/>
    </contour>
    <contour>
      <point x="128" y="-132" type="line"/>
      <point x="240" y="-172" type="line"/>
      <point x="354" y="230" type="line"/>
      <point x="255" y="316" type="line"/>
    </contour>
    <component base="O" xOffset="-4"/>
  </outline>
</glyph>
<glyph name="Oslash" format="1">
  <advance width="1096"/>
  <unicode hex="00D8"/>
  <outline>
    <contour>
      <point x="180" y="-142" type="line"/>
      <point x="327" y="306" type="line"/>
      <point x="426" y="220" type="line"/>
      <point x="292" y="-182" type="line"/>
    </contour>
    <contour>
      <point x="901" y="1961" type="line"/>
      <point x="747" y="1490" type="line"/>
      <point x="636" y="1540" type="line"/>
      <point x="784" y="1994" type="line"/>
    </contour>
    <component base="O"/>
  </outline>
</glyph>
<glyph name="Thorn" format="1">
  <advance width="1064"/>
  <unicode hex="00DE"/>
  <outline>
    <contour>
      <point x="122" y="0" type="line"/>
      <point x="482" y="0" type="line"/>
      <point x="482" y="388" type="line"/>
      <point x="625" y="388" type="line" smooth="yes"/>
      <point x="917" y="388"/>
      <point x="1004" y="616"/>
      <point x="1004" y="937" type="curve" smooth="yes"/>
      <point x="1004" y="1313"/>
      <point x="893" y="1494"/>
      <point x="601" y="1494" type="curve" smooth="yes"/>
      <point x="482" y="1494" type="line"/>
      <point x="482" y="1761" type="line"/>
      <point x="122" y="1761" type="line"/>
    </contour>
    <contour>
      <point x="482" y="684" type="line"/>
      <point x="482" y="1223" type="line"/>
      <point x="521" y="1223" type="line" smooth="yes"/>
      <point x="634" y="1223"/>
      <point x="644" y="1104"/>
      <point x="644" y="943" type="curve" smooth="yes"/>
      <point x="644" y="774"/>
      <point x="636" y="684"/>
      <point x="522" y="684" type="curve" smooth="yes"/>
    </contour>
  </outline>
</glyph>
<glyph name="germandbls" format="1">
  <advance width="1109"/>
  <unicode hex="00DF"/>
  <outline>
    <contour>
      <point x="557" y="803" type="curve"/>
      <point x="557" y="1051" type="line"/>
      <point x="627" y="1051"/>
      <point x="641" y="1102"/>
      <point x="641" y="1170" type="curve" smooth="yes"/>
      <point x="641" y="1390" type="line" smooth="yes"/>
      <point x="641" y="1441"/>
      <point x="616" y="1466"/>
      <point x="566" y="1466" type="curve" smooth="yes"/>
      <point x="516" y="1466"/>
      <point x="478" y="1441"/>
      <point x="478" y="1390" type="curve" smooth="yes"/>
      <point x="478" y="0" type="line"/>
      <point x="122" y="0" type="line"/>
      <point x="122" y="1417" type="line" smooth="yes"/>
      <point x="122" y="1660"/>
      <point x="283" y="1781"/>
      <point x="566" y="1781" type="curve" smooth="yes"/>
      <point x="825" y="1781"/>
      <point x="992" y="1678"/>
      <point x="992" y="1417" type="curve" smooth="yes"/>
      <point x="992" y="1220" type="line" smooth="yes"/>
      <point x="992" y="1080"/>
      <point x="950" y="980"/>
      <point x="842" y="945" type="curve"/>
      <point x="1006" y="906"/>
      <point x="1052" y="752"/>
      <point x="1052" y="553" type="curve" smooth="yes"/>
      <point x="1052" y="476" type="line" smooth="yes"/>
      <point x="1052" y="177"/>
      <point x="952" y="0"/>
      <point x="652" y="0" type="curve" smooth="yes"/>
      <point x="548" y="0" type="line"/>
      <point x="548" y="277" type="line"/>
      <point x="643" y="277"/>
      <point x="704" y="316"/>
      <point x="704" y="395" type="curve" smooth="yes"/>
      <point x="704" y="656" type="line" smooth="yes"/>
      <point x="704" y="764"/>
      <point x="666" y="803"/>
    </contour>
  </outline>
</glyph>
<glyph name="ae" format="1">
  <advance width="1497"/>
  <unicode hex="00E6"/>
  <outline>
    <contour>
      <point x="1090" y="579" type="curve"/>
      <point x="1446" y="579" type="line"/>
      <point x="1446" y="494" type="line" smooth="yes"/>
      <point x="1446" y="172"/>
      <point x="1358" y="-18"/>
      <point x="1036" y="-18" type="curve" smooth="yes"/>
      <point x="896" y="-18"/>
      <point x="789" y="53"/>
      <point x="748" y="148" type="curve"/>
      <point x="702" y="51"/>
      <point x="598" y="-18"/>
      <point x="449" y="-18" type="curve" smooth="yes"/>
      <point x="182" y="-18"/>
      <point x="38" y="154"/>
      <point x="38" y="430" type="curve" smooth="yes"/>
      <point x="38" y="839"/>
      <point x="224" y="865"/>
      <point x="560" y="980" type="curve"/>
      <point x="560" y="983" type="line" smooth="yes"/>
      <point x="560" y="1079"/>
      <point x="578" y="1239"/>
      <point x="483" y="1239" type="curve" smooth="yes"/>
      <point x="434" y="1239"/>
      <point x="409" y="1212"/>
      <point x="409" y="1157" type="curve" smooth="yes"/>
      <point x="409" y="1056" type="line"/>
      <point x="61" y="1056" type="line"/>
      <point x="60" y="1067"/>
      <point x="60" y="1084"/>
      <point x="60" y="1105" type="curve" smooth="yes"/>
      <point x="60" y="1403"/>
      <point x="195" y="1518"/>
      <point x="501" y="1518" type="curve" smooth="yes"/>
      <point x="610" y="1518"/>
      <point x="692" y="1477"/>
      <point x="747" y="1396" type="curve"/>
      <point x="800" y="1477"/>
      <point x="889" y="1518"/>
      <point x="1014" y="1518" type="curve" smooth="yes"/>
      <point x="1302" y="1518"/>
      <point x="1446" y="1376"/>
      <point x="1446" y="1092" type="curve" smooth="yes"/>
      <point x="1446" y="983" type="line" smooth="yes"/>
      <point x="1446" y="848"/>
      <point x="1445" y="755"/>
      <point x="1442" y="704" type="curve"/>
      <point x="921" y="704" type="line"/>
      <point x="921" y="494" type="line" smooth="yes"/>
      <point x="921" y="338"/>
      <point x="950" y="260"/>
      <point x="1008" y="260" type="curve" smooth="yes"/>
      <point x="1094" y="260"/>
      <point x="1092" y="394"/>
      <point x="1092" y="483" type="curve" smooth="yes"/>
      <point x="1092" y="542"/>
      <point x="1091" y="574"/>
    </contour>
    <contour>
      <point x="559" y="379" type="curve" smooth="yes"/>
      <point x="559" y="774" type="line"/>
      <point x="460" y="734"/>
      <point x="403" y="687"/>
      <point x="403" y="570" type="curve" smooth="yes"/>
      <point x="403" y="395" type="line" smooth="yes"/>
      <point x="403" y="306"/>
      <point x="430" y="262"/>
      <point x="483" y="262" type="curve" smooth="yes"/>
      <point x="541" y="262"/>
      <point x="559" y="322"/>
    </contour>
    <contour>
      <point x="1010" y="1249" type="curve" smooth="yes"/>
      <point x="921" y="1249"/>
      <point x="921" y="1167"/>
      <point x="921" y="1052" type="curve" smooth="yes"/>
      <point x="921" y="931" type="line"/>
      <point x="1090" y="931" type="line"/>
      <point x="1090" y="1087" type="line" smooth="yes"/>
      <point x="1090" y="1195"/>
      <point x="1063" y="1249"/>
    </contour>
  </outline>
</glyph>
<glyph name="eth" format="1">
  <advance width="1031"/>
  <unicode hex="00F0"/>
  <outline>
    <contour>
      <point x="84" y="1546" type="line"/>
      <point x="308" y="1498"/>
      <point x="603" y="1236"/>
      <point x="636" y="951" type="curve"/>
      <point x="598" y="975"/>
      <point x="517" y="992"/>
      <point x="464" y="992" type="curve" smooth="yes"/>
      <point x="173" y="992"/>
      <point x="49" y="826"/>
      <point x="49" y="509" type="curve" smooth="yes"/>
      <point x="49" y="157"/>
      <point x="164" y="-16"/>
      <point x="508" y="-16" type="curve" smooth="yes"/>
      <point x="875" y="-16"/>
      <point x="990" y="161"/>
      <point x="990" y="538" type="curve" smooth="yes"/>
      <point x="990" y="799" type="line" smooth="yes"/>
      <point x="990" y="1322"/>
      <point x="583" y="1734"/>
      <point x="178" y="1774" type="curve"/>
    </contour>
    <contour>
      <point x="623" y="420" type="line" smooth="yes"/>
      <point x="623" y="326"/>
      <point x="592" y="279"/>
      <point x="528" y="279" type="curve" smooth="yes"/>
      <point x="438" y="279"/>
      <point x="435" y="364"/>
      <point x="435" y="482" type="curve" smooth="yes"/>
      <point x="435" y="570" type="line" smooth="yes"/>
      <point x="435" y="674"/>
      <point x="464" y="726"/>
      <point x="522" y="726" type="curve" smooth="yes"/>
      <point x="589" y="726"/>
      <point x="623" y="681"/>
      <point x="623" y="591" type="curve" smooth="yes"/>
    </contour>
    <contour>
      <point x="339" y="1090" type="line"/>
      <point x="1015" y="1529" type="line"/>
      <point x="911" y="1690" type="line"/>
      <point x="235" y="1251" type="line"/>
    </contour>
  </outline>
</glyph>
<glyph name="divide" format="1">
  <advance width="684"/>
  <unicode hex="00F7"/>
  <outline>
    <contour>
      <point x="193" y="237" type="line"/>
      <point x="491" y="237" type="line"/>
      <point x="491" y="535" type="line"/>
      <point x="193" y="535" type="line"/>
    </contour>
    <contour>
      <point x="34" y="638" type="line"/>
      <point x="650" y="638" type="line"/>
      <point x="650" y="870" type="line"/>
      <point x="34" y="870" type="line"/>
    </contour>
    <contour>
      <point x="193" y="976" type="line"/>
      <point x="491" y="976" type="line"/>
      <point x="491" y="1274" type="line"/>
      <point x="193" y="1274" type="line"/>
    </contour>
  </outline>
</glyph>
<glyph name="oslash" format="1">
  <advance width="1076"/>
  <unicode hex="00F8"/>
  <outline>
    <contour>
      <point x="659.0" y="1351.0" type="line"/>
      <point x="749.0" y="1672.0" type="line"/>
      <point x="850.0" y="1644.0" type="line"/>
      <point x="760.0" y="1325.0" type="line"/>
    </contour>
    <contour>
      <point x="312.0" y="112.0" type="line"/>
      <point x="659.0" y="1351.0" type="line"/>
      <point x="760.0" y="1325.0" type="line"/>
      <point x="408.0" y="70.0" type="line"/>
    </contour>
    <contour>
      <point x="340.0" y="-173.0" type="line"/>
      <point x="240.0" y="-145.0" type="line"/>
      <point x="312.0" y="112.0" type="line"/>
      <point x="408.0" y="70.0" type="line"/>
    </contour>
    <component base="o"/>
  </outline>
</glyph>
<glyph name="dotlessi" format="1">
  <advance width="482"/>
  <unicode hex="0131"/>
  <outline>
    <contour>
      <point x="420" y="1500" type="line"/>
      <point x="420" y="0" type="line"/>
      <point x="62" y="0" type="line"/>
      <point x="62" y="1500" type="line"/>
    </contour>
  </outline>
</glyph>
<glyph name="kgreenlandic" format="1">
  <advance width="1040"/>
  <unicode hex="0138"/>
  <outline>
    <contour>
      <point x="416" y="674" type="line"/>
      <point x="416" y="0" type="line"/>
      <point x="62" y="0" type="line"/>
      <point x="62" y="1500" type="line"/>
      <point x="416" y="1500" type="line"/>
      <point x="416" y="950" type="line"/>
      <point x="588" y="1500" type="line"/>
      <point x="959" y="1500" type="line"/>
      <point x="734" y="815" type="line"/>
      <point x="1020" y="0" type="line"/>
      <point x="639" y="0" type="line"/>
    </contour>
  </outline>
</glyph>
<glyph name="Lslash" format="1">
  <advance width="853"/>
  <unicode hex="0141"/>
  <outline>
    <contour>
      <point x="-11" y="1011" type="line"/>
      <point x="-11" y="669" type="line"/>
      <point x="636" y="951" type="line"/>
      <point x="636" y="1293" type="line"/>
    </contour>
    <component base="L"/>
  </outline>
</glyph>
<glyph name="Lslash" format="1">
  <advance width="864"/>
  <unicode hex="0141"/>
  <outline>
    <contour>
      <point x="706" y="1153" type="line"/>
      <point x="706" y="921" type="line"/>
      <point x="19" y="689" type="line"/>
      <point x="19" y="921" type="line"/>
    </contour>
    <component base="L"/>
  </outline>
</glyph>
<glyph name="lslash" format="1">
  <advance width="590"/>
  <unicode hex="0142"/>
  <outline>
    <contour>
      <point x="112" y="1767" type="line"/>
      <point x="476" y="1767" type="line"/>
      <point x="476" y="0" type="line"/>
      <point x="112" y="0" type="line"/>
    </contour>
    <contour>
      <point x="553" y="973" type="line"/>
      <point x="553" y="741" type="line"/>
      <point x="37" y="509" type="line"/>
      <point x="37" y="741" type="line"/>
    </contour>
  </outline>
</glyph>
<glyph name="Eng" format="1">
  <advance width="1006"/>
  <unicode hex="014A"/>
  <outline>
    <contour>
      <point x="577" y="182" type="line"/>
      <point x="577" y="-41" type="line" smooth="yes"/>
      <point x="577" y="-182"/>
      <point x="517" y="-236"/>
      <point x="417" y="-236" type="curve" smooth="yes"/>
      <point x="345" y="-236"/>
      <point x="251" y="-207"/>
      <point x="145" y="-161" type="curve"/>
      <point x="64" y="-368" type="line"/>
      <point x="202" y="-444"/>
      <point x="357" y="-488"/>
      <point x="497" y="-488" type="curve" smooth="yes"/>
      <point x="741" y="-488"/>
      <point x="942" y="-355"/>
      <point x="942" y="-18" type="curve" smooth="yes"/>
      <point x="942" y="182" type="line"/>
    </contour>
    <component base="N"/>
  </outline>
</glyph>
<glyph name="eng" format="1">
  <advance width="1002"/>
  <unicode hex="014B"/>
  <outline>
    <contour>
      <point x="601" y="182" type="line"/>
      <point x="601" y="-41" type="line" smooth="yes"/>
      <point x="601" y="-182"/>
      <point x="528" y="-236"/>
      <point x="428" y="-236" type="curve" smooth="yes"/>
      <point x="356" y="-236"/>
      <point x="262" y="-207"/>
      <point x="156" y="-161" type="curve"/>
      <point x="75" y="-368" type="line"/>
      <point x="213" y="-444"/>
      <point x="368" y="-488"/>
      <point x="508" y="-488" type="curve" smooth="yes"/>
      <point x="752" y="-488"/>
      <point x="953" y="-355"/>
      <point x="953" y="-18" type="curve" smooth="yes"/>
      <point x="953" y="182" type="line"/>
    </contour>
    <component base="n"/>
  </outline>
</glyph>
<glyph name="OE" format="1">
  <advance width="1330"/>
  <unicode hex="0152"/>
  <outline>
    <contour>
      <point x="598" y="1760" type="line" smooth="yes"/>
      <point x="273" y="1760"/>
      <point x="50" y="1665"/>
      <point x="50" y="1356" type="curve" smooth="yes"/>
      <point x="50" y="430" type="line" smooth="yes"/>
      <point x="50" y="143"/>
      <point x="235" y="0"/>
      <point x="606" y="0" type="curve" smooth="yes"/>
      <point x="1291" y="0" type="line"/>
      <point x="1291" y="311" type="line"/>
      <point x="931" y="311" type="line"/>
      <point x="931" y="784" type="line"/>
      <point x="1254" y="784" type="line"/>
      <point x="1254" y="1083" type="line"/>
      <point x="931" y="1083" type="line"/>
      <point x="931" y="1451" type="line"/>
      <point x="1268" y="1451" type="line"/>
      <point x="1268" y="1760" type="line"/>
    </contour>
    <contour>
      <point x="574" y="311" type="line"/>
      <point x="513" y="311" type="line" smooth="yes"/>
      <point x="431" y="311"/>
      <point x="398" y="387"/>
      <point x="398" y="480" type="curve" smooth="yes"/>
      <point x="398" y="1314" type="line" smooth="yes"/>
      <point x="398" y="1399"/>
      <point x="440" y="1451"/>
      <point x="519" y="1451" type="curve" smooth="yes"/>
      <point x="574" y="1451" type="line"/>
    </contour>
  </outline>
</glyph>
<glyph name="OE" format="1">
  <advance width="1330"/>
  <unicode hex="0152"/>
  <outline>
    <contour>
      <point x="50" y="430" type="curve" smooth="yes"/>
      <point x="50" y="1189" type="line" smooth="yes"/>
      <point x="50" y="1498"/>
      <point x="273" y="1593"/>
      <point x="598" y="1593" type="curve" smooth="yes"/>
      <point x="1268" y="1593" type="line"/>
      <point x="1268" y="1284" type="line"/>
      <point x="931" y="1284" type="line"/>
      <point x="931" y="973" type="line"/>
      <point x="1254" y="973" type="line"/>
      <point x="1254" y="674" type="line"/>
      <point x="931" y="674" type="line"/>
      <point x="931" y="311" type="line"/>
      <point x="1291" y="311" type="line"/>
      <point x="1291" y="0" type="line"/>
      <point x="606" y="0" type="line" smooth="yes"/>
      <point x="235" y="0"/>
      <point x="50" y="143"/>
    </contour>
    <contour>
      <point x="519" y="1289" type="curve" smooth="yes"/>
      <point x="440" y="1289"/>
      <point x="398" y="1232"/>
      <point x="398" y="1147" type="curve" smooth="yes"/>
      <point x="398" y="477" type="line" smooth="yes"/>
      <point x="398" y="384"/>
      <point x="431" y="308"/>
      <point x="513" y="308" type="curve" smooth="yes"/>
      <point x="533" y="308"/>
      <point x="553" y="313"/>
      <point x="574" y="322" type="curve"/>
      <point x="574" y="1280" type="line"/>
      <point x="556" y="1286"/>
      <point x="538" y="1289"/>
    </contour>
  </outline>
</glyph>
<glyph name="oe" format="1">
  <advance width="1513"/>
  <unicode hex="0153"/>
  <outline>
    <contour>
      <point x="1106" y="579" type="curve"/>
      <point x="1462" y="579" type="line"/>
      <point x="1462" y="494" type="line" smooth="yes"/>
      <point x="1462" y="157"/>
      <point x="1352" y="-18"/>
      <point x="1012" y="-18" type="curve" smooth="yes"/>
      <point x="911" y="-18"/>
      <point x="829" y="11"/>
      <point x="766" y="69" type="curve"/>
      <point x="696" y="11"/>
      <point x="606" y="-18"/>
      <point x="496" y="-18" type="curve" smooth="yes"/>
      <point x="197" y="-18"/>
      <point x="48" y="138"/>
      <point x="48" y="449" type="curve" smooth="yes"/>
      <point x="48" y="1051" type="line" smooth="yes"/>
      <point x="48" y="1333"/>
      <point x="216" y="1518"/>
      <point x="496" y="1518" type="curve" smooth="yes"/>
      <point x="598" y="1518"/>
      <point x="686" y="1486"/>
      <point x="761" y="1422" type="curve"/>
      <point x="829" y="1486"/>
      <point x="919" y="1518"/>
      <point x="1030" y="1518" type="curve" smooth="yes"/>
      <point x="1318" y="1518"/>
      <point x="1462" y="1376"/>
      <point x="1462" y="1092" type="curve" smooth="yes"/>
      <point x="1462" y="983" type="line" smooth="yes"/>
      <point x="1462" y="848"/>
      <point x="1461" y="755"/>
      <point x="1458" y="704" type="curve"/>
      <point x="938" y="704" type="line"/>
      <point x="938" y="494" type="line" smooth="yes"/>
      <point x="938" y="482"/>
      <point x="937" y="439"/>
      <point x="937" y="427" type="curve" smooth="yes"/>
      <point x="937" y="346"/>
      <point x="944" y="260"/>
      <point x="1024" y="260" type="curve" smooth="yes"/>
      <point x="1110" y="260"/>
      <point x="1108" y="395"/>
      <point x="1108" y="483" type="curve" smooth="yes"/>
      <point x="1108" y="542"/>
      <point x="1107" y="574"/>
    </contour>
    <contour>
      <point x="496" y="260" type="curve" smooth="yes"/>
      <point x="556" y="260"/>
      <point x="580" y="308"/>
      <point x="580" y="375" type="curve" smooth="yes"/>
      <point x="580" y="1108" type="line" smooth="yes"/>
      <point x="580" y="1195"/>
      <point x="552" y="1239"/>
      <point x="496" y="1239" type="curve" smooth="yes"/>
      <point x="440" y="1239"/>
      <point x="412" y="1195"/>
      <point x="412" y="1108" type="curve" smooth="yes"/>
      <point x="412" y="375" type="line" smooth="yes"/>
      <point x="412" y="308"/>
      <point x="436" y="260"/>
    </contour>
    <contour>
      <point x="936" y="1057" type="curve" smooth="yes"/>
      <point x="936" y="1033"/>
      <point x="938" y="955"/>
      <point x="938" y="931" type="curve"/>
      <point x="1106" y="931" type="line"/>
      <point x="1106" y="1087" type="line" smooth="yes"/>
      <point x="1106" y="1195"/>
      <point x="1079" y="1249"/>
      <point x="1026" y="1249" type="curve" smooth="yes"/>
      <point x="939" y="1249"/>
      <point x="936" y="1146"/>
    </contour>
  </outline>
</glyph>
<glyph name="Schwa" format="1">
  <advance width="1000"/>
  <unicode hex="018F"/>
  <outline>
    <contour>
      <point x="228" y="1776"/>
      <point x="64" y="1644"/>
      <point x="64" y="1335" type="curve" smooth="yes"/>
      <point x="64" y="1087" type="line"/>
      <point x="418" y="1087" type="line"/>
      <point x="418" y="1319" type="line" smooth="yes"/>
      <point x="418" y="1398"/>
      <point x="440" y="1452"/>
      <point x="500" y="1452" type="curve" smooth="yes"/>
      <point x="554" y="1452"/>
      <point x="583" y="1416"/>
      <point x="583" y="1319" type="curve" smooth="yes"/>
      <point x="583" y="890" type="line"/>
      <point x="68" y="890" type="line"/>
      <point x="68" y="398" type="line" smooth="yes"/>
      <point x="68" y="121"/>
      <point x="250" y="-16"/>
      <point x="500" y="-16" type="curve" smooth="yes"/>
      <point x="805" y="-16"/>
      <point x="932" y="171"/>
      <point x="932" y="512" type="curve" smooth="yes"/>
      <point x="932" y="1324" type="line" smooth="yes"/>
      <point x="932" y="1609"/>
      <point x="763" y="1776"/>
      <point x="508" y="1776" type="curve" smooth="yes"/>
    </contour>
    <contour>
      <point x="444" y="308"/>
      <point x="418" y="337"/>
      <point x="418" y="442" type="curve" smooth="yes"/>
      <point x="418" y="614" type="line"/>
      <point x="583" y="614" type="line"/>
      <point x="583" y="438" type="line" smooth="yes"/>
      <point x="583" y="360"/>
      <point x="565" y="308"/>
      <point x="500" y="308" type="curve" smooth="yes"/>
    </contour>
  </outline>
</glyph>
<glyph name="florin" format="1">
  <advance width="620"/>
  <unicode hex="0192"/>
  <outline>
    <contour>
      <point x="535" y="1362" type="curve" smooth="yes"/>
      <point x="486" y="1362"/>
      <point x="480" y="1332"/>
      <point x="480" y="1281" type="curve" smooth="yes"/>
      <point x="480" y="1263" type="line"/>
      <point x="578" y="1263" type="line"/>
      <point x="578" y="986" type="line"/>
      <point x="487" y="986" type="line"/>
      <point x="487" y="195" type="line" smooth="yes"/>
      <point x="487" y="34"/>
      <point x="406" y="-47"/>
      <point x="245" y="-47" type="curve" smooth="yes"/>
      <point x="160" y="-47"/>
      <point x="92" y="-37"/>
      <point x="41" y="-18" type="curve"/>
      <point x="41" y="203" type="line"/>
      <point x="60" y="200"/>
      <point x="74" y="198"/>
      <point x="84" y="198" type="curve" smooth="yes"/>
      <point x="133" y="198"/>
      <point x="139" y="228"/>
      <point x="139" y="279" type="curve" smooth="yes"/>
      <point x="139" y="297" type="line"/>
      <point x="132" y="986" type="line"/>
      <point x="47" y="986" type="line"/>
      <point x="47" y="1263" type="line"/>
      <point x="132" y="1263" type="line"/>
      <point x="132" y="1365" type="line" smooth="yes"/>
      <point x="132" y="1526"/>
      <point x="213" y="1607"/>
      <point x="374" y="1607" type="curve" smooth="yes"/>
      <point x="459" y="1607"/>
      <point x="527" y="1597"/>
      <point x="578" y="1578" type="curve"/>
      <point x="578" y="1357" type="line"/>
      <point x="559" y="1360"/>
      <point x="545" y="1362"/>
    </contour>
  </outline>
</glyph>
<glyph name="dotlessj" format="1">
  <advance width="538"/>
  <unicode hex="0237"/>
  <outline>
    <contour>
      <point x="110" y="1500" type="line"/>
      <point x="110" y="156" type="line" smooth="yes"/>
      <point x="110" y="115"/>
      <point x="105" y="85"/>
      <point x="67" y="85" type="curve" smooth="yes"/>
      <point x="56" y="85"/>
      <point x="45" y="87"/>
      <point x="34" y="90" type="curve"/>
      <point x="34" y="-150" type="line"/>
      <point x="59" y="-167"/>
      <point x="109" y="-176"/>
      <point x="186" y="-176" type="curve" smooth="yes"/>
      <point x="392" y="-176"/>
      <point x="468" y="-47"/>
      <point x="468" y="166" type="curve" smooth="yes"/>
      <point x="468" y="1500" type="line"/>
    </contour>
    <contour>
      <point x="302" y="1500" type="move" name="top"/>
    </contour>
  </outline>
</glyph>
<glyph name="schwa" format="1">
  <advance width="1000"/>
  <unicode hex="0259"/>
  <outline>
    <contour>
      <point x="490" y="-16" type="curve" smooth="yes"/>
      <point x="770" y="-16"/>
      <point x="940" y="129"/>
      <point x="940" y="408" type="curve" smooth="yes"/>
      <point x="940" y="1011" type="line" smooth="yes"/>
      <point x="940" y="1330"/>
      <point x="829" y="1516"/>
      <point x="508" y="1516" type="curve" smooth="yes"/>
      <point x="168" y="1516"/>
      <point x="58" y="1343"/>
      <point x="58" y="1006" type="curve" smooth="yes"/>
      <point x="58" y="921" type="line"/>
      <point x="414" y="921" type="line"/>
      <point x="414" y="1065" type="line" smooth="yes"/>
      <point x="414" y="1150"/>
      <point x="410" y="1240"/>
      <point x="496" y="1240" type="curve" smooth="yes"/>
      <point x="576" y="1240"/>
      <point x="582" y="1154"/>
      <point x="582" y="1073" type="curve" smooth="yes"/>
      <point x="582" y="783" type="line"/>
      <point x="62" y="783" type="line"/>
      <point x="59" y="732"/>
      <point x="58" y="652"/>
      <point x="58" y="517" type="curve" smooth="yes"/>
      <point x="58" y="408" type="line" smooth="yes"/>
      <point x="58" y="124"/>
      <point x="202" y="-16"/>
    </contour>
    <contour>
      <point x="494" y="251" type="curve" smooth="yes"/>
      <point x="441" y="251"/>
      <point x="414" y="305"/>
      <point x="414" y="413" type="curve" smooth="yes"/>
      <point x="414" y="605" type="line"/>
      <point x="584" y="605" type="line"/>
      <point x="584" y="413" type="line" smooth="yes"/>
      <point x="584" y="301"/>
      <point x="551" y="251"/>
    </contour>
  </outline>
</glyph>
<glyph name="apostrophemod" format="1">
  <advance width="600"/>
  <unicode hex="02BC"/>
  <outline>
    <contour>
      <point x="122" y="1500" type="line"/>
      <point x="122" y="1202" type="line"/>
      <point x="249" y="1202" type="line"/>
      <point x="183" y="966" type="line"/>
      <point x="394" y="966" type="line"/>
      <point x="496" y="1211" type="line"/>
      <point x="496" y="1500" type="line"/>
    </contour>
  </outline>
</glyph>
<glyph name="circumflex" format="1">
  <advance width="970"/>
  <unicode hex="02C6"/>
  <outline>
    <contour>
      <point x="689" y="1994" type="line"/>
      <point x="930" y="1591" type="line"/>
      <point x="571" y="1591" type="line"/>
      <point x="485" y="1876" type="line"/>
      <point x="399" y="1591" type="line"/>
      <point x="40" y="1591" type="line"/>
      <point x="281" y="1994" type="line"/>
    </contour>
  </outline>
</glyph>
<glyph name="caron" format="1">
  <advance width="970"/>
  <unicode hex="02C7"/>
  <outline>
    <contour>
      <point x="571" y="1994" type="line"/>
      <point x="485" y="1709" type="line"/>
      <point x="399" y="1994" type="line"/>
      <point x="40" y="1994" type="line"/>
      <point x="281" y="1591" type="line"/>
      <point x="689" y="1591" type="line"/>
      <point x="930" y="1994" type="line"/>
    </contour>
    <contour>
      <point x="494" y="1500" type="move" name="_top"/>
    </contour>
  </outline>
</glyph>
<glyph name="breve" format="1">
  <advance width="1016"/>
  <unicode hex="02D8"/>
  <outline>
    <contour>
      <point x="508" y="1802" type="curve" smooth="yes"/>
      <point x="591" y="1802"/>
      <point x="643" y="1820"/>
      <point x="643" y="1945" type="curve"/>
      <point x="861" y="1945" type="line"/>
      <point x="861" y="1932" type="line" smooth="yes"/>
      <point x="861" y="1709"/>
      <point x="746" y="1612"/>
      <point x="506" y="1612" type="curve" smooth="yes"/>
      <point x="272" y="1612"/>
      <point x="155" y="1713"/>
      <point x="155" y="1930" type="curve" smooth="yes"/>
      <point x="155" y="1945" type="line"/>
      <point x="373" y="1945" type="line"/>
      <point x="373" y="1820"/>
      <point x="425" y="1802"/>
    </contour>
  </outline>
</glyph>
<glyph name="dotaccent" format="1">
  <advance width="491"/>
  <unicode hex="02D9"/>
  <outline>
    <contour>
      <point x="67" y="1592" type="line"/>
      <point x="425" y="1592" type="line"/>
      <point x="425" y="1890" type="line"/>
      <point x="67" y="1890" type="line"/>
    </contour>
    <contour>
      <point x="265" y="1500" type="move" name="_top"/>
    </contour>
  </outline>
</glyph>
